<?xml version="1.0" encoding="UTF-8"?>
<svg xmlns="http://www.w3.org/2000/svg" viewBox="0 0 1600 1100" preserveAspectRatio="xMidYMid meet" role="img" aria-labelledby="umlTitle umlDesc">
  <style>
    rect, polygon, ellipse {
      filter: drop-shadow(3px 4px 5px rgba(0,0,0,0.65))
              drop-shadow(0 0 6px rgba(218,165,32,0.22));
    }
    circle { filter: drop-shadow(2px 3px 4px rgba(0,0,0,0.55)); }
    text { filter: drop-shadow(0 1px 2px rgba(0,0,0,0.65)); }
    path, line { filter: drop-shadow(0 1px 2px rgba(0,0,0,0.5)); }
  </style>
  <title id="umlTitle">UML class diagram — bomberman-client</title>
  <desc id="umlDesc">Client classes laid out in four columns: launcher and UI scenes, networking, rendering pipeline, and input / audio / safety. ClientLauncher is the primary entry point.</desc>

  <defs>
    <marker id="triangle" viewBox="0 0 14 14" refX="13" refY="7" markerWidth="14" markerHeight="14" orient="auto">
      <path d="M0,0 L14,7 L0,14 z" fill="none" stroke="#94a3b8" stroke-width="1.4"/>
    </marker>
    <marker id="diamondO" viewBox="0 0 16 14" refX="15" refY="7" markerWidth="16" markerHeight="14" orient="auto">
      <path d="M0,7 L8,0 L16,7 L8,14 z" fill="#08090d" stroke="#94a3b8" stroke-width="1.4"/>
    </marker>
    <marker id="diamondF" viewBox="0 0 16 14" refX="15" refY="7" markerWidth="16" markerHeight="14" orient="auto">
      <path d="M0,7 L8,0 L16,7 L8,14 z" fill="#94a3b8" stroke="#94a3b8" stroke-width="1.4"/>
    </marker>
    <marker id="arrow" viewBox="0 0 12 12" refX="11" refY="6" markerWidth="10" markerHeight="10" orient="auto">
      <path d="M0,0 L12,6 L0,12" fill="none" stroke="#94a3b8" stroke-width="1.4"/>
    </marker>
    <pattern id="grid" width="20" height="20" patternUnits="userSpaceOnUse">
      <path d="M20 0 L0 0 0 20" fill="none" stroke="#1f2533" stroke-width="0.3"/>
    </pattern>
    <style>
      .lbl { font-family: -apple-system, "Segoe UI", Roboto, sans-serif; fill: #e6eef8; }
      .cls { font-weight: 700; font-size: 14px; fill: #e6eef8; }
      .stereo { font-size: 10px; fill: #94a3b8; font-style: italic; }
      .member { font-family: "Consolas", "Menlo", monospace; font-size: 11px; fill: #cbd5e1; }
      .ttl { font-weight: 700; font-size: 22px; }
      .grp { font-weight: 700; font-size: 12px; letter-spacing: 1.5px; fill: #94a3b8; }
      .edgelbl { font-size: 10px; fill: #94a3b8; }
    </style>
  </defs>

  <rect width="1600" height="1100" fill="#08090d"/>
  <rect width="1600" height="1100" fill="url(#grid)"/>

  <text x="800" y="36" class="lbl ttl" text-anchor="middle">UML — bomberman-client (JavaFX)</text>
  <text x="800" y="58" class="lbl stereo" text-anchor="middle">ClientLauncher is the primary entry. SceneRouter swaps views; GameClient handles the WebSocket; ArenaRenderer paints each frame.</text>

  <text x="180" y="92" class="lbl grp">.client + .ui (scenes)</text>
  <text x="540" y="92" class="lbl grp">.net (network)</text>
  <text x="900" y="92" class="lbl grp">.render (rendering)</text>
  <text x="1260" y="92" class="lbl grp">.input + .audio + .safety</text>
  <line x1="40" y1="100" x2="1560" y2="100" stroke="#1f2533"/>

  <!-- COLUMN 1 -->
  <!-- ClientLauncher (PRIMARY) -->
  <g>
    <rect x="60" y="120" width="240" height="190" rx="4" fill="#0c0f17" stroke="#3aedff" stroke-width="2.5"/>
    <text x="180" y="142" class="cls" text-anchor="middle" fill="#3aedff">ClientLauncher</text>
    <text x="180" y="158" class="lbl stereo" text-anchor="middle">primary entry (extends Application)</text>
    <line x1="60" y1="168" x2="300" y2="168" stroke="#1f2533"/>
    <text x="72" y="186" class="member">- stage : Stage</text>
    <text x="72" y="202" class="member">- router : SceneRouter</text>
    <text x="72" y="218" class="member">- client : GameClient</text>
    <line x1="60" y1="228" x2="300" y2="228" stroke="#1f2533"/>
    <text x="72" y="246" class="member">+ start(stage) : void</text>
    <text x="72" y="262" class="member">  // calls MandalaTheme.apply</text>
    <text x="72" y="278" class="member">+ main(args) : void [static]</text>
    <text x="72" y="294" class="member">  // launch(args)</text>
  </g>

  <!-- SceneRouter -->
  <g>
    <rect x="60" y="330" width="240" height="170" rx="4" fill="#11141c" stroke="#94a3b8"/>
    <text x="180" y="352" class="cls" text-anchor="middle">SceneRouter</text>
    <line x1="60" y1="362" x2="300" y2="362" stroke="#1f2533"/>
    <text x="72" y="380" class="member">- stage : Stage</text>
    <text x="72" y="396" class="member">- root : StackPane</text>
    <text x="72" y="412" class="member">- current : View</text>
    <line x1="60" y1="422" x2="300" y2="422" stroke="#1f2533"/>
    <text x="72" y="440" class="member">+ show(view) : void</text>
    <text x="72" y="456" class="member">+ getStage() : Stage</text>
    <text x="72" y="472" class="member">+ getRoot() : StackPane</text>
    <text x="72" y="488" class="member">«interface» View</text>
  </g>

  <!-- MandalaTheme (theme utility) -->
  <g>
    <rect x="60" y="520" width="240" height="130" rx="4" fill="#11141c" stroke="#94a3b8"/>
    <text x="180" y="538" class="lbl stereo" text-anchor="middle">&lt;&lt;utility&gt;&gt;</text>
    <text x="180" y="554" class="cls" text-anchor="middle">MandalaTheme</text>
    <line x1="60" y1="562" x2="300" y2="562" stroke="#1f2533"/>
    <text x="72" y="580" class="member">+ NEON_CYAN, NEON_MAGENTA,</text>
    <text x="72" y="596" class="member">+ VAYU_ACCENT, AGNI_ACCENT</text>
    <line x1="60" y1="606" x2="300" y2="606" stroke="#1f2533"/>
    <text x="72" y="624" class="member">+ apply(scene)</text>
    <text x="72" y="640" class="member">+ playerColor(slot)</text>
  </g>

  <!-- MainMenuView -->
  <g>
    <rect x="60" y="670" width="240" height="100" rx="4" fill="#11141c" stroke="#94a3b8"/>
    <text x="180" y="692" class="cls" text-anchor="middle">MainMenuView</text>
    <line x1="60" y1="702" x2="300" y2="702" stroke="#1f2533"/>
    <text x="72" y="720" class="member">+ MainMenuView(router)</text>
    <text x="72" y="736" class="member">+ getRoot() : Parent</text>
    <text x="72" y="752" class="member">  implements View</text>
  </g>

  <!-- LobbyView -->
  <g>
    <rect x="60" y="790" width="240" height="100" rx="4" fill="#11141c" stroke="#94a3b8"/>
    <text x="180" y="812" class="cls" text-anchor="middle">LobbyView</text>
    <line x1="60" y1="822" x2="300" y2="822" stroke="#1f2533"/>
    <text x="72" y="840" class="member">+ getRoot() : Parent</text>
    <text x="72" y="856" class="member">+ onShown()</text>
    <text x="72" y="872" class="member">+ onHidden()</text>
  </g>

  <!-- RankingsView -->
  <g>
    <rect x="60" y="910" width="240" height="100" rx="4" fill="#11141c" stroke="#94a3b8"/>
    <text x="180" y="932" class="cls" text-anchor="middle">RankingsView</text>
    <line x1="60" y1="942" x2="300" y2="942" stroke="#1f2533"/>
    <text x="72" y="960" class="member">+ RankingsView(router)</text>
    <text x="72" y="976" class="member">+ getRoot() : Parent</text>
    <text x="72" y="992" class="member">  Row{rank,player,wins,score}</text>
  </g>

  <!-- COLUMN 2 -->
  <!-- ArenaView -->
  <g>
    <rect x="420" y="120" width="260" height="180" rx="4" fill="#11141c" stroke="#94a3b8"/>
    <text x="550" y="142" class="cls" text-anchor="middle">ArenaView</text>
    <line x1="420" y1="152" x2="680" y2="152" stroke="#1f2533"/>
    <text x="432" y="170" class="member">- canvas : Canvas</text>
    <text x="432" y="186" class="member">- hud : HudOverlay</text>
    <text x="432" y="202" class="member">- renderer : ArenaRenderer</text>
    <text x="432" y="218" class="member">- timer : AnimationTimer</text>
    <line x1="420" y1="228" x2="680" y2="228" stroke="#1f2533"/>
    <text x="432" y="246" class="member">+ ArenaView(router, client)</text>
    <text x="432" y="262" class="member">+ getRoot() : Parent</text>
    <text x="432" y="278" class="member">+ onShown()</text>
    <text x="432" y="294" class="member">+ onHidden()</text>
  </g>

  <!-- HudOverlay -->
  <g>
    <rect x="420" y="320" width="260" height="140" rx="4" fill="#11141c" stroke="#94a3b8"/>
    <text x="550" y="342" class="cls" text-anchor="middle">HudOverlay</text>
    <line x1="420" y1="352" x2="680" y2="352" stroke="#1f2533"/>
    <text x="432" y="370" class="member">- node : Node</text>
    <text x="432" y="386" class="member">- root : StackPane</text>
    <line x1="420" y1="396" class="line" x2="680" y2="396" stroke="#1f2533"/>
    <text x="432" y="414" class="member">+ HudOverlay()</text>
    <text x="432" y="430" class="member">+ getNode() : Node</text>
    <text x="432" y="446" class="member">+ update(snap, playerId, rttMs)</text>
  </g>

  <!-- GameClient -->
  <g>
    <rect x="420" y="480" width="260" height="220" rx="4" fill="#11141c" stroke="#94a3b8"/>
    <text x="550" y="502" class="cls" text-anchor="middle">GameClient</text>
    <line x1="420" y1="512" x2="680" y2="512" stroke="#1f2533"/>
    <text x="432" y="530" class="member">- channel : Channel</text>
    <text x="432" y="546" class="member">- playerId : String</text>
    <text x="432" y="562" class="member">- rttMs : long</text>
    <text x="432" y="578" class="member">- listeners : List</text>
    <text x="432" y="594" class="member">  «AutoCloseable»</text>
    <line x1="420" y1="604" x2="680" y2="604" stroke="#1f2533"/>
    <text x="432" y="622" class="member">+ connectAsync() : void</text>
    <text x="432" y="638" class="member">+ sendInput(frame) : void</text>
    <text x="432" y="654" class="member">+ setSnapshotListener(c)</text>
    <text x="432" y="670" class="member">+ setStatusListener(c)</text>
    <text x="432" y="686" class="member">+ close()</text>
  </g>

  <!-- COLUMN 3 -->
  <!-- ArenaRenderer -->
  <g>
    <rect x="780" y="120" width="260" height="220" rx="4" fill="#11141c" stroke="#94a3b8"/>
    <text x="910" y="142" class="cls" text-anchor="middle">ArenaRenderer</text>
    <line x1="780" y1="152" x2="1040" y2="152" stroke="#1f2533"/>
    <text x="792" y="170" class="member">- gc : GraphicsContext</text>
    <text x="792" y="186" class="member">- particles : ParticleSystem</text>
    <text x="792" y="202" class="member">- shake : CameraShake</text>
    <text x="792" y="218" class="member">- post : PostFx</text>
    <text x="792" y="234" class="member">  uses ParticleSystem,</text>
    <text x="792" y="250" class="member">  CameraShake, PostFx</text>
    <line x1="780" y1="260" x2="1040" y2="260" stroke="#1f2533"/>
    <text x="792" y="278" class="member">+ render(canvas, snap,</text>
    <text x="792" y="294" class="member">    playerId) : void</text>
    <text x="792" y="310" class="member">  // paints one frame</text>
    <text x="792" y="326" class="member">  to the Canvas</text>
  </g>

  <!-- ParticleSystem -->
  <g>
    <rect x="780" y="360" width="260" height="160" rx="4" fill="#11141c" stroke="#94a3b8"/>
    <text x="910" y="382" class="cls" text-anchor="middle">ParticleSystem</text>
    <line x1="780" y1="392" x2="1040" y2="392" stroke="#1f2533"/>
    <text x="792" y="410" class="member">- particles : List</text>
    <text x="792" y="426" class="member">- rng : Random</text>
    <line x1="780" y1="436" x2="1040" y2="436" stroke="#1f2533"/>
    <text x="792" y="454" class="member">+ spawnExplosion(x,y,col,n)</text>
    <text x="792" y="470" class="member">+ spawnSpark / spawnHalo</text>
    <text x="792" y="486" class="member">+ update(dt) / draw(gc)</text>
    <text x="792" y="502" class="member">+ activeCount():int / clear()</text>
  </g>

  <!-- CameraShake -->
  <g>
    <rect x="780" y="540" width="260" height="140" rx="4" fill="#11141c" stroke="#94a3b8"/>
    <text x="910" y="562" class="cls" text-anchor="middle">CameraShake</text>
    <line x1="780" y1="572" x2="1040" y2="572" stroke="#1f2533"/>
    <text x="792" y="590" class="member">- amp : double</text>
    <text x="792" y="606" class="member">- decay : double</text>
    <line x1="780" y1="616" x2="1040" y2="616" stroke="#1f2533"/>
    <text x="792" y="634" class="member">+ kick(power) / update(dt)</text>
    <text x="792" y="650" class="member">+ offsetX() : double</text>
    <text x="792" y="666" class="member">+ offsetY() : double</text>
  </g>

  <!-- PostFx -->
  <g>
    <rect x="780" y="700" width="260" height="160" rx="4" fill="#11141c" stroke="#94a3b8"/>
    <text x="910" y="722" class="cls" text-anchor="middle">PostFx</text>
    <line x1="780" y1="732" x2="1040" y2="732" stroke="#1f2533"/>
    <text x="792" y="750" class="member">- bloom : double</text>
    <text x="792" y="766" class="member">- scanlines : boolean</text>
    <text x="792" y="782" class="member">- chroma : double</text>
    <line x1="780" y1="792" x2="1040" y2="792" stroke="#1f2533"/>
    <text x="792" y="810" class="member">+ draw(gc, w, h) : void</text>
    <text x="792" y="826" class="member">  // bloom + scanlines</text>
    <text x="792" y="842" class="member">  // + chroma overlay</text>
  </g>

  <!-- MandalaArt -->
  <g>
    <rect x="780" y="880" width="260" height="150" rx="4" fill="#11141c" stroke="#94a3b8"/>
    <text x="910" y="900" class="lbl stereo" text-anchor="middle">&lt;&lt;utility&gt;&gt;</text>
    <text x="910" y="916" class="cls" text-anchor="middle">MandalaArt</text>
    <line x1="780" y1="924" x2="1040" y2="924" stroke="#1f2533"/>
    <text x="792" y="942" class="member">- MandalaArt()  // private</text>
    <line x1="780" y1="952" x2="1040" y2="952" stroke="#1f2533"/>
    <text x="792" y="970" class="member">+ mandalaPanel(w,h,seed)</text>
    <text x="792" y="986" class="member">    : Canvas [static]</text>
    <text x="792" y="1002" class="member">+ draw(gc,w,h,seed) [static]</text>
  </g>

  <!-- COLUMN 4 -->
  <!-- GamepadPoller -->
  <g>
    <rect x="1140" y="120" width="260" height="170" rx="4" fill="#11141c" stroke="#94a3b8"/>
    <text x="1270" y="142" class="cls" text-anchor="middle">GamepadPoller</text>
    <line x1="1140" y1="152" x2="1400" y2="152" stroke="#1f2533"/>
    <text x="1152" y="170" class="member">- running : boolean</text>
    <text x="1152" y="186" class="member">- direction : Direction</text>
    <text x="1152" y="202" class="member">  «AutoCloseable»</text>
    <line x1="1140" y1="212" x2="1400" y2="212" stroke="#1f2533"/>
    <text x="1152" y="230" class="member">+ start() / close()</text>
    <text x="1152" y="246" class="member">+ currentDirection() : Direction</text>
    <text x="1152" y="262" class="member">+ consumeBombPress() : boolean</text>
    <text x="1152" y="278" class="member">+ isActive() : boolean</text>
  </g>

  <!-- HapticsService -->
  <g>
    <rect x="1140" y="310" width="260" height="160" rx="4" fill="#11141c" stroke="#94a3b8"/>
    <text x="1270" y="332" class="cls" text-anchor="middle">HapticsService</text>
    <line x1="1140" y1="342" x2="1400" y2="342" stroke="#1f2533"/>
    <text x="1152" y="360" class="member">- running : boolean</text>
    <text x="1152" y="376" class="member">  «AutoCloseable»</text>
    <line x1="1140" y1="386" x2="1400" y2="386" stroke="#1f2533"/>
    <text x="1152" y="404" class="member">+ start(controllers) / close()</text>
    <text x="1152" y="420" class="member">+ pulse(amp, ms)</text>
    <text x="1152" y="436" class="member">+ pulseFor(name)</text>
    <text x="1152" y="452" class="member">+ isActive() : boolean</text>
  </g>

  <!-- AudioBus -->
  <g>
    <rect x="1140" y="490" width="260" height="170" rx="4" fill="#11141c" stroke="#94a3b8"/>
    <text x="1270" y="512" class="cls" text-anchor="middle">AudioBus</text>
    <line x1="1140" y1="522" x2="1400" y2="522" stroke="#1f2533"/>
    <text x="1152" y="540" class="member">- sfx : double</text>
    <text x="1152" y="556" class="member">- music : double</text>
    <text x="1152" y="572" class="member">- muted : boolean</text>
    <line x1="1140" y1="582" x2="1400" y2="582" stroke="#1f2533"/>
    <text x="1152" y="600" class="member">+ setSfx/Music/VoiceVolume(v)</text>
    <text x="1152" y="616" class="member">+ setMuted(b) / isMuted()</text>
    <text x="1152" y="632" class="member">+ playSpatial(id, x, y, z)</text>
    <text x="1152" y="648" class="member">+ playUi(id)</text>
  </g>

  <!-- SpatialAudio -->
  <g>
    <rect x="1140" y="680" width="260" height="160" rx="4" fill="#11141c" stroke="#94a3b8"/>
    <text x="1270" y="702" class="cls" text-anchor="middle">SpatialAudio</text>
    <line x1="1140" y1="712" x2="1400" y2="712" stroke="#1f2533"/>
    <text x="1152" y="730" class="member">+ MAX_DISTANCE [static]</text>
    <text x="1152" y="746" class="member">+ PAN_SATURATION [static]</text>
    <line x1="1140" y1="756" class="line" x2="1400" y2="756" stroke="#1f2533"/>
    <text x="1152" y="774" class="member">+ compute(...) : PanGain</text>
    <text x="1152" y="790" class="member">    [static]</text>
    <text x="1152" y="806" class="member">  record PanGain{pan, gain}</text>
    <text x="1152" y="822" class="member">  «utility»</text>
  </g>

  <!-- AgeGate -->
  <g>
    <rect x="1140" y="860" width="260" height="170" rx="4" fill="#11141c" stroke="#94a3b8"/>
    <text x="1270" y="882" class="cls" text-anchor="middle">AgeGate</text>
    <line x1="1140" y1="892" x2="1400" y2="892" stroke="#1f2533"/>
    <text x="1152" y="910" class="member">  «utility» (private ctor)</text>
    <text x="1152" y="926" class="member">  enum AgeClass{UNDER_13,</text>
    <line x1="1140" y1="936" x2="1400" y2="936" stroke="#1f2533"/>
    <text x="1152" y="954" class="member">    TEEN_13_17, ADULT_18_PLUS}</text>
    <text x="1152" y="970" class="member">+ loadStored() : AgeClass [static]</text>
    <text x="1152" y="986" class="member">+ persist(ageClass) [static]</text>
    <text x="1152" y="1002" class="member">+ prompt() : AgeClass [static]</text>
    <text x="1152" y="1018" class="member">  </text>
  </g>

  <!-- CONNECTORS -->
  <!-- ClientLauncher composes SceneRouter -->
  <path d="M 180 310 L 180 330" fill="none" stroke="#94a3b8" stroke-width="1.4" marker-end="url(#diamondF)"/>

  <!-- ClientLauncher composes GameClient -->
  <path d="M 300 200 L 420 540" fill="none" stroke="#94a3b8" stroke-width="1.4" marker-end="url(#diamondF)"/>
  <text x="340" y="370" class="edgelbl">owns</text>

  <!-- SceneRouter -> MandalaTheme (uses) -->
  <path d="M 180 500 L 180 520" fill="none" stroke="#94a3b8" stroke-width="1.4" marker-end="url(#arrow)"/>

  <!-- SceneRouter -> MainMenuView, LobbyView, RankingsView, ArenaView (assoc) -->
  <path d="M 200 500 L 200 670" fill="none" stroke="#94a3b8" stroke-width="1.2" marker-end="url(#arrow)" stroke-dasharray="3 3"/>
  <path d="M 220 500 L 220 790" fill="none" stroke="#94a3b8" stroke-width="1.2" marker-end="url(#arrow)" stroke-dasharray="3 3"/>
  <path d="M 240 500 L 240 910" fill="none" stroke="#94a3b8" stroke-width="1.2" marker-end="url(#arrow)" stroke-dasharray="3 3"/>
  <path d="M 300 380 L 420 180" fill="none" stroke="#94a3b8" stroke-width="1.2" marker-end="url(#arrow)" stroke-dasharray="3 3"/>
  <text x="340" y="278" class="edgelbl">arena</text>

  <!-- ArenaView -> ArenaRenderer (composition) -->
  <path d="M 680 200 L 780 200" fill="none" stroke="#94a3b8" stroke-width="1.4" marker-end="url(#diamondF)"/>

  <!-- ArenaView -> HudOverlay (composition) -->
  <path d="M 550 300 L 550 320" fill="none" stroke="#94a3b8" stroke-width="1.4" marker-end="url(#diamondF)"/>

  <!-- ArenaView -> GameClient (assoc) -->
  <path d="M 550 300 L 600 300 L 600 480" fill="none" stroke="#94a3b8" stroke-width="1.2" marker-end="url(#arrow)" stroke-dasharray="3 3"/>

  <!-- ArenaRenderer -> ParticleSystem (composition) -->
  <path d="M 910 340 L 910 360" fill="none" stroke="#94a3b8" stroke-width="1.4" marker-end="url(#diamondF)"/>
  <!-- ArenaRenderer -> CameraShake (composition) -->
  <path d="M 980 340 L 980 540" fill="none" stroke="#94a3b8" stroke-width="1.4" marker-end="url(#diamondF)"/>
  <!-- ArenaRenderer -> PostFx (composition) -->
  <path d="M 1020 340 L 1020 700" fill="none" stroke="#94a3b8" stroke-width="1.4" marker-end="url(#diamondF)"/>

  <!-- ClientLauncher -> GamepadPoller (uses) -->
  <path d="M 300 180 L 1140 180" fill="none" stroke="#94a3b8" stroke-width="1.2" marker-end="url(#arrow)" stroke-dasharray="3 3"/>
  <text x="600" y="174" class="edgelbl">uses gamepad</text>

  <!-- GamepadPoller -> HapticsService -->
  <path d="M 1270 290 L 1270 310" fill="none" stroke="#94a3b8" stroke-width="1.2" marker-end="url(#arrow)" stroke-dasharray="3 3"/>

  <!-- ClientLauncher -> AudioBus -->
  <path d="M 300 240 L 1100 240 L 1100 520 L 1140 520" fill="none" stroke="#94a3b8" stroke-width="1.2" marker-end="url(#arrow)" stroke-dasharray="3 3"/>
  <text x="700" y="234" class="edgelbl">audio</text>

  <!-- ArenaRenderer -> SpatialAudio -->
  <path d="M 1040 280 L 1080 280 L 1080 720 L 1140 720" fill="none" stroke="#94a3b8" stroke-width="1.2" marker-end="url(#arrow)" stroke-dasharray="3 3"/>

  <!-- AudioBus -> SpatialAudio (composition) -->
  <path d="M 1270 660 L 1270 680" fill="none" stroke="#94a3b8" stroke-width="1.4" marker-end="url(#diamondF)"/>

  <!-- ClientLauncher -> AgeGate (uses) -->
  <path d="M 300 290 L 1120 290 L 1120 890 L 1140 890" fill="none" stroke="#94a3b8" stroke-width="1.2" marker-end="url(#arrow)" stroke-dasharray="3 3"/>
  <text x="700" y="284" class="edgelbl">age gate</text>

  <!-- GameClient -> bomberman-core marker -->
  <g>
    <rect x="700" y="490" width="40" height="50" fill="#0c0f17" stroke="#3aedff" stroke-dasharray="3 3"/>
    <text x="720" y="522" class="member" text-anchor="middle" fill="#3aedff">core</text>
  </g>
  <text x="690" y="486" class="edgelbl" fill="#3aedff">uses WireCodec + GameWorld</text>

  <!-- Legend -->
  <g>
    <rect x="40" y="1056" width="1520" height="34" rx="4" fill="#0c0f17" stroke="#1f2533"/>
    <text x="60" y="1077" class="member">Legend:</text>
    <line x1="120" y1="1072" x2="170" y2="1072" stroke="#94a3b8" stroke-width="1.4" marker-end="url(#triangle)"/>
    <text x="180" y="1077" class="member">inheritance</text>
    <line x1="280" y1="1072" x2="330" y2="1072" stroke="#94a3b8" stroke-width="1.4" marker-end="url(#diamondO)"/>
    <text x="346" y="1077" class="member">aggregation</text>
    <line x1="460" y1="1072" x2="510" y2="1072" stroke="#94a3b8" stroke-width="1.4" marker-end="url(#diamondF)"/>
    <text x="528" y="1077" class="member">composition</text>
    <line x1="640" y1="1072" x2="690" y2="1072" stroke="#94a3b8" stroke-width="1.2" marker-end="url(#arrow)" stroke-dasharray="3 3"/>
    <text x="700" y="1077" class="member">association / dependency</text>
  </g>
</svg>
