<?xml version="1.0" encoding="UTF-8"?>
<svg xmlns="http://www.w3.org/2000/svg" viewBox="0 0 1600 1100" preserveAspectRatio="xMidYMid meet" role="img" aria-labelledby="umlTitle umlDesc">
  <title id="umlTitle">UML class diagram — bomb-server</title>
  <desc id="umlDesc">Server classes laid out in four columns: network layer, session and lobby, match orchestration, and supporting services (auth, ai, chat, moderation, config). MatchManager is the primary entry point.</desc>

  <defs>
    <marker id="triangle" viewBox="0 0 14 14" refX="13" refY="7" markerWidth="14" markerHeight="14" orient="auto">
      <path d="M0,0 L14,7 L0,14 z" fill="none" stroke="#94a3b8" stroke-width="1.4"/>
    </marker>
    <marker id="diamondO" viewBox="0 0 16 14" refX="15" refY="7" markerWidth="16" markerHeight="14" orient="auto">
      <path d="M0,7 L8,0 L16,7 L8,14 z" fill="#08090d" stroke="#94a3b8" stroke-width="1.4"/>
    </marker>
    <marker id="diamondF" viewBox="0 0 16 14" refX="15" refY="7" markerWidth="16" markerHeight="14" orient="auto">
      <path d="M0,7 L8,0 L16,7 L8,14 z" fill="#94a3b8" stroke="#94a3b8" stroke-width="1.4"/>
    </marker>
    <marker id="arrow" viewBox="0 0 12 12" refX="11" refY="6" markerWidth="10" markerHeight="10" orient="auto">
      <path d="M0,0 L12,6 L0,12" fill="none" stroke="#94a3b8" stroke-width="1.4"/>
    </marker>
    <pattern id="grid" width="20" height="20" patternUnits="userSpaceOnUse">
      <path d="M20 0 L0 0 0 20" fill="none" stroke="#1f2533" stroke-width="0.3"/>
    </pattern>
    <style>
      .lbl { font-family: -apple-system, "Segoe UI", Roboto, sans-serif; fill: #e6eef8; }
      .cls { font-weight: 700; font-size: 14px; fill: #e6eef8; }
      .stereo { font-size: 10px; fill: #94a3b8; font-style: italic; }
      .member { font-family: "Consolas", "Menlo", monospace; font-size: 11px; fill: #cbd5e1; }
      .ttl { font-weight: 700; font-size: 22px; }
      .grp { font-weight: 700; font-size: 12px; letter-spacing: 1.5px; fill: #94a3b8; }
      .edgelbl { font-size: 10px; fill: #94a3b8; }
    </style>
  </defs>

  <rect width="1600" height="1100" fill="#08090d"/>
  <rect width="1600" height="1100" fill="url(#grid)"/>

  <text x="800" y="36" class="lbl ttl" text-anchor="middle">UML — bomb-server</text>
  <text x="800" y="58" class="lbl stereo" text-anchor="middle">MatchManager is the primary orchestration entry. The Netty pipeline feeds inputs to MatchSession which owns a GameWorld from bomb-core.</text>

  <text x="180" y="92" class="lbl grp">.server + .net (network)</text>
  <text x="540" y="92" class="lbl grp">.session + .lobby</text>
  <text x="900" y="92" class="lbl grp">.match + .ai (orchestration)</text>
  <text x="1260" y="92" class="lbl grp">.auth + .chat + .moderation + .config</text>
  <line x1="40" y1="100" x2="1560" y2="100" stroke="#1f2533"/>

  <!-- COLUMN 1 -->
  <!-- BombServerApplication -->
  <g>
    <rect x="60" y="120" width="240" height="160" rx="4" fill="#11141c" stroke="#94a3b8"/>
    <text x="180" y="142" class="cls" text-anchor="middle">BombServerApplication</text>
    <text x="180" y="158" class="lbl stereo" text-anchor="middle">main entry</text>
    <line x1="60" y1="168" x2="300" y2="168" stroke="#1f2533"/>
    <text x="72" y="186" class="member">- cfg : ServerConfig</text>
    <text x="72" y="202" class="member">- ws : WebSocketServer</text>
    <line x1="60" y1="212" x2="300" y2="212" stroke="#1f2533"/>
    <text x="72" y="230" class="member">+ main(args)</text>
    <text x="72" y="246" class="member">+ start() : void</text>
    <text x="72" y="262" class="member">+ shutdown() : void</text>
  </g>

  <!-- WebSocketServer -->
  <g>
    <rect x="60" y="300" width="240" height="170" rx="4" fill="#11141c" stroke="#94a3b8"/>
    <text x="180" y="322" class="cls" text-anchor="middle">WebSocketServer</text>
    <line x1="60" y1="332" x2="300" y2="332" stroke="#1f2533"/>
    <text x="72" y="350" class="member">- port : int</text>
    <text x="72" y="366" class="member">- bossGroup, workerGroup</text>
    <text x="72" y="382" class="member">- handler : GameServerHandler</text>
    <line x1="60" y1="392" x2="300" y2="392" stroke="#1f2533"/>
    <text x="72" y="410" class="member">+ start() : void</text>
    <text x="72" y="426" class="member">+ stop() : void</text>
    <text x="72" y="442" class="member">+ port() : int</text>
    <text x="72" y="458" class="member">+ pipeline() : Pipeline</text>
  </g>

  <!-- GameServerHandler -->
  <g>
    <rect x="60" y="490" width="240" height="200" rx="4" fill="#11141c" stroke="#94a3b8"/>
    <text x="180" y="512" class="cls" text-anchor="middle">GameServerHandler</text>
    <line x1="60" y1="522" x2="300" y2="522" stroke="#1f2533"/>
    <text x="72" y="540" class="member">- codec : WireCodec</text>
    <text x="72" y="556" class="member">- registry : SessionRegistry</text>
    <text x="72" y="572" class="member">- lobby : LobbyService</text>
    <text x="72" y="588" class="member">- matches : MatchManager</text>
    <line x1="60" y1="598" x2="300" y2="598" stroke="#1f2533"/>
    <text x="72" y="616" class="member">+ channelRead(ctx, msg)</text>
    <text x="72" y="632" class="member">+ onAuth(env)</text>
    <text x="72" y="648" class="member">+ onInput(env)</text>
    <text x="72" y="664" class="member">+ onChat(env)</text>
    <text x="72" y="680" class="member">+ disconnect(ctx)</text>
  </g>

  <!-- MetricsHandler -->
  <g>
    <rect x="60" y="710" width="240" height="150" rx="4" fill="#11141c" stroke="#94a3b8"/>
    <text x="180" y="732" class="cls" text-anchor="middle">MetricsHandler</text>
    <line x1="60" y1="742" x2="300" y2="742" stroke="#1f2533"/>
    <text x="72" y="760" class="member">- registry : MeterRegistry</text>
    <line x1="60" y1="770" x2="300" y2="770" stroke="#1f2533"/>
    <text x="72" y="788" class="member">+ handle(req, resp)</text>
    <text x="72" y="804" class="member">+ writeProm() : String</text>
    <text x="72" y="820" class="member">+ tickHz() : double</text>
    <text x="72" y="836" class="member">+ activeSessions() : int</text>
  </g>

  <!-- COLUMN 2 -->
  <!-- ClientSession -->
  <g>
    <rect x="420" y="120" width="260" height="190" rx="4" fill="#11141c" stroke="#94a3b8"/>
    <text x="550" y="142" class="cls" text-anchor="middle">ClientSession</text>
    <line x1="420" y1="152" x2="680" y2="152" stroke="#1f2533"/>
    <text x="432" y="170" class="member">- id : String</text>
    <text x="432" y="186" class="member">- channel : Channel</text>
    <text x="432" y="202" class="member">- userId : String</text>
    <text x="432" y="218" class="member">- state : SessionState</text>
    <text x="432" y="234" class="member">- lastSeenMs : long</text>
    <line x1="420" y1="244" x2="680" y2="244" stroke="#1f2533"/>
    <text x="432" y="262" class="member">+ send(env)</text>
    <text x="432" y="278" class="member">+ close()</text>
    <text x="432" y="294" class="member">+ touch()</text>
  </g>

  <!-- SessionRegistry -->
  <g>
    <rect x="420" y="330" width="260" height="170" rx="4" fill="#11141c" stroke="#94a3b8"/>
    <text x="550" y="352" class="cls" text-anchor="middle">SessionRegistry</text>
    <line x1="420" y1="362" x2="680" y2="362" stroke="#1f2533"/>
    <text x="432" y="380" class="member">- sessions : Map&lt;Id, ClientSession&gt;</text>
    <line x1="420" y1="390" x2="680" y2="390" stroke="#1f2533"/>
    <text x="432" y="408" class="member">+ register(s) : void</text>
    <text x="432" y="424" class="member">+ get(id) : ClientSession</text>
    <text x="432" y="440" class="member">+ remove(id)</text>
    <text x="432" y="456" class="member">+ count() : int</text>
    <text x="432" y="472" class="member">+ broadcast(env)</text>
    <text x="432" y="488" class="member">+ sweepStale()</text>
  </g>

  <!-- LobbyService -->
  <g>
    <rect x="420" y="520" width="260" height="200" rx="4" fill="#11141c" stroke="#94a3b8"/>
    <text x="550" y="542" class="cls" text-anchor="middle">LobbyService</text>
    <line x1="420" y1="552" x2="680" y2="552" stroke="#1f2533"/>
    <text x="432" y="570" class="member">- queue : Deque&lt;LobbyPlayer&gt;</text>
    <text x="432" y="586" class="member">- cosmetics : CosmeticsCatalog</text>
    <text x="432" y="602" class="member">- minPlayers : int = 2</text>
    <text x="432" y="618" class="member">- maxPlayers : int = 4</text>
    <line x1="420" y1="628" x2="680" y2="628" stroke="#1f2533"/>
    <text x="432" y="646" class="member">+ enqueue(p) : void</text>
    <text x="432" y="662" class="member">+ leave(id) : void</text>
    <text x="432" y="678" class="member">+ pollMatch() : LobbyMatch</text>
    <text x="432" y="694" class="member">+ size() : int</text>
    <text x="432" y="710" class="member">+ pickCosmetic(p)</text>
  </g>

  <!-- LobbyPlayer -->
  <g>
    <rect x="420" y="740" width="260" height="150" rx="4" fill="#11141c" stroke="#94a3b8"/>
    <text x="550" y="762" class="cls" text-anchor="middle">LobbyPlayer</text>
    <line x1="420" y1="772" x2="680" y2="772" stroke="#1f2533"/>
    <text x="432" y="790" class="member">+ id : String</text>
    <text x="432" y="806" class="member">+ display : String</text>
    <text x="432" y="822" class="member">+ rank : int</text>
    <text x="432" y="838" class="member">+ cosmetic : Cosmetic</text>
    <text x="432" y="854" class="member">+ joinedMs : long</text>
  </g>

  <!-- CosmeticsCatalog -->
  <g>
    <rect x="420" y="910" width="260" height="140" rx="4" fill="#11141c" stroke="#94a3b8"/>
    <text x="550" y="932" class="cls" text-anchor="middle">CosmeticsCatalog</text>
    <line x1="420" y1="942" x2="680" y2="942" stroke="#1f2533"/>
    <text x="432" y="960" class="member">- skins : List&lt;Cosmetic&gt;</text>
    <line x1="420" y1="970" x2="680" y2="970" stroke="#1f2533"/>
    <text x="432" y="988" class="member">+ all() : List&lt;Cosmetic&gt;</text>
    <text x="432" y="1004" class="member">+ byId(id) : Cosmetic</text>
    <text x="432" y="1020" class="member">+ defaults() : Cosmetic</text>
    <text x="432" y="1036" class="member">+ refresh()</text>
  </g>

  <!-- COLUMN 3 -->
  <!-- MatchManager (PRIMARY) -->
  <g>
    <rect x="780" y="120" width="260" height="240" rx="4" fill="#0c0f17" stroke="#3aedff" stroke-width="2.5"/>
    <text x="910" y="142" class="cls" text-anchor="middle" fill="#3aedff">MatchManager</text>
    <text x="910" y="158" class="lbl stereo" text-anchor="middle">primary entry</text>
    <line x1="780" y1="168" x2="1040" y2="168" stroke="#1f2533"/>
    <text x="792" y="186" class="member">- active : Map&lt;Id, MatchSession&gt;</text>
    <text x="792" y="202" class="member">- registry : SessionRegistry</text>
    <text x="792" y="218" class="member">- bots : BotController</text>
    <text x="792" y="234" class="member">- chat : ChatRouter</text>
    <text x="792" y="250" class="member">- cfg : ServerConfig</text>
    <line x1="780" y1="260" x2="1040" y2="260" stroke="#1f2533"/>
    <text x="792" y="278" class="member">+ createMatch(players) : Id</text>
    <text x="792" y="294" class="member">+ dispatchInput(p, env)</text>
    <text x="792" y="310" class="member">+ endMatch(id)</text>
    <text x="792" y="326" class="member">+ tickAll(dt)</text>
    <text x="792" y="342" class="member">+ activeCount() : int</text>
  </g>

  <!-- MatchSession -->
  <g>
    <rect x="780" y="380" width="260" height="240" rx="4" fill="#11141c" stroke="#94a3b8"/>
    <text x="910" y="402" class="cls" text-anchor="middle">MatchSession</text>
    <line x1="780" y1="412" x2="1040" y2="412" stroke="#1f2533"/>
    <text x="792" y="430" class="member">- matchId : String</text>
    <text x="792" y="446" class="member">- world : GameWorld</text>
    <text x="792" y="462" class="member">- players : List&lt;ClientSession&gt;</text>
    <text x="792" y="478" class="member">- snap : Snapshotter</text>
    <text x="792" y="494" class="member">- tickMs : long</text>
    <line x1="780" y1="504" x2="1040" y2="504" stroke="#1f2533"/>
    <text x="792" y="522" class="member">+ tick(dt) : void</text>
    <text x="792" y="538" class="member">+ apply(input)</text>
    <text x="792" y="554" class="member">+ broadcast(env)</text>
    <text x="792" y="570" class="member">+ isEnded() : boolean</text>
    <text x="792" y="586" class="member">+ summary() : MatchSummary</text>
    <text x="792" y="602" class="member">+ kick(id)</text>
  </g>

  <!-- BotController -->
  <g>
    <rect x="780" y="640" width="260" height="180" rx="4" fill="#11141c" stroke="#94a3b8"/>
    <text x="910" y="662" class="cls" text-anchor="middle">BotController</text>
    <line x1="780" y1="672" x2="1040" y2="672" stroke="#1f2533"/>
    <text x="792" y="690" class="member">- difficulty : Level</text>
    <text x="792" y="706" class="member">- world : GameWorld</text>
    <text x="792" y="722" class="member">- targets : Map&lt;Id, TilePos&gt;</text>
    <line x1="780" y1="732" x2="1040" y2="732" stroke="#1f2533"/>
    <text x="792" y="750" class="member">+ think(bot, dt) : Input</text>
    <text x="792" y="766" class="member">+ pickTarget(b) : TilePos</text>
    <text x="792" y="782" class="member">+ shouldPlant(b)</text>
    <text x="792" y="798" class="member">+ avoidExplosions(b)</text>
  </g>

  <!-- ChatRouter -->
  <g>
    <rect x="780" y="840" width="260" height="160" rx="4" fill="#11141c" stroke="#94a3b8"/>
    <text x="910" y="862" class="cls" text-anchor="middle">ChatRouter</text>
    <line x1="780" y1="872" x2="1040" y2="872" stroke="#1f2533"/>
    <text x="792" y="890" class="member">- filter : ProfanityFilter</text>
    <text x="792" y="906" class="member">- rate : RateLimiter</text>
    <line x1="780" y1="916" x2="1040" y2="916" stroke="#1f2533"/>
    <text x="792" y="934" class="member">+ route(from, msg)</text>
    <text x="792" y="950" class="member">+ toMatch(id, msg)</text>
    <text x="792" y="966" class="member">+ toGlobal(msg)</text>
    <text x="792" y="982" class="member">+ mute(id, ms)</text>
  </g>

  <!-- COLUMN 4 -->
  <!-- AuthProvider interface -->
  <g>
    <rect x="1140" y="120" width="260" height="120" rx="4" fill="#11141c" stroke="#94a3b8"/>
    <text x="1270" y="140" class="lbl stereo" text-anchor="middle">&lt;&lt;interface&gt;&gt;</text>
    <text x="1270" y="158" class="cls" text-anchor="middle">AuthProvider</text>
    <line x1="1140" y1="168" x2="1400" y2="168" stroke="#1f2533"/>
    <text x="1152" y="186" class="member">+ verify(token) : User</text>
    <text x="1152" y="202" class="member">+ name() : String</text>
    <text x="1152" y="218" class="member">+ isEnabled() : boolean</text>
  </g>

  <!-- DevAuthProvider -->
  <g>
    <rect x="1140" y="260" width="120" height="100" rx="4" fill="#11141c" stroke="#94a3b8"/>
    <text x="1200" y="282" class="cls" text-anchor="middle" font-size="12">DevAuthProvider</text>
    <line x1="1140" y1="292" x2="1260" y2="292" stroke="#1f2533"/>
    <text x="1152" y="310" class="member">+ verify(t)</text>
    <text x="1152" y="326" class="member">+ name()</text>
    <text x="1152" y="342" class="member">+ allow(*)</text>
  </g>

  <!-- GoogleAuthProvider -->
  <g>
    <rect x="1280" y="260" width="120" height="100" rx="4" fill="#11141c" stroke="#94a3b8"/>
    <text x="1340" y="282" class="cls" text-anchor="middle" font-size="12">GoogleAuthProvider</text>
    <line x1="1280" y1="292" class="line" x2="1400" y2="292" stroke="#1f2533"/>
    <text x="1292" y="310" class="member">+ verify(jwt)</text>
    <text x="1292" y="326" class="member">+ name()</text>
    <text x="1292" y="342" class="member">+ jwks()</text>
  </g>

  <!-- AuthRegistry -->
  <g>
    <rect x="1140" y="380" width="260" height="150" rx="4" fill="#11141c" stroke="#94a3b8"/>
    <text x="1270" y="402" class="cls" text-anchor="middle">AuthRegistry</text>
    <line x1="1140" y1="412" x2="1400" y2="412" stroke="#1f2533"/>
    <text x="1152" y="430" class="member">- providers : List&lt;AuthProvider&gt;</text>
    <line x1="1140" y1="440" x2="1400" y2="440" stroke="#1f2533"/>
    <text x="1152" y="458" class="member">+ add(p) : void</text>
    <text x="1152" y="474" class="member">+ resolve(name) : Provider</text>
    <text x="1152" y="490" class="member">+ verify(name, token)</text>
    <text x="1152" y="506" class="member">+ enabledNames()</text>
  </g>

  <!-- ProfanityFilter -->
  <g>
    <rect x="1140" y="550" width="260" height="140" rx="4" fill="#11141c" stroke="#94a3b8"/>
    <text x="1270" y="572" class="cls" text-anchor="middle">ProfanityFilter</text>
    <line x1="1140" y1="582" x2="1400" y2="582" stroke="#1f2533"/>
    <text x="1152" y="600" class="member">- bad : Set&lt;String&gt;</text>
    <line x1="1140" y1="610" x2="1400" y2="610" stroke="#1f2533"/>
    <text x="1152" y="628" class="member">+ clean(s) : String</text>
    <text x="1152" y="644" class="member">+ score(s) : int</text>
    <text x="1152" y="660" class="member">+ reload()</text>
    <text x="1152" y="676" class="member">+ contains(w)</text>
  </g>

  <!-- ServerConfig -->
  <g>
    <rect x="1140" y="710" width="260" height="170" rx="4" fill="#11141c" stroke="#94a3b8"/>
    <text x="1270" y="732" class="cls" text-anchor="middle">ServerConfig</text>
    <line x1="1140" y1="742" x2="1400" y2="742" stroke="#1f2533"/>
    <text x="1152" y="760" class="member">+ wsPort : int</text>
    <text x="1152" y="776" class="member">+ metricsPort : int</text>
    <text x="1152" y="792" class="member">+ tickHz : int</text>
    <text x="1152" y="808" class="member">+ jdbcUrl : String</text>
    <text x="1152" y="824" class="member">+ redisUrl : String</text>
    <line x1="1140" y1="834" x2="1400" y2="834" stroke="#1f2533"/>
    <text x="1152" y="852" class="member">+ load(env) : Config</text>
    <text x="1152" y="868" class="member">+ validate()</text>
  </g>

  <!-- Cosmetic -->
  <g>
    <rect x="1140" y="900" width="260" height="140" rx="4" fill="#11141c" stroke="#94a3b8"/>
    <text x="1270" y="922" class="cls" text-anchor="middle">Cosmetic</text>
    <line x1="1140" y1="932" x2="1400" y2="932" stroke="#1f2533"/>
    <text x="1152" y="950" class="member">+ id : String</text>
    <text x="1152" y="966" class="member">+ name : String</text>
    <text x="1152" y="982" class="member">+ rarity : Rarity</text>
    <text x="1152" y="998" class="member">+ palette : Color[4]</text>
    <text x="1152" y="1014" class="member">+ unlocked : boolean</text>
  </g>

  <!-- ===== CONNECTORS ===== -->
  <!-- BombServerApplication -> WebSocketServer (composition) -->
  <path d="M 180 280 L 180 300" fill="none" stroke="#94a3b8" stroke-width="1.4" marker-end="url(#diamondF)"/>

  <!-- WebSocketServer -> GameServerHandler (composition) -->
  <path d="M 180 470 L 180 490" fill="none" stroke="#94a3b8" stroke-width="1.4" marker-end="url(#diamondF)"/>

  <!-- GameServerHandler -> SessionRegistry -->
  <path d="M 300 560 L 360 560 L 360 410 L 420 410" fill="none" stroke="#94a3b8" stroke-width="1.4" marker-end="url(#arrow)"/>

  <!-- GameServerHandler -> LobbyService -->
  <path d="M 300 600 L 380 600 L 380 600 L 420 600" fill="none" stroke="#94a3b8" stroke-width="1.4" marker-end="url(#arrow)"/>

  <!-- GameServerHandler -> MatchManager -->
  <path d="M 300 640 L 740 640 L 740 240 L 780 240" fill="none" stroke="#94a3b8" stroke-width="1.4" marker-end="url(#arrow)"/>
  <text x="500" y="634" class="edgelbl">dispatch</text>

  <!-- SessionRegistry -> ClientSession (aggregation, many) -->
  <path d="M 550 330 L 550 310" fill="none" stroke="#94a3b8" stroke-width="1.4" marker-end="url(#diamondO)"/>
  <text x="558" y="324" class="edgelbl">0..*</text>

  <!-- LobbyService -> LobbyPlayer (aggregation) -->
  <path d="M 550 720 L 550 740" fill="none" stroke="#94a3b8" stroke-width="1.4" marker-start="url(#diamondO)"/>
  <text x="558" y="734" class="edgelbl">0..*</text>

  <!-- LobbyService -> CosmeticsCatalog -->
  <path d="M 660 720 L 700 720 L 700 980 L 680 980" fill="none" stroke="#94a3b8" stroke-width="1.4" marker-end="url(#arrow)"/>

  <!-- CosmeticsCatalog -> Cosmetic (aggregation) -->
  <path d="M 680 980 L 1140 980" fill="none" stroke="#94a3b8" stroke-width="1.4" marker-start="url(#diamondO)"/>
  <text x="900" y="974" class="edgelbl">0..*</text>

  <!-- LobbyPlayer -> Cosmetic -->
  <path d="M 680 838 L 1100 838 L 1100 970 L 1140 970" fill="none" stroke="#94a3b8" stroke-width="1.2" marker-end="url(#arrow)" stroke-dasharray="3 3"/>

  <!-- MatchManager -> MatchSession (composition many) -->
  <path d="M 910 360 L 910 380" fill="none" stroke="#94a3b8" stroke-width="1.4" marker-end="url(#diamondF)"/>
  <text x="918" y="376" class="edgelbl">0..*</text>

  <!-- MatchManager -> BotController -->
  <path d="M 1050 290 L 1090 290 L 1090 690 L 1040 690" fill="none" stroke="#94a3b8" stroke-width="1.4" marker-end="url(#arrow)"/>

  <!-- MatchManager -> ChatRouter -->
  <path d="M 1050 320 L 1110 320 L 1110 900 L 1040 900" fill="none" stroke="#94a3b8" stroke-width="1.4" marker-end="url(#arrow)"/>

  <!-- MatchManager -> SessionRegistry (read) -->
  <path d="M 780 200 L 720 200 L 720 380 L 680 380" fill="none" stroke="#94a3b8" stroke-width="1.2" marker-end="url(#arrow)" stroke-dasharray="3 3"/>

  <!-- MatchSession -> ClientSession many -->
  <path d="M 780 470 L 700 470 L 700 250 L 680 250" fill="none" stroke="#94a3b8" stroke-width="1.4" marker-start="url(#diamondO)"/>
  <text x="690" y="262" class="edgelbl">2..4</text>

  <!-- MatchSession -> GameWorld (external dotted) -->
  <rect x="780" y="640" width="0" height="0"/>
  <g>
    <rect x="1080" y="380" width="40" height="50" fill="#0c0f17" stroke="#3aedff" stroke-dasharray="3 3"/>
    <text x="1100" y="412" class="member" text-anchor="middle" fill="#3aedff">core</text>
  </g>
  <path d="M 1040 430 L 1080 410" fill="none" stroke="#3aedff" stroke-width="1.4" marker-end="url(#arrow)"/>
  <text x="1042" y="424" class="edgelbl" fill="#3aedff">uses GameWorld</text>

  <!-- AuthRegistry -> AuthProvider (aggregation) -->
  <path d="M 1270 380 L 1270 240" fill="none" stroke="#94a3b8" stroke-width="1.4" marker-end="url(#diamondO)"/>

  <!-- DevAuthProvider -> AuthProvider (inheritance) -->
  <path d="M 1200 260 L 1200 240" fill="none" stroke="#94a3b8" stroke-width="1.4" marker-end="url(#triangle)"/>

  <!-- GoogleAuthProvider -> AuthProvider (inheritance) -->
  <path d="M 1340 260 L 1340 240" fill="none" stroke="#94a3b8" stroke-width="1.4" marker-end="url(#triangle)"/>

  <!-- ChatRouter -> ProfanityFilter -->
  <path d="M 1040 880 L 1110 880 L 1110 620 L 1140 620" fill="none" stroke="#94a3b8" stroke-width="1.4" marker-end="url(#arrow)"/>

  <!-- BombServerApplication -> ServerConfig -->
  <path d="M 300 200 L 1080 200 L 1080 750 L 1140 750" fill="none" stroke="#94a3b8" stroke-width="1.2" marker-end="url(#arrow)" stroke-dasharray="3 3"/>
  <text x="690" y="194" class="edgelbl">reads config</text>

  <!-- Legend -->
  <g>
    <rect x="40" y="1056" width="1520" height="34" rx="4" fill="#0c0f17" stroke="#1f2533"/>
    <text x="60" y="1077" class="member">Legend:</text>
    <line x1="120" y1="1072" x2="170" y2="1072" stroke="#94a3b8" stroke-width="1.4" marker-end="url(#triangle)"/>
    <text x="180" y="1077" class="member">inheritance</text>
    <line x1="280" y1="1072" x2="330" y2="1072" stroke="#94a3b8" stroke-width="1.4" marker-end="url(#diamondO)"/>
    <text x="346" y="1077" class="member">aggregation</text>
    <line x1="460" y1="1072" x2="510" y2="1072" stroke="#94a3b8" stroke-width="1.4" marker-end="url(#diamondF)"/>
    <text x="528" y="1077" class="member">composition</text>
    <line x1="640" y1="1072" x2="690" y2="1072" stroke="#94a3b8" stroke-width="1.2" marker-end="url(#arrow)" stroke-dasharray="3 3"/>
    <text x="700" y="1077" class="member">association / dependency</text>
  </g>
</svg>
