<?xml version="1.0" encoding="UTF-8"?>
<svg xmlns="http://www.w3.org/2000/svg" viewBox="0 0 1600 1180" preserveAspectRatio="xMidYMid meet" role="img" aria-labelledby="title desc">
  <title id="title">UML Class Diagram — bomberman-core</title>
  <desc id="desc">Shared core entities: Bomberman, Player, Bomb, Explosion, Arena, Tile, Score, PowerUpItem, abstract Bonus + 7 subclasses, GameWorld, Snapshotter.</desc>
  <defs>
    <filter id="bx-3d-bevel" x="-10%" y="-10%" width="120%" height="120%">
      <feGaussianBlur in="SourceAlpha" stdDeviation="1.5" result="blur"/>
      <feOffset in="blur" dx="3" dy="4" result="dropshadowAlpha"/>
      <feFlood flood-color="#000" flood-opacity="0.55"/>
      <feComposite in2="dropshadowAlpha" operator="in" result="dropshadow"/>
      <feSpecularLighting in="blur" surfaceScale="2.4" specularConstant="0.55"
                          specularExponent="22" lighting-color="#fff8e7" result="specOut">
        <feDistantLight azimuth="-45" elevation="65"/>
      </feSpecularLighting>
      <feComposite in="specOut" in2="SourceAlpha" operator="in" result="specOut2"/>
      <feComposite in="SourceGraphic" in2="specOut2" operator="arithmetic"
                   k1="0" k2="1" k3="1" k4="0" result="litPaint"/>
      <feMerge>
        <feMergeNode in="dropshadow"/>
        <feMergeNode in="litPaint"/>
      </feMerge>
    </filter>
    <pattern id="grid" width="40" height="40" patternUnits="userSpaceOnUse">
      <path d="M 40 0 L 0 0 0 40" fill="none" stroke="#1f2533" stroke-width="0.5"/>
    </pattern>
    <marker id="arrCyan" viewBox="0 0 12 12" refX="11" refY="6" markerWidth="9" markerHeight="9" orient="auto-start-reverse"><path d="M0,0 L12,6 L0,12 z" fill="#3aedff"/></marker>
    <marker id="arrInherit" viewBox="0 0 14 14" refX="13" refY="7" markerWidth="13" markerHeight="13" orient="auto"><path d="M0,0 L14,7 L0,14 z" fill="#11141c" stroke="#daa520" stroke-width="1.5"/></marker>
    <marker id="arrCompose" viewBox="0 0 16 8" refX="15" refY="4" markerWidth="14" markerHeight="8" orient="auto"><path d="M0,4 L8,0 L16,4 L8,8 z" fill="#daa520"/></marker>
  </defs>
  <style>
    text { fill: #e6eef8; font-family: -apple-system, "Segoe UI", Roboto, sans-serif; }
    .title { font-weight: 700; font-size: 22px; }
    .ttl { font-weight: 700; font-size: 13px; }
    .sub { font-size: 11px; fill: #cbd5e1; }
    .edge { font-size: 11px; fill: #daa520; paint-order: stroke; stroke: #08090d; stroke-width: 3px; stroke-linejoin: round; }
    .conn { fill: none; stroke-width: 1.8; stroke: #daa520; }
  </style>
  <rect x="0" y="0" width="1600" height="1180" fill="#08090d"/>
  <rect x="0" y="0" width="1600" height="1180" fill="url(#grid)"/>

  <text x="40" y="42" class="title" fill="#daa520">UML Class Diagram — bomberman-core</text>
  <text x="40" y="64" class="sub">Domain entities · simulation · DTOs (shared across server and client)</text>

  <!-- ============ ROW 1: Sim + Player + Arena ============ -->

  <!-- GameWorld (column 1) -->
  <rect x="40"  y="100" width="280" height="200" rx="10" fill="#0a2030" stroke="#3aedff" stroke-width="1.6" filter="url(#bx-3d-bevel)"/>
  <rect x="40"  y="100" width="280" height="26"  rx="10" fill="#0c2c44" stroke="#3aedff" stroke-width="1.6"/>
  <rect x="40"  y="116" width="280" height="10"             fill="#0c2c44"/>
  <text x="180" y="118" text-anchor="middle" class="ttl" fill="#3aedff">GameWorld</text>
  <line x1="40" y1="156" x2="320" y2="156" stroke="#3aedff" stroke-width="0.8" opacity="0.5"/>
  <text x="52" y="148" class="sub">- arena: Arena</text>
  <text x="52" y="170" class="sub">- players: List&lt;Bomberman&gt;</text>
  <text x="52" y="188" class="sub">- bombs: List&lt;Bomb&gt;</text>
  <text x="52" y="206" class="sub">- explosions: List&lt;Explosion&gt;</text>
  <text x="52" y="224" class="sub">- mode: GameMode</text>
  <text x="52" y="242" class="sub">- state: GameState</text>
  <line x1="40" y1="252" x2="320" y2="252" stroke="#3aedff" stroke-width="0.8" opacity="0.5"/>
  <text x="52" y="270" class="sub">+ tick(dtMs): void</text>
  <text x="52" y="288" class="sub">+ apply(input): void</text>

  <!-- Bomberman (column 2) -->
  <rect x="380" y="100" width="280" height="200" rx="10" fill="#11141c" stroke="#3affb5" stroke-width="1.6" filter="url(#bx-3d-bevel)"/>
  <rect x="380" y="100" width="280" height="26"  rx="10" fill="#0d2823" stroke="#3affb5" stroke-width="1.6"/>
  <rect x="380" y="116" width="280" height="10"             fill="#0d2823"/>
  <text x="520" y="118" text-anchor="middle" class="ttl" fill="#3affb5">Bomberman</text>
  <line x1="380" y1="156" x2="660" y2="156" stroke="#3affb5" stroke-width="0.8" opacity="0.5"/>
  <text x="392" y="148" class="sub">- id: PlayerId</text>
  <text x="392" y="170" class="sub">- name: String</text>
  <text x="392" y="188" class="sub">- avatar: Avatar</text>
  <text x="392" y="206" class="sub">- speed: int</text>
  <text x="392" y="224" class="sub">- bombsMax: int  · flame: int</text>
  <text x="392" y="242" class="sub">- lives: int  · armor: int</text>
  <line x1="380" y1="252" x2="660" y2="252" stroke="#3affb5" stroke-width="0.8" opacity="0.5"/>
  <text x="392" y="270" class="sub">+ move(dir): void</text>
  <text x="392" y="288" class="sub">+ placeBomb(tile): Bomb</text>

  <!-- Player abstract (column 3) -->
  <rect x="720" y="100" width="260" height="200" rx="10" fill="#11141c" stroke="#3affb5" stroke-width="1.6" filter="url(#bx-3d-bevel)"/>
  <rect x="720" y="100" width="260" height="26"  rx="10" fill="#0d2823" stroke="#3affb5" stroke-width="1.6"/>
  <rect x="720" y="116" width="260" height="10"             fill="#0d2823"/>
  <text x="850" y="118" text-anchor="middle" class="ttl" fill="#3affb5">«abstract» Player</text>
  <line x1="720" y1="156" x2="980" y2="156" stroke="#3affb5" stroke-width="0.8" opacity="0.5"/>
  <text x="732" y="148" class="sub">- id: PlayerId</text>
  <text x="732" y="170" class="sub">- name: String</text>
  <text x="732" y="188" class="sub">- score: Score</text>
  <text x="732" y="206" class="sub">- avatar: Avatar</text>
  <line x1="720" y1="216" x2="980" y2="216" stroke="#3affb5" stroke-width="0.8" opacity="0.5"/>
  <text x="732" y="234" class="sub">+ getId(): PlayerId</text>
  <text x="732" y="252" class="sub">+ getName(): String</text>
  <text x="732" y="270" class="sub">+ getScore(): Score</text>
  <text x="732" y="288" class="sub">+ awardPoints(n): void</text>

  <!-- Arena (column 4) -->
  <rect x="1040" y="100" width="260" height="200" rx="10" fill="#11141c" stroke="#3affb5" stroke-width="1.6" filter="url(#bx-3d-bevel)"/>
  <rect x="1040" y="100" width="260" height="26"  rx="10" fill="#0d2823" stroke="#3affb5" stroke-width="1.6"/>
  <rect x="1040" y="116" width="260" height="10"             fill="#0d2823"/>
  <text x="1170" y="118" text-anchor="middle" class="ttl" fill="#3affb5">Arena</text>
  <line x1="1040" y1="156" x2="1300" y2="156" stroke="#3affb5" stroke-width="0.8" opacity="0.5"/>
  <text x="1052" y="148" class="sub">- width: int</text>
  <text x="1052" y="170" class="sub">- height: int</text>
  <text x="1052" y="188" class="sub">- tiles: Tile[][]</text>
  <text x="1052" y="206" class="sub">- spawns: List&lt;Point&gt;</text>
  <line x1="1040" y1="216" x2="1300" y2="216" stroke="#3affb5" stroke-width="0.8" opacity="0.5"/>
  <text x="1052" y="234" class="sub">+ tileAt(x,y): Tile</text>
  <text x="1052" y="252" class="sub">+ destroy(tile): void</text>
  <text x="1052" y="270" class="sub">+ isWalkable(x,y): bool</text>
  <text x="1052" y="288" class="sub">+ spawnFor(idx): Point</text>

  <!-- Snapshotter (column 5) -->
  <rect x="1320" y="100" width="240" height="200" rx="10" fill="#0a2030" stroke="#3aedff" stroke-width="1.6" filter="url(#bx-3d-bevel)"/>
  <rect x="1320" y="100" width="240" height="26"  rx="10" fill="#0c2c44" stroke="#3aedff" stroke-width="1.6"/>
  <rect x="1320" y="116" width="240" height="10"             fill="#0c2c44"/>
  <text x="1440" y="118" text-anchor="middle" class="ttl" fill="#3aedff">Snapshotter</text>
  <line x1="1320" y1="156" x2="1560" y2="156" stroke="#3aedff" stroke-width="0.8" opacity="0.5"/>
  <text x="1332" y="148" class="sub">- world: GameWorld</text>
  <text x="1332" y="170" class="sub">- codec: WireCodec</text>
  <line x1="1320" y1="180" x2="1560" y2="180" stroke="#3aedff" stroke-width="0.8" opacity="0.5"/>
  <text x="1332" y="198" class="sub">+ capture(): WorldSnapshot</text>
  <text x="1332" y="216" class="sub">+ encode(env): byte[]</text>
  <text x="1332" y="234" class="sub">+ decode(buf): Envelope</text>
  <text x="1332" y="266" class="sub" fill="#94a3b8">Stateless encoder facade</text>

  <!-- ============ ROW 2: Bomb / Explosion / Tile / Score / PowerUp ============ -->

  <!-- Bomb -->
  <rect x="40"  y="370" width="280" height="180" rx="10" fill="#11141c" stroke="#3affb5" stroke-width="1.6" filter="url(#bx-3d-bevel)"/>
  <rect x="40"  y="370" width="280" height="26"  rx="10" fill="#0d2823" stroke="#3affb5" stroke-width="1.6"/>
  <rect x="40"  y="386" width="280" height="10"             fill="#0d2823"/>
  <text x="180" y="388" text-anchor="middle" class="ttl" fill="#3affb5">Bomb</text>
  <line x1="40" y1="426" x2="320" y2="426" stroke="#3affb5" stroke-width="0.8" opacity="0.5"/>
  <text x="52" y="418" class="sub">- id: BombId</text>
  <text x="52" y="440" class="sub">- owner: PlayerId</text>
  <text x="52" y="458" class="sub">- tile: Point</text>
  <text x="52" y="476" class="sub">- fuseMs: int</text>
  <text x="52" y="494" class="sub">- flame: int</text>
  <line x1="40" y1="504" x2="320" y2="504" stroke="#3affb5" stroke-width="0.8" opacity="0.5"/>
  <text x="52" y="522" class="sub">+ tick(dt): void</text>
  <text x="52" y="540" class="sub">+ ignite(): Explosion</text>

  <!-- Explosion -->
  <rect x="380" y="370" width="280" height="180" rx="10" fill="#11141c" stroke="#3affb5" stroke-width="1.6" filter="url(#bx-3d-bevel)"/>
  <rect x="380" y="370" width="280" height="26"  rx="10" fill="#0d2823" stroke="#3affb5" stroke-width="1.6"/>
  <rect x="380" y="386" width="280" height="10"             fill="#0d2823"/>
  <text x="520" y="388" text-anchor="middle" class="ttl" fill="#3affb5">Explosion</text>
  <line x1="380" y1="426" x2="660" y2="426" stroke="#3affb5" stroke-width="0.8" opacity="0.5"/>
  <text x="392" y="418" class="sub">- center: Point</text>
  <text x="392" y="440" class="sub">- flamesUp: int</text>
  <text x="392" y="458" class="sub">- flamesDown: int</text>
  <text x="392" y="476" class="sub">- flamesLeft: int</text>
  <text x="392" y="494" class="sub">- flamesRight: int  · ttlMs: int</text>
  <line x1="380" y1="504" x2="660" y2="504" stroke="#3affb5" stroke-width="0.8" opacity="0.5"/>
  <text x="392" y="522" class="sub">+ tiles(): List&lt;Point&gt;</text>
  <text x="392" y="540" class="sub">+ expired(): boolean</text>

  <!-- Tile -->
  <rect x="720" y="370" width="260" height="180" rx="10" fill="#11141c" stroke="#3affb5" stroke-width="1.6" filter="url(#bx-3d-bevel)"/>
  <rect x="720" y="370" width="260" height="26"  rx="10" fill="#0d2823" stroke="#3affb5" stroke-width="1.6"/>
  <rect x="720" y="386" width="260" height="10"             fill="#0d2823"/>
  <text x="850" y="388" text-anchor="middle" class="ttl" fill="#3affb5">Tile</text>
  <line x1="720" y1="426" x2="980" y2="426" stroke="#3affb5" stroke-width="0.8" opacity="0.5"/>
  <text x="732" y="418" class="sub">- kind: TileKind</text>
  <text x="732" y="440" class="sub">- x: int  · y: int</text>
  <text x="732" y="458" class="sub">- bonus: PowerUpItem?</text>
  <text x="732" y="476" class="sub">- destructible: boolean</text>
  <line x1="720" y1="486" x2="980" y2="486" stroke="#3affb5" stroke-width="0.8" opacity="0.5"/>
  <text x="732" y="504" class="sub">+ walkable(): boolean</text>
  <text x="732" y="522" class="sub">+ destroy(): PowerUpItem?</text>

  <!-- Score -->
  <rect x="1040" y="370" width="260" height="180" rx="10" fill="#11141c" stroke="#3affb5" stroke-width="1.6" filter="url(#bx-3d-bevel)"/>
  <rect x="1040" y="370" width="260" height="26"  rx="10" fill="#0d2823" stroke="#3affb5" stroke-width="1.6"/>
  <rect x="1040" y="386" width="260" height="10"             fill="#0d2823"/>
  <text x="1170" y="388" text-anchor="middle" class="ttl" fill="#3affb5">Score</text>
  <line x1="1040" y1="426" x2="1300" y2="426" stroke="#3affb5" stroke-width="0.8" opacity="0.5"/>
  <text x="1052" y="418" class="sub">- points: int</text>
  <text x="1052" y="440" class="sub">- kills: int</text>
  <text x="1052" y="458" class="sub">- deaths: int</text>
  <text x="1052" y="476" class="sub">- bonusesPicked: int</text>
  <line x1="1040" y1="486" x2="1300" y2="486" stroke="#3affb5" stroke-width="0.8" opacity="0.5"/>
  <text x="1052" y="504" class="sub">+ addKill(): void</text>
  <text x="1052" y="522" class="sub">+ addPoints(n): void</text>

  <!-- PowerUpItem -->
  <rect x="1320" y="370" width="240" height="180" rx="10" fill="#11141c" stroke="#3affb5" stroke-width="1.6" filter="url(#bx-3d-bevel)"/>
  <rect x="1320" y="370" width="240" height="26"  rx="10" fill="#0d2823" stroke="#3affb5" stroke-width="1.6"/>
  <rect x="1320" y="386" width="240" height="10"             fill="#0d2823"/>
  <text x="1440" y="388" text-anchor="middle" class="ttl" fill="#3affb5">PowerUpItem</text>
  <line x1="1320" y1="426" x2="1560" y2="426" stroke="#3affb5" stroke-width="0.8" opacity="0.5"/>
  <text x="1332" y="418" class="sub">- bonus: Bonus</text>
  <text x="1332" y="440" class="sub">- tile: Point</text>
  <text x="1332" y="458" class="sub">- ttlMs: int</text>
  <line x1="1320" y1="468" x2="1560" y2="468" stroke="#3affb5" stroke-width="0.8" opacity="0.5"/>
  <text x="1332" y="486" class="sub">+ collect(p): void</text>
  <text x="1332" y="504" class="sub">+ isExpired(): boolean</text>

  <!-- ============ ROW 3: Bonus + subclasses ============ -->

  <!-- Bonus (abstract) — centered on left -->
  <rect x="40"  y="620" width="280" height="160" rx="10" fill="#2b1d05" stroke="#ffb53a" stroke-width="1.6" filter="url(#bx-3d-bevel)"/>
  <rect x="40"  y="620" width="280" height="26"  rx="10" fill="#3a2810" stroke="#ffb53a" stroke-width="1.6"/>
  <rect x="40"  y="636" width="280" height="10"             fill="#3a2810"/>
  <text x="180" y="638" text-anchor="middle" class="ttl" fill="#ffb53a">«abstract» Bonus</text>
  <line x1="40" y1="676" x2="320" y2="676" stroke="#ffb53a" stroke-width="0.8" opacity="0.5"/>
  <text x="52" y="668" class="sub">- type: BonusType</text>
  <text x="52" y="690" class="sub">- magnitude: int</text>
  <text x="52" y="708" class="sub">- iconKey: String</text>
  <line x1="40" y1="718" x2="320" y2="718" stroke="#ffb53a" stroke-width="0.8" opacity="0.5"/>
  <text x="52" y="736" class="sub">+ applyTo(Bomberman): void</text>
  <text x="52" y="754" class="sub">+ describe(): String</text>
  <text x="52" y="772" class="sub" fill="#daa520">subclassed 7 times →</text>

  <!-- 7 subclasses laid out in 2 rows × 4 cols (with 7th centered) -->
  <!-- Row A: ArmorBonus, ExtraBombBonus, FlameBonus, KickBonus -->
  <!-- x = 380, 700, 1020, 1340 ; w=220 -->
  <rect x="380" y="620" width="220" height="80" rx="10" fill="#2b1d05" stroke="#ffb53a" stroke-width="1.2" filter="url(#bx-3d-bevel)"/>
  <rect x="380" y="620" width="220" height="24" rx="10" fill="#3a2810" stroke="#ffb53a" stroke-width="1.2"/>
  <rect x="380" y="636" width="220" height="8"             fill="#3a2810"/>
  <text x="490" y="637" text-anchor="middle" class="ttl" fill="#ffb53a">ArmorBonus</text>
  <text x="392" y="668" class="sub">+ armor++</text>
  <text x="392" y="686" class="sub">absorbs 1 hit</text>

  <rect x="620" y="620" width="220" height="80" rx="10" fill="#2b1d05" stroke="#ffb53a" stroke-width="1.2" filter="url(#bx-3d-bevel)"/>
  <rect x="620" y="620" width="220" height="24" rx="10" fill="#3a2810" stroke="#ffb53a" stroke-width="1.2"/>
  <rect x="620" y="636" width="220" height="8"             fill="#3a2810"/>
  <text x="730" y="637" text-anchor="middle" class="ttl" fill="#ffb53a">ExtraBombBonus</text>
  <text x="632" y="668" class="sub">+ bombsMax++</text>
  <text x="632" y="686" class="sub">one extra concurrent bomb</text>

  <rect x="860" y="620" width="220" height="80" rx="10" fill="#2b1d05" stroke="#ffb53a" stroke-width="1.2" filter="url(#bx-3d-bevel)"/>
  <rect x="860" y="620" width="220" height="24" rx="10" fill="#3a2810" stroke="#ffb53a" stroke-width="1.2"/>
  <rect x="860" y="636" width="220" height="8"             fill="#3a2810"/>
  <text x="970" y="637" text-anchor="middle" class="ttl" fill="#ffb53a">FlameBonus</text>
  <text x="872" y="668" class="sub">+ flame++</text>
  <text x="872" y="686" class="sub">longer explosion radius</text>

  <rect x="1100" y="620" width="220" height="80" rx="10" fill="#2b1d05" stroke="#ffb53a" stroke-width="1.2" filter="url(#bx-3d-bevel)"/>
  <rect x="1100" y="620" width="220" height="24" rx="10" fill="#3a2810" stroke="#ffb53a" stroke-width="1.2"/>
  <rect x="1100" y="636" width="220" height="8"             fill="#3a2810"/>
  <text x="1210" y="637" text-anchor="middle" class="ttl" fill="#ffb53a">KickBonus</text>
  <text x="1112" y="668" class="sub">+ canKick = true</text>
  <text x="1112" y="686" class="sub">player kicks bombs</text>

  <!-- Row B: LifeBonus, SpeedBonus, ThrowBonus -->
  <rect x="380" y="720" width="220" height="80" rx="10" fill="#2b1d05" stroke="#ffb53a" stroke-width="1.2" filter="url(#bx-3d-bevel)"/>
  <rect x="380" y="720" width="220" height="24" rx="10" fill="#3a2810" stroke="#ffb53a" stroke-width="1.2"/>
  <rect x="380" y="736" width="220" height="8"             fill="#3a2810"/>
  <text x="490" y="737" text-anchor="middle" class="ttl" fill="#ffb53a">LifeBonus</text>
  <text x="392" y="768" class="sub">+ lives++</text>
  <text x="392" y="786" class="sub">extra respawn token</text>

  <rect x="620" y="720" width="220" height="80" rx="10" fill="#2b1d05" stroke="#ffb53a" stroke-width="1.2" filter="url(#bx-3d-bevel)"/>
  <rect x="620" y="720" width="220" height="24" rx="10" fill="#3a2810" stroke="#ffb53a" stroke-width="1.2"/>
  <rect x="620" y="736" width="220" height="8"             fill="#3a2810"/>
  <text x="730" y="737" text-anchor="middle" class="ttl" fill="#ffb53a">SpeedBonus</text>
  <text x="632" y="768" class="sub">+ speed++</text>
  <text x="632" y="786" class="sub">faster movement</text>

  <rect x="860" y="720" width="220" height="80" rx="10" fill="#2b1d05" stroke="#ffb53a" stroke-width="1.2" filter="url(#bx-3d-bevel)"/>
  <rect x="860" y="720" width="220" height="24" rx="10" fill="#3a2810" stroke="#ffb53a" stroke-width="1.2"/>
  <rect x="860" y="736" width="220" height="8"             fill="#3a2810"/>
  <text x="970" y="737" text-anchor="middle" class="ttl" fill="#ffb53a">ThrowBonus</text>
  <text x="872" y="768" class="sub">+ canThrow = true</text>
  <text x="872" y="786" class="sub">player throws bombs</text>

  <!-- Bonus type enum (for reference, anchor box) -->
  <rect x="1100" y="720" width="220" height="80" rx="10" fill="#2b1d05" stroke="#ffb53a" stroke-width="1.2" stroke-dasharray="4 3" filter="url(#bx-3d-bevel)"/>
  <text x="1210" y="744" text-anchor="middle" class="ttl" fill="#ffb53a">«enum» BonusType</text>
  <text x="1112" y="768" class="sub">ARMOR · EXTRA_BOMB · FLAME</text>
  <text x="1112" y="786" class="sub">KICK · LIFE · SPEED · THROW</text>

  <!-- ============ ROW 4: Wire DTOs ============ -->
  <rect x="40"  y="860" width="280" height="170" rx="10" fill="#0a2030" stroke="#3aedff" stroke-width="1.6" filter="url(#bx-3d-bevel)"/>
  <rect x="40"  y="860" width="280" height="26"  rx="10" fill="#0c2c44" stroke="#3aedff" stroke-width="1.6"/>
  <rect x="40"  y="876" width="280" height="10"             fill="#0c2c44"/>
  <text x="180" y="878" text-anchor="middle" class="ttl" fill="#3aedff">Envelope &lt;DTO&gt;</text>
  <line x1="40" y1="916" x2="320" y2="916" stroke="#3aedff" stroke-width="0.8" opacity="0.5"/>
  <text x="52" y="908" class="sub">- type: MessageType</text>
  <text x="52" y="930" class="sub">- payload: bytes</text>
  <text x="52" y="948" class="sub">- ts: long</text>
  <line x1="40" y1="958" x2="320" y2="958" stroke="#3aedff" stroke-width="0.8" opacity="0.5"/>
  <text x="52" y="976" class="sub">+ encode(): byte[]</text>
  <text x="52" y="994" class="sub">+ decode(buf): Envelope</text>
  <text x="52" y="1012" class="sub" fill="#94a3b8">wire frame · 12 B header</text>

  <rect x="380" y="860" width="280" height="170" rx="10" fill="#0a2030" stroke="#3aedff" stroke-width="1.6" filter="url(#bx-3d-bevel)"/>
  <rect x="380" y="860" width="280" height="26"  rx="10" fill="#0c2c44" stroke="#3aedff" stroke-width="1.6"/>
  <rect x="380" y="876" width="280" height="10"             fill="#0c2c44"/>
  <text x="520" y="878" text-anchor="middle" class="ttl" fill="#3aedff">WorldSnapshot &lt;DTO&gt;</text>
  <line x1="380" y1="916" x2="660" y2="916" stroke="#3aedff" stroke-width="0.8" opacity="0.5"/>
  <text x="392" y="908" class="sub">- tick: int</text>
  <text x="392" y="930" class="sub">- players: List&lt;PlayerSnapshot&gt;</text>
  <text x="392" y="948" class="sub">- bombs: List&lt;BombSnapshot&gt;</text>
  <text x="392" y="966" class="sub">- explosions: List&lt;ExplosionSnapshot&gt;</text>
  <text x="392" y="984" class="sub">- arenaHash: int</text>
  <text x="392" y="1002" class="sub" fill="#94a3b8">broadcast 20× per second</text>

  <rect x="720" y="860" width="260" height="170" rx="10" fill="#0a2030" stroke="#3aedff" stroke-width="1.6" filter="url(#bx-3d-bevel)"/>
  <rect x="720" y="860" width="260" height="26"  rx="10" fill="#0c2c44" stroke="#3aedff" stroke-width="1.6"/>
  <rect x="720" y="876" width="260" height="10"             fill="#0c2c44"/>
  <text x="850" y="878" text-anchor="middle" class="ttl" fill="#3aedff">MatchStart / MatchEnd &lt;DTO&gt;</text>
  <line x1="720" y1="916" x2="980" y2="916" stroke="#3aedff" stroke-width="0.8" opacity="0.5"/>
  <text x="732" y="908" class="sub">- matchId: UUID</text>
  <text x="732" y="930" class="sub">- mode: GameMode</text>
  <text x="732" y="948" class="sub">- players: List&lt;PlayerSnapshot&gt;</text>
  <text x="732" y="966" class="sub">- arenaSeed: long</text>
  <text x="732" y="984" class="sub">- winner: PlayerId? (end only)</text>
  <text x="732" y="1002" class="sub" fill="#94a3b8">two complementary DTOs</text>

  <rect x="1040" y="860" width="260" height="170" rx="10" fill="#0a2030" stroke="#3aedff" stroke-width="1.6" filter="url(#bx-3d-bevel)"/>
  <rect x="1040" y="860" width="260" height="26"  rx="10" fill="#0c2c44" stroke="#3aedff" stroke-width="1.6"/>
  <rect x="1040" y="876" width="260" height="10"             fill="#0c2c44"/>
  <text x="1170" y="878" text-anchor="middle" class="ttl" fill="#3aedff">WireCodec</text>
  <line x1="1040" y1="916" x2="1300" y2="916" stroke="#3aedff" stroke-width="0.8" opacity="0.5"/>
  <text x="1052" y="908" class="sub">- registry: Map&lt;Type,Codec&gt;</text>
  <line x1="1040" y1="924" x2="1300" y2="924" stroke="#3aedff" stroke-width="0.8" opacity="0.5"/>
  <text x="1052" y="942" class="sub">+ encode(Envelope): byte[]</text>
  <text x="1052" y="960" class="sub">+ decode(byte[]): Envelope</text>
  <text x="1052" y="978" class="sub">+ register(type, codec)</text>
  <text x="1052" y="996" class="sub" fill="#94a3b8">Strategy pattern · pluggable</text>

  <rect x="1320" y="860" width="240" height="170" rx="10" fill="#0a2030" stroke="#3aedff" stroke-width="1.6" filter="url(#bx-3d-bevel)"/>
  <rect x="1320" y="860" width="240" height="26"  rx="10" fill="#0c2c44" stroke="#3aedff" stroke-width="1.6"/>
  <rect x="1320" y="876" width="240" height="10"             fill="#0c2c44"/>
  <text x="1440" y="878" text-anchor="middle" class="ttl" fill="#3aedff">«enum» GameState / GameMode</text>
  <text x="1332" y="908" class="sub">GameState: LOBBY,</text>
  <text x="1332" y="926" class="sub">  COUNTDOWN, RUNNING,</text>
  <text x="1332" y="944" class="sub">  PAUSED, ENDED</text>
  <line x1="1320" y1="956" x2="1560" y2="956" stroke="#3aedff" stroke-width="0.8" opacity="0.5"/>
  <text x="1332" y="974" class="sub">GameMode: DEATHMATCH,</text>
  <text x="1332" y="992" class="sub">  TEAM, CAPTURE, FREE_FOR_ALL</text>

  <!-- ============ CONNECTIONS ============ -->

  <!-- Inheritance: Bomberman -> Player (open triangle) -->
  <!-- Bomberman top edge (520,100) up to row above? Player is on the right of Bomberman (column 3 vs 2) in same row.
       Bomberman center x=520, top y=100. Player center x=850, top y=100. Both at same row y range.
       Route: Bomberman right edge (660, 200) -> H to 720 with arrow. Same row, simple H. -->
  <path class="conn" d="M 660,200 H 720" marker-end="url(#arrInherit)"/>
  <text x="690" y="194" text-anchor="middle" class="edge">extends</text>

  <!-- GameWorld composes Arena: GameWorld right (320, 200) -> H to Arena.
       But Bomberman occupies x=380..660 at the same lane y=200. Route around. -->
  <!-- GameWorld (320, 130) up & over -->
  <path class="conn" d="M 320,130 H 360 V 80 H 1170 V 100" marker-start="url(#arrCompose)"/>
  <text x="700" y="74" text-anchor="middle" class="edge">1 contains 1 (Arena)</text>

  <!-- GameWorld composes Bomberman list: GameWorld (320, 170) -> Bomberman (380, 170) -->
  <path class="conn" d="M 320,170 H 380" marker-start="url(#arrCompose)"/>
  <text x="350" y="164" text-anchor="middle" class="edge">1..*</text>

  <!-- GameWorld -> Bomb (down) GameWorld bottom (180, 300) -> Bomb top (180, 370) -->
  <path class="conn" d="M 180,300 V 370" marker-start="url(#arrCompose)"/>
  <text x="220" y="338" class="edge">0..*  bombs</text>

  <!-- GameWorld -> Explosion: GameWorld (260,300) -> Explosion (520, 370). L-shape -->
  <path class="conn" d="M 260,300 V 340 H 520 V 370" marker-start="url(#arrCompose)"/>
  <text x="400" y="334" text-anchor="middle" class="edge">0..*  explosions</text>

  <!-- Arena -> Tile: Arena (1170, 300) -> Tile (850, 370). L-shape -->
  <path class="conn" d="M 1170,300 V 340 H 850 V 370" marker-start="url(#arrCompose)"/>
  <text x="1010" y="334" text-anchor="middle" class="edge">grid  *  Tile</text>

  <!-- Player -> Score: Player (850, 300) -> Score (1170, 370). L-shape -->
  <path class="conn" d="M 850,300 V 350 H 1170 V 370" marker-start="url(#arrCompose)"/>
  <text x="1010" y="344" text-anchor="middle" class="edge">1  Score</text>

  <!-- Tile -> PowerUpItem (right edge of Tile 980,460 to PowerUpItem left 1320,460 same row) -->
  <path class="conn" d="M 980,460 H 1320" marker-end="url(#arrCyan)" stroke="#3aedff"/>
  <text x="1150" y="454" text-anchor="middle" class="edge" fill="#3aedff">may hide  PowerUpItem</text>

  <!-- PowerUpItem -> Bonus (composition): PowerUpItem (1320, 460) down to Bonus (180, 620). Trunk routing -->
  <path class="conn" d="M 1440,550 V 590 H 180 V 620" marker-start="url(#arrCompose)"/>
  <text x="800" y="584" text-anchor="middle" class="edge">1  Bonus</text>

  <!-- Inheritance trunk: Bonus -> 7 subclasses via shared horizontal trunk at y=600 -->
  <!-- Each subclass top -> trunk -->
  <!-- Trunk -->
  <path class="conn" d="M 320,700 H 350 V 600 H 1210 V 620" marker-start="url(#arrInherit)"/>
  <text x="800" y="594" text-anchor="middle" class="edge">extends Bonus  (open triangle on Bonus)</text>
  <!-- Drops from trunk y=600 to subclass tops y=620 -->
  <path class="conn" d="M 490,600 V 620"/>
  <path class="conn" d="M 730,600 V 620"/>
  <path class="conn" d="M 970,600 V 620"/>
  <!-- KickBonus at x=1210, already on trunk endpoint -->
  <!-- Row B subclasses connect up via a second trunk at y=710 going up to y=600 -->
  <path class="conn" d="M 490,720 V 710 H 970 V 710"/>
  <path class="conn" d="M 490,710 V 600"/>
  <path class="conn" d="M 730,720 V 710"/>
  <path class="conn" d="M 970,720 V 710"/>

  <!-- Wire DTO row: Envelope contains payload typed by MessageType (use enum) - dashed cyan -->
  <path class="conn" d="M 320,945 H 380" stroke="#3aedff" marker-end="url(#arrCyan)" stroke-dasharray="4 3"/>
  <text x="350" y="939" text-anchor="middle" class="edge" fill="#3aedff">payload</text>

  <!-- WireCodec -> Envelope (depends on) -->
  <path class="conn" d="M 1040,890 H 320" stroke="#3aedff" marker-end="url(#arrCyan)" stroke-dasharray="4 3"/>
  <text x="680" y="884" text-anchor="middle" class="edge" fill="#3aedff">codec  ↔  Envelope</text>

  <!-- Snapshotter -> WorldSnapshot (produces) — Snapshotter is at top-right (1440, 300); WorldSnapshot is at (520, 860) -->
  <path class="conn" d="M 1440,300 V 820 H 520 V 860" stroke="#3aedff" marker-end="url(#arrCyan)" stroke-dasharray="4 3"/>
  <text x="980" y="814" text-anchor="middle" class="edge" fill="#3aedff">capture → WorldSnapshot</text>

  <!-- Legend -->
  <rect x="40" y="1080" width="1520" height="70" rx="6" fill="#11141c" stroke="#1f2533" stroke-width="1"/>
  <text x="60" y="1102" class="ttl" fill="#daa520">Legend</text>
  <line x1="60" y1="1118" x2="120" y2="1118" stroke="#daa520" stroke-width="1.8" marker-start="url(#arrCompose)"/>
  <text x="130" y="1122" class="sub">composition (filled diamond on owner)</text>
  <line x1="380" y1="1118" x2="440" y2="1118" stroke="#daa520" stroke-width="1.8" marker-end="url(#arrInherit)"/>
  <text x="450" y="1122" class="sub">inheritance (open triangle on parent)</text>
  <line x1="720" y1="1118" x2="780" y2="1118" stroke="#3aedff" stroke-width="1.8" stroke-dasharray="4 3" marker-end="url(#arrCyan)"/>
  <text x="790" y="1122" class="sub">dependency / DTO flow</text>
  <text x="60" y="1140" class="sub">Entity colour: green = domain · cyan = sim/DTO · amber = bonus tree.</text>
</svg>
