<?xml version="1.0" encoding="UTF-8"?>
<svg xmlns="http://www.w3.org/2000/svg" viewBox="0 0 1500 1000" preserveAspectRatio="xMidYMid meet" role="img" aria-labelledby="title desc">
  <style>
    text { font-family: -apple-system, "Segoe UI", Roboto, sans-serif; fill: #1a1d24; }
    .title { font-weight: 700; font-size: 22px; fill: #1a1d24; }
    .ttl { font-weight: 700; font-size: 14px; fill: #1a1d24; }
    .sub { font-size: 12px; fill: #5a626e; }
    .edge { font-size: 12px; fill: #3a3f47; }
    .grp { font-weight: 700; font-size: 13px; letter-spacing: 1.2px; fill: #6a6f78; }
    .conn { fill: none; stroke: #5a626e; stroke-width: 1.6; }
  </style>
  <title id="title">UML Class Diagram — bomberman-core</title>
  <desc id="desc">Shared core entities: Bomberman, Player, Bomb, Explosion, Arena, Tile, Score, PowerUpItem, abstract Bonus + 7 subclasses, GameWorld, Snapshotter.</desc>
  <defs>
    <marker id="arr" viewBox="0 0 12 12" refX="11" refY="6" markerWidth="9" markerHeight="9" orient="auto-start-reverse"><path d="M0,0 L12,6 L0,12 z" fill="#5a626e"/></marker>
    <marker id="arrInherit" viewBox="0 0 14 14" refX="13" refY="7" markerWidth="13" markerHeight="13" orient="auto"><path d="M0,0 L14,7 L0,14 z" fill="#ffffff" stroke="#5a626e" stroke-width="1.5"/></marker>
    <marker id="arrCompose" viewBox="0 0 16 8" refX="15" refY="4" markerWidth="14" markerHeight="8" orient="auto"><path d="M0,4 L8,0 L16,4 L8,8 z" fill="#5a626e"/></marker>
    <filter id="sh" x="-5%" y="-5%" width="110%" height="115%"><feDropShadow stdDeviation="1" dx="0" dy="1" flood-color="#000" flood-opacity="0.08"/></filter>
  </defs>

  <rect x="0" y="0" width="1500" height="1000" fill="#ffffff"/>
  <rect x="24" y="24" width="1452" height="952" rx="10" fill="#fdfdfb" stroke="#d6dae0" stroke-width="1.5"/>

  <text x="60" y="68" class="title">UML Class Diagram — bomberman-core</text>
  <text x="60" y="92" class="sub">Domain entities · simulation · DTOs (shared across server and client)</text>

  <!-- ============ ROW 1 (y=120, h=180): GameWorld / Bomberman / Arena / Snapshotter ============ -->
  <!-- Columns: 60, 360, 660, 960, 1260 (each 240 wide, 60 px gutter) -->

  <!-- GameWorld (cyan) -->
  <rect x="60" y="120" width="240" height="180" rx="8" fill="#e3f1fa" stroke="#1565c0" stroke-width="1.4" filter="url(#sh)"/>
  <rect x="60" y="120" width="240" height="26" rx="8" fill="#cfe5f7" stroke="#1565c0" stroke-width="1.4"/>
  <rect x="60" y="138" width="240" height="8"             fill="#cfe5f7"/>
  <text x="180" y="140" text-anchor="middle" class="ttl">GameWorld</text>
  <line x1="60" y1="170" x2="300" y2="170" stroke="#d6dae0" stroke-width="1"/>
  <text x="72" y="184" class="sub">- arena: Arena</text>
  <text x="72" y="200" class="sub">- players: List&lt;Bomberman&gt;</text>
  <text x="72" y="216" class="sub">- bombs: List&lt;Bomb&gt;</text>
  <text x="72" y="232" class="sub">- explosions: List&lt;Explosion&gt;</text>
  <text x="72" y="248" class="sub">- state: GameState</text>
  <line x1="60" y1="258" x2="300" y2="258" stroke="#d6dae0" stroke-width="1"/>
  <text x="72" y="272" class="sub">+ tick(dtMs): void</text>
  <text x="72" y="288" class="sub">+ apply(input): void</text>

  <!-- Bomberman (teal) -->
  <rect x="360" y="120" width="240" height="180" rx="8" fill="#e6f7f4" stroke="#0b8a78" stroke-width="1.4" filter="url(#sh)"/>
  <rect x="360" y="120" width="240" height="26" rx="8" fill="#cdebe4" stroke="#0b8a78" stroke-width="1.4"/>
  <rect x="360" y="138" width="240" height="8"             fill="#cdebe4"/>
  <text x="480" y="140" text-anchor="middle" class="ttl">Bomberman</text>
  <line x1="360" y1="170" x2="600" y2="170" stroke="#d6dae0" stroke-width="1"/>
  <text x="372" y="184" class="sub">- id: PlayerId</text>
  <text x="372" y="200" class="sub">- name: String</text>
  <text x="372" y="216" class="sub">- speed: int</text>
  <text x="372" y="232" class="sub">- bombsMax: int · flame: int</text>
  <text x="372" y="248" class="sub">- lives: int · armor: int</text>
  <line x1="360" y1="258" x2="600" y2="258" stroke="#d6dae0" stroke-width="1"/>
  <text x="372" y="272" class="sub">+ move(dir): void</text>
  <text x="372" y="288" class="sub">+ placeBomb(tile): Bomb</text>

  <!-- Player abstract (teal) -->
  <rect x="660" y="120" width="240" height="180" rx="8" fill="#e6f7f4" stroke="#0b8a78" stroke-width="1.4" filter="url(#sh)"/>
  <rect x="660" y="120" width="240" height="26" rx="8" fill="#cdebe4" stroke="#0b8a78" stroke-width="1.4"/>
  <rect x="660" y="138" width="240" height="8"             fill="#cdebe4"/>
  <text x="780" y="140" text-anchor="middle" class="ttl">«abstract» Player</text>
  <line x1="660" y1="170" x2="900" y2="170" stroke="#d6dae0" stroke-width="1"/>
  <text x="672" y="184" class="sub">- id: PlayerId</text>
  <text x="672" y="200" class="sub">- name: String</text>
  <text x="672" y="216" class="sub">- score: Score</text>
  <text x="672" y="232" class="sub">- avatar: Avatar</text>
  <line x1="660" y1="242" x2="900" y2="242" stroke="#d6dae0" stroke-width="1"/>
  <text x="672" y="256" class="sub">+ getScore(): Score</text>
  <text x="672" y="272" class="sub">+ awardPoints(n): void</text>

  <!-- Arena (teal) -->
  <rect x="960" y="120" width="240" height="180" rx="8" fill="#e6f7f4" stroke="#0b8a78" stroke-width="1.4" filter="url(#sh)"/>
  <rect x="960" y="120" width="240" height="26" rx="8" fill="#cdebe4" stroke="#0b8a78" stroke-width="1.4"/>
  <rect x="960" y="138" width="240" height="8"             fill="#cdebe4"/>
  <text x="1080" y="140" text-anchor="middle" class="ttl">Arena</text>
  <line x1="960" y1="170" x2="1200" y2="170" stroke="#d6dae0" stroke-width="1"/>
  <text x="972" y="184" class="sub">- width: int · height: int</text>
  <text x="972" y="200" class="sub">- tiles: Tile[][]</text>
  <text x="972" y="216" class="sub">- spawns: List&lt;Point&gt;</text>
  <line x1="960" y1="226" x2="1200" y2="226" stroke="#d6dae0" stroke-width="1"/>
  <text x="972" y="240" class="sub">+ tileAt(x,y): Tile</text>
  <text x="972" y="256" class="sub">+ destroy(tile): void</text>
  <text x="972" y="272" class="sub">+ isWalkable(x,y): bool</text>
  <text x="972" y="288" class="sub">+ spawnFor(idx): Point</text>

  <!-- Snapshotter (cyan) -->
  <rect x="1260" y="120" width="180" height="180" rx="8" fill="#e3f1fa" stroke="#1565c0" stroke-width="1.4" filter="url(#sh)"/>
  <rect x="1260" y="120" width="180" height="26" rx="8" fill="#cfe5f7" stroke="#1565c0" stroke-width="1.4"/>
  <rect x="1260" y="138" width="180" height="8"             fill="#cfe5f7"/>
  <text x="1350" y="140" text-anchor="middle" class="ttl">Snapshotter</text>
  <line x1="1260" y1="170" x2="1440" y2="170" stroke="#d6dae0" stroke-width="1"/>
  <text x="1272" y="184" class="sub">- world: GameWorld</text>
  <text x="1272" y="200" class="sub">- codec: WireCodec</text>
  <line x1="1260" y1="210" x2="1440" y2="210" stroke="#d6dae0" stroke-width="1"/>
  <text x="1272" y="224" class="sub">+ capture()</text>
  <text x="1272" y="240" class="sub">+ encode(env): byte[]</text>
  <text x="1272" y="256" class="sub">+ decode(buf): Envelope</text>
  <text x="1272" y="280" class="sub">Stateless facade</text>

  <!-- ============ ROW 2 (y=360, h=160): Bomb / Explosion / Tile / Score / PowerUpItem ============ -->

  <rect x="60" y="360" width="240" height="160" rx="8" fill="#e6f7f4" stroke="#0b8a78" stroke-width="1.4" filter="url(#sh)"/>
  <rect x="60" y="360" width="240" height="26" rx="8" fill="#cdebe4" stroke="#0b8a78" stroke-width="1.4"/>
  <rect x="60" y="378" width="240" height="8"             fill="#cdebe4"/>
  <text x="180" y="380" text-anchor="middle" class="ttl">Bomb</text>
  <line x1="60" y1="410" x2="300" y2="410" stroke="#d6dae0" stroke-width="1"/>
  <text x="72" y="424" class="sub">- id: BombId</text>
  <text x="72" y="440" class="sub">- owner: PlayerId</text>
  <text x="72" y="456" class="sub">- tile: Point</text>
  <text x="72" y="472" class="sub">- fuseMs: int · flame: int</text>
  <line x1="60" y1="482" x2="300" y2="482" stroke="#d6dae0" stroke-width="1"/>
  <text x="72" y="496" class="sub">+ tick(dt): void</text>
  <text x="72" y="512" class="sub">+ ignite(): Explosion</text>

  <rect x="360" y="360" width="240" height="160" rx="8" fill="#e6f7f4" stroke="#0b8a78" stroke-width="1.4" filter="url(#sh)"/>
  <rect x="360" y="360" width="240" height="26" rx="8" fill="#cdebe4" stroke="#0b8a78" stroke-width="1.4"/>
  <rect x="360" y="378" width="240" height="8"             fill="#cdebe4"/>
  <text x="480" y="380" text-anchor="middle" class="ttl">Explosion</text>
  <line x1="360" y1="410" x2="600" y2="410" stroke="#d6dae0" stroke-width="1"/>
  <text x="372" y="424" class="sub">- center: Point</text>
  <text x="372" y="440" class="sub">- flamesUp/Down: int</text>
  <text x="372" y="456" class="sub">- flamesLeft/Right: int</text>
  <text x="372" y="472" class="sub">- ttlMs: int</text>
  <line x1="360" y1="482" x2="600" y2="482" stroke="#d6dae0" stroke-width="1"/>
  <text x="372" y="496" class="sub">+ tiles(): List&lt;Point&gt;</text>
  <text x="372" y="512" class="sub">+ expired(): boolean</text>

  <rect x="660" y="360" width="240" height="160" rx="8" fill="#e6f7f4" stroke="#0b8a78" stroke-width="1.4" filter="url(#sh)"/>
  <rect x="660" y="360" width="240" height="26" rx="8" fill="#cdebe4" stroke="#0b8a78" stroke-width="1.4"/>
  <rect x="660" y="378" width="240" height="8"             fill="#cdebe4"/>
  <text x="780" y="380" text-anchor="middle" class="ttl">Tile</text>
  <line x1="660" y1="410" x2="900" y2="410" stroke="#d6dae0" stroke-width="1"/>
  <text x="672" y="424" class="sub">- kind: TileKind</text>
  <text x="672" y="440" class="sub">- x: int · y: int</text>
  <text x="672" y="456" class="sub">- bonus: PowerUpItem?</text>
  <text x="672" y="472" class="sub">- destructible: boolean</text>
  <line x1="660" y1="482" x2="900" y2="482" stroke="#d6dae0" stroke-width="1"/>
  <text x="672" y="496" class="sub">+ walkable(): boolean</text>
  <text x="672" y="512" class="sub">+ destroy(): PowerUpItem?</text>

  <rect x="960" y="360" width="240" height="160" rx="8" fill="#e6f7f4" stroke="#0b8a78" stroke-width="1.4" filter="url(#sh)"/>
  <rect x="960" y="360" width="240" height="26" rx="8" fill="#cdebe4" stroke="#0b8a78" stroke-width="1.4"/>
  <rect x="960" y="378" width="240" height="8"             fill="#cdebe4"/>
  <text x="1080" y="380" text-anchor="middle" class="ttl">Score</text>
  <line x1="960" y1="410" x2="1200" y2="410" stroke="#d6dae0" stroke-width="1"/>
  <text x="972" y="424" class="sub">- points: int</text>
  <text x="972" y="440" class="sub">- kills: int · deaths: int</text>
  <text x="972" y="456" class="sub">- bonusesPicked: int</text>
  <line x1="960" y1="466" x2="1200" y2="466" stroke="#d6dae0" stroke-width="1"/>
  <text x="972" y="480" class="sub">+ addKill(): void</text>
  <text x="972" y="496" class="sub">+ addPoints(n): void</text>

  <rect x="1260" y="360" width="180" height="160" rx="8" fill="#e6f7f4" stroke="#0b8a78" stroke-width="1.4" filter="url(#sh)"/>
  <rect x="1260" y="360" width="180" height="26" rx="8" fill="#cdebe4" stroke="#0b8a78" stroke-width="1.4"/>
  <rect x="1260" y="378" width="180" height="8"             fill="#cdebe4"/>
  <text x="1350" y="380" text-anchor="middle" class="ttl">PowerUpItem</text>
  <line x1="1260" y1="410" x2="1440" y2="410" stroke="#d6dae0" stroke-width="1"/>
  <text x="1272" y="424" class="sub">- bonus: Bonus</text>
  <text x="1272" y="440" class="sub">- tile: Point</text>
  <text x="1272" y="456" class="sub">- ttlMs: int</text>
  <line x1="1260" y1="466" x2="1440" y2="466" stroke="#d6dae0" stroke-width="1"/>
  <text x="1272" y="480" class="sub">+ collect(p): void</text>
  <text x="1272" y="496" class="sub">+ isExpired(): boolean</text>

  <!-- ============ ROW 3 (y=580, h=140): Bonus tree ============ -->
  <!-- Bonus abstract (amber) on left -->
  <rect x="60" y="580" width="240" height="140" rx="8" fill="#fff5dc" stroke="#b8860b" stroke-width="1.4" filter="url(#sh)"/>
  <rect x="60" y="580" width="240" height="26" rx="8" fill="#f4e4be" stroke="#b8860b" stroke-width="1.4"/>
  <rect x="60" y="598" width="240" height="8"             fill="#f4e4be"/>
  <text x="180" y="600" text-anchor="middle" class="ttl">«abstract» Bonus</text>
  <line x1="60" y1="630" x2="300" y2="630" stroke="#d6dae0" stroke-width="1"/>
  <text x="72" y="644" class="sub">- type: BonusType</text>
  <text x="72" y="660" class="sub">- magnitude: int</text>
  <text x="72" y="676" class="sub">- iconKey: String</text>
  <line x1="60" y1="686" x2="300" y2="686" stroke="#d6dae0" stroke-width="1"/>
  <text x="72" y="700" class="sub">+ applyTo(Bomberman)</text>
  <text x="72" y="716" class="sub">+ describe(): String</text>

  <!-- 7 subclasses in 2 rows (4+3) — narrower cards -->
  <!-- Row A (y=580 h=60): ArmorBonus, ExtraBombBonus, FlameBonus, KickBonus -->
  <!-- 4 cols starting x=360, w=240, gutter 20 -->
  <g>
    <rect x="360" y="580" width="240" height="60" rx="8" fill="#fff5dc" stroke="#b8860b" stroke-width="1.2" filter="url(#sh)"/>
    <rect x="360" y="580" width="240" height="22" rx="8" fill="#f4e4be"/>
    <rect x="360" y="594" width="240" height="8" fill="#f4e4be"/>
    <text x="480" y="598" text-anchor="middle" class="ttl">ArmorBonus</text>
    <text x="372" y="622" class="sub">+ armor++ · absorbs 1 hit</text>
  </g>
  <g>
    <rect x="620" y="580" width="240" height="60" rx="8" fill="#fff5dc" stroke="#b8860b" stroke-width="1.2" filter="url(#sh)"/>
    <rect x="620" y="580" width="240" height="22" rx="8" fill="#f4e4be"/>
    <rect x="620" y="594" width="240" height="8" fill="#f4e4be"/>
    <text x="740" y="598" text-anchor="middle" class="ttl">ExtraBombBonus</text>
    <text x="632" y="622" class="sub">+ bombsMax++</text>
  </g>
  <g>
    <rect x="880" y="580" width="240" height="60" rx="8" fill="#fff5dc" stroke="#b8860b" stroke-width="1.2" filter="url(#sh)"/>
    <rect x="880" y="580" width="240" height="22" rx="8" fill="#f4e4be"/>
    <rect x="880" y="594" width="240" height="8" fill="#f4e4be"/>
    <text x="1000" y="598" text-anchor="middle" class="ttl">FlameBonus</text>
    <text x="892" y="622" class="sub">+ flame++ · longer radius</text>
  </g>
  <g>
    <rect x="1140" y="580" width="280" height="60" rx="8" fill="#fff5dc" stroke="#b8860b" stroke-width="1.2" filter="url(#sh)"/>
    <rect x="1140" y="580" width="280" height="22" rx="8" fill="#f4e4be"/>
    <rect x="1140" y="594" width="280" height="8" fill="#f4e4be"/>
    <text x="1280" y="598" text-anchor="middle" class="ttl">KickBonus</text>
    <text x="1152" y="622" class="sub">+ canKick = true · kicks bombs</text>
  </g>

  <!-- Row B (y=660 h=60): LifeBonus, SpeedBonus, ThrowBonus, BonusType enum -->
  <g>
    <rect x="360" y="660" width="240" height="60" rx="8" fill="#fff5dc" stroke="#b8860b" stroke-width="1.2" filter="url(#sh)"/>
    <rect x="360" y="660" width="240" height="22" rx="8" fill="#f4e4be"/>
    <rect x="360" y="674" width="240" height="8" fill="#f4e4be"/>
    <text x="480" y="678" text-anchor="middle" class="ttl">LifeBonus</text>
    <text x="372" y="702" class="sub">+ lives++ · extra respawn</text>
  </g>
  <g>
    <rect x="620" y="660" width="240" height="60" rx="8" fill="#fff5dc" stroke="#b8860b" stroke-width="1.2" filter="url(#sh)"/>
    <rect x="620" y="660" width="240" height="22" rx="8" fill="#f4e4be"/>
    <rect x="620" y="674" width="240" height="8" fill="#f4e4be"/>
    <text x="740" y="678" text-anchor="middle" class="ttl">SpeedBonus</text>
    <text x="632" y="702" class="sub">+ speed++ · faster movement</text>
  </g>
  <g>
    <rect x="880" y="660" width="240" height="60" rx="8" fill="#fff5dc" stroke="#b8860b" stroke-width="1.2" filter="url(#sh)"/>
    <rect x="880" y="660" width="240" height="22" rx="8" fill="#f4e4be"/>
    <rect x="880" y="674" width="240" height="8" fill="#f4e4be"/>
    <text x="1000" y="678" text-anchor="middle" class="ttl">ThrowBonus</text>
    <text x="892" y="702" class="sub">+ canThrow = true</text>
  </g>
  <g>
    <rect x="1140" y="660" width="280" height="60" rx="8" fill="#fff5dc" stroke="#b8860b" stroke-width="1.2" stroke-dasharray="4 3" filter="url(#sh)"/>
    <rect x="1140" y="660" width="280" height="22" rx="8" fill="#f4e4be"/>
    <rect x="1140" y="674" width="280" height="8" fill="#f4e4be"/>
    <text x="1280" y="678" text-anchor="middle" class="ttl">«enum» BonusType</text>
    <text x="1152" y="702" class="sub">ARMOR · BOMB · FLAME · KICK · LIFE · SPEED · THROW</text>
  </g>

  <!-- ============ ROW 4 (y=760, h=160): Wire DTOs ============ -->

  <rect x="60" y="760" width="240" height="160" rx="8" fill="#e3f1fa" stroke="#1565c0" stroke-width="1.4" filter="url(#sh)"/>
  <rect x="60" y="760" width="240" height="26" rx="8" fill="#cfe5f7" stroke="#1565c0" stroke-width="1.4"/>
  <rect x="60" y="778" width="240" height="8"             fill="#cfe5f7"/>
  <text x="180" y="780" text-anchor="middle" class="ttl">Envelope &lt;DTO&gt;</text>
  <line x1="60" y1="810" x2="300" y2="810" stroke="#d6dae0" stroke-width="1"/>
  <text x="72" y="824" class="sub">- type: MessageType</text>
  <text x="72" y="840" class="sub">- payload: bytes</text>
  <text x="72" y="856" class="sub">- ts: long</text>
  <line x1="60" y1="866" x2="300" y2="866" stroke="#d6dae0" stroke-width="1"/>
  <text x="72" y="880" class="sub">+ encode(): byte[]</text>
  <text x="72" y="896" class="sub">+ decode(buf): Envelope</text>
  <text x="72" y="912" class="sub">wire frame · 12B header</text>

  <rect x="360" y="760" width="240" height="160" rx="8" fill="#e3f1fa" stroke="#1565c0" stroke-width="1.4" filter="url(#sh)"/>
  <rect x="360" y="760" width="240" height="26" rx="8" fill="#cfe5f7" stroke="#1565c0" stroke-width="1.4"/>
  <rect x="360" y="778" width="240" height="8"             fill="#cfe5f7"/>
  <text x="480" y="780" text-anchor="middle" class="ttl">WorldSnapshot &lt;DTO&gt;</text>
  <line x1="360" y1="810" x2="600" y2="810" stroke="#d6dae0" stroke-width="1"/>
  <text x="372" y="824" class="sub">- tick: int</text>
  <text x="372" y="840" class="sub">- players: List</text>
  <text x="372" y="856" class="sub">- bombs: List</text>
  <text x="372" y="872" class="sub">- explosions: List</text>
  <text x="372" y="888" class="sub">- arenaHash: int</text>
  <text x="372" y="912" class="sub">broadcast 20× per second</text>

  <rect x="660" y="760" width="240" height="160" rx="8" fill="#e3f1fa" stroke="#1565c0" stroke-width="1.4" filter="url(#sh)"/>
  <rect x="660" y="760" width="240" height="26" rx="8" fill="#cfe5f7" stroke="#1565c0" stroke-width="1.4"/>
  <rect x="660" y="778" width="240" height="8"             fill="#cfe5f7"/>
  <text x="780" y="780" text-anchor="middle" class="ttl">MatchStart / End &lt;DTO&gt;</text>
  <line x1="660" y1="810" x2="900" y2="810" stroke="#d6dae0" stroke-width="1"/>
  <text x="672" y="824" class="sub">- matchId: UUID</text>
  <text x="672" y="840" class="sub">- mode: GameMode</text>
  <text x="672" y="856" class="sub">- players: List</text>
  <text x="672" y="872" class="sub">- arenaSeed: long</text>
  <text x="672" y="888" class="sub">- winner: PlayerId?</text>
  <text x="672" y="912" class="sub">two complementary DTOs</text>

  <rect x="960" y="760" width="240" height="160" rx="8" fill="#e3f1fa" stroke="#1565c0" stroke-width="1.4" filter="url(#sh)"/>
  <rect x="960" y="760" width="240" height="26" rx="8" fill="#cfe5f7" stroke="#1565c0" stroke-width="1.4"/>
  <rect x="960" y="778" width="240" height="8"             fill="#cfe5f7"/>
  <text x="1080" y="780" text-anchor="middle" class="ttl">WireCodec</text>
  <line x1="960" y1="810" x2="1200" y2="810" stroke="#d6dae0" stroke-width="1"/>
  <text x="972" y="824" class="sub">- registry: Map</text>
  <line x1="960" y1="834" x2="1200" y2="834" stroke="#d6dae0" stroke-width="1"/>
  <text x="972" y="848" class="sub">+ encode(Envelope): byte[]</text>
  <text x="972" y="864" class="sub">+ decode(byte[]): Envelope</text>
  <text x="972" y="880" class="sub">+ register(type, codec)</text>
  <text x="972" y="904" class="sub">Strategy · pluggable</text>

  <rect x="1260" y="760" width="180" height="160" rx="8" fill="#e3f1fa" stroke="#1565c0" stroke-width="1.4" filter="url(#sh)"/>
  <rect x="1260" y="760" width="180" height="26" rx="8" fill="#cfe5f7" stroke="#1565c0" stroke-width="1.4"/>
  <rect x="1260" y="778" width="180" height="8"             fill="#cfe5f7"/>
  <text x="1350" y="780" text-anchor="middle" class="ttl">«enum» State/Mode</text>
  <text x="1272" y="804" class="sub">State: LOBBY,</text>
  <text x="1272" y="820" class="sub">  COUNTDOWN, RUNNING,</text>
  <text x="1272" y="836" class="sub">  PAUSED, ENDED</text>
  <line x1="1260" y1="846" x2="1440" y2="846" stroke="#d6dae0" stroke-width="1"/>
  <text x="1272" y="860" class="sub">Mode: DEATHMATCH,</text>
  <text x="1272" y="876" class="sub">  TEAM, CAPTURE,</text>
  <text x="1272" y="892" class="sub">  FREE_FOR_ALL</text>

  <!-- ============ CONNECTIONS — orthogonal, trunk routed ============ -->

  <!-- Inheritance: Bomberman → Player (same row) -->
  <path class="conn" d="M 600,200 H 660" marker-end="url(#arrInherit)"/>
  <rect x="608" y="182" width="48" height="16" fill="#fdfdfb" opacity="0.95"/>
  <text x="632" y="194" text-anchor="middle" class="edge">extends</text>

  <!-- GameWorld composes Arena (above row via top trunk at y=104) -->
  <path class="conn" d="M 180,120 V 104 H 1080 V 120" marker-start="url(#arrCompose)"/>
  <rect x="572" y="86" width="216" height="16" fill="#fdfdfb" opacity="0.95"/>
  <text x="680" y="98" text-anchor="middle" class="edge">1 contains Arena</text>

  <!-- GameWorld composes Bomberman (same row, right edge → next box) -->
  <path class="conn" d="M 300,200 H 360" marker-start="url(#arrCompose)"/>
  <rect x="318" y="182" width="24" height="16" fill="#fdfdfb" opacity="0.95"/>
  <text x="330" y="194" text-anchor="middle" class="edge">1..*</text>

  <!-- GameWorld → Bomb (down, same column x=180) -->
  <path class="conn" d="M 180,300 V 360" marker-start="url(#arrCompose)"/>
  <rect x="186" y="322" width="80" height="16" fill="#fdfdfb" opacity="0.95"/>
  <text x="226" y="334" text-anchor="middle" class="edge">0..* bombs</text>

  <!-- GameWorld → Explosion (route 260 → 340 → 480 → 360) -->
  <path class="conn" d="M 260,300 V 340 H 480 V 360" marker-start="url(#arrCompose)"/>
  <rect x="332" y="322" width="116" height="16" fill="#fdfdfb" opacity="0.95"/>
  <text x="390" y="334" text-anchor="middle" class="edge">0..* explosions</text>

  <!-- Arena → Tile (route 1080,300 → 340 → 780 → 360) -->
  <path class="conn" d="M 1080,300 V 340 H 780 V 360" marker-start="url(#arrCompose)"/>
  <rect x="892" y="322" width="100" height="16" fill="#fdfdfb" opacity="0.95"/>
  <text x="942" y="334" text-anchor="middle" class="edge">grid Tile</text>

  <!-- Player → Score (route 780,300 → 340 → 1080 → 360) -->
  <path class="conn" d="M 780,300 V 350 H 1080 V 360" marker-start="url(#arrCompose)"/>
  <rect x="920" y="332" width="80" height="16" fill="#fdfdfb" opacity="0.95"/>
  <text x="960" y="344" text-anchor="middle" class="edge">1 Score</text>

  <!-- Tile → PowerUpItem (same row, right) -->
  <path class="conn" d="M 900,440 H 1260" marker-end="url(#arr)"/>
  <rect x="1040" y="422" width="160" height="16" fill="#fdfdfb" opacity="0.95"/>
  <text x="1120" y="434" text-anchor="middle" class="edge">may hide PowerUpItem</text>

  <!-- PowerUpItem composes Bonus — route down from 1350,520 → 550 → 180 → 580 -->
  <path class="conn" d="M 1350,520 V 550 H 180 V 580" marker-start="url(#arrCompose)"/>
  <rect x="700" y="532" width="76" height="16" fill="#fdfdfb" opacity="0.95"/>
  <text x="738" y="544" text-anchor="middle" class="edge">1 Bonus</text>

  <!-- Inheritance trunk for 6 subclasses + enum (only 6 actual subclasses connect with inherit triangle) -->
  <!-- Trunk: Bonus right edge (300,650) → 320 → up to y=560 → across to right → drop into each subclass top -->
  <!-- Single trunk at y=560 from 480 (ArmorBonus center) across to 1000 (FlameBonus center) -->
  <path class="conn" d="M 300,640 H 320 V 560 H 1000" marker-start="url(#arrInherit)"/>
  <rect x="600" y="542" width="160" height="16" fill="#fdfdfb" opacity="0.95"/>
  <text x="680" y="554" text-anchor="middle" class="edge">extends Bonus</text>
  <!-- drops to each top-row subclass -->
  <path class="conn" d="M 480,560 V 580"/>
  <path class="conn" d="M 740,560 V 580"/>
  <path class="conn" d="M 1000,560 V 580"/>
  <path class="conn" d="M 1280,560 V 580" /><!-- KickBonus -->
  <path class="conn" d="M 1000,560 H 1280"/>
  <!-- bottom-row trunk at y=740 connects back -->
  <path class="conn" d="M 480,660 V 740 H 740 V 740"/>
  <path class="conn" d="M 480,740 V 660"/>
  <path class="conn" d="M 740,740 V 660"/>
  <path class="conn" d="M 1000,740 V 660"/>

  <!-- Wire DTO row: WireCodec ↔ Envelope (dashed dependency) -->
  <path class="conn" d="M 960,840 H 300" marker-end="url(#arr)" stroke-dasharray="4 3"/>
  <rect x="580" y="822" width="120" height="16" fill="#fdfdfb" opacity="0.95"/>
  <text x="640" y="834" text-anchor="middle" class="edge">codec ↔ Envelope</text>

  <!-- Snapshotter → WorldSnapshot (dashed) — trunk from 1350,300 → down to 740 → over to 480 → up -->
  <path class="conn" d="M 1350,300 V 740 H 480 V 760" marker-end="url(#arr)" stroke-dasharray="4 3"/>
  <rect x="848" y="722" width="180" height="16" fill="#fdfdfb" opacity="0.95"/>
  <text x="938" y="734" text-anchor="middle" class="edge">capture → WorldSnapshot</text>

  <!-- Legend -->
  <rect x="60" y="940" width="1380" height="30" rx="6" fill="#ffffff" stroke="#d6dae0" stroke-width="1"/>
  <text x="76" y="960" class="sub">Composition = filled diamond on owner · Inheritance = hollow triangle on parent · Dashed = dependency. Pastels: teal=domain · cyan=DTO/sim · amber=bonus tree.</text>
</svg>
