<?xml version="1.0" encoding="UTF-8"?>
<svg xmlns="http://www.w3.org/2000/svg" viewBox="0 0 1500 1000" preserveAspectRatio="xMidYMid meet" role="img" aria-labelledby="title desc">
  <style>
    text { font-family: -apple-system, "Segoe UI", Roboto, sans-serif; fill: #1a1d24; }
    .title { font-weight: 700; font-size: 22px; fill: #1a1d24; }
    .ttl { font-weight: 700; font-size: 14px; fill: #1a1d24; }
    .sub { font-size: 12px; fill: #5a626e; }
    .edge { font-size: 12px; fill: #3a3f47; }
    .grp { font-weight: 700; font-size: 13px; letter-spacing: 1.2px; fill: #6a6f78; }
    .conn { fill: none; stroke: #5a626e; stroke-width: 1.6; }
  </style>
  <title id="title">UML Class Diagram — JavaFX client</title>
  <desc id="desc">Client classes: ClientLauncher, SceneRouter, MainMenuView, LobbyView, ArenaView, RankingsView, ArenaRenderer, HudOverlay, GameClient, MandalaArt, MandalaTheme.</desc>
  <defs>
    <marker id="arr" viewBox="0 0 12 12" refX="11" refY="6" markerWidth="9" markerHeight="9" orient="auto-start-reverse"><path d="M0,0 L12,6 L0,12 z" fill="#5a626e"/></marker>
    <marker id="arrInherit" viewBox="0 0 14 14" refX="13" refY="7" markerWidth="13" markerHeight="13" orient="auto"><path d="M0,0 L14,7 L0,14 z" fill="#ffffff" stroke="#5a626e" stroke-width="1.5"/></marker>
    <marker id="arrCompose" viewBox="0 0 16 8" refX="15" refY="4" markerWidth="14" markerHeight="8" orient="auto"><path d="M0,4 L8,0 L16,4 L8,8 z" fill="#5a626e"/></marker>
    <filter id="sh" x="-5%" y="-5%" width="110%" height="115%"><feDropShadow stdDeviation="1" dx="0" dy="1" flood-color="#000" flood-opacity="0.08"/></filter>
  </defs>

  <rect x="0" y="0" width="1500" height="1000" fill="#ffffff"/>
  <rect x="24" y="24" width="1452" height="952" rx="10" fill="#fdfdfb" stroke="#d6dae0" stroke-width="1.5"/>

  <text x="60" y="68" class="title">UML Class Diagram — JavaFX Client (bomberman-client)</text>
  <text x="60" y="92" class="sub">Scene routing · views · render pipeline · WebSocket transport · theme</text>

  <!-- 5 columns @ x=60,360,660,960,1260 (w=240 except last 180), gutter 60 -->

  <!-- ============ ROW 1 (y=120, h=160): ClientLauncher / SceneRouter / GameClient / MandalaTheme ============ -->

  <rect x="60" y="120" width="240" height="160" rx="8" fill="#e6f7f4" stroke="#0b8a78" stroke-width="1.4" filter="url(#sh)"/>
  <rect x="60" y="120" width="240" height="26" rx="8" fill="#cdebe4" stroke="#0b8a78" stroke-width="1.4"/>
  <rect x="60" y="138" width="240" height="8"             fill="#cdebe4"/>
  <text x="180" y="140" text-anchor="middle" class="ttl">ClientLauncher  «main»</text>
  <line x1="60" y1="170" x2="300" y2="170" stroke="#d6dae0" stroke-width="1"/>
  <text x="72" y="184" class="sub">- args: String[]</text>
  <text x="72" y="200" class="sub">- stage: Stage</text>
  <text x="72" y="216" class="sub">- router: SceneRouter</text>
  <text x="72" y="232" class="sub">- client: GameClient</text>
  <text x="72" y="248" class="sub">- theme: MandalaTheme</text>
  <line x1="60" y1="258" x2="300" y2="258" stroke="#d6dae0" stroke-width="1"/>
  <text x="72" y="272" class="sub">+ start(stage) · main(args)</text>

  <rect x="360" y="120" width="240" height="160" rx="8" fill="#e6f7f4" stroke="#0b8a78" stroke-width="1.4" filter="url(#sh)"/>
  <rect x="360" y="120" width="240" height="26" rx="8" fill="#cdebe4" stroke="#0b8a78" stroke-width="1.4"/>
  <rect x="360" y="138" width="240" height="8"             fill="#cdebe4"/>
  <text x="480" y="140" text-anchor="middle" class="ttl">SceneRouter</text>
  <line x1="360" y1="170" x2="600" y2="170" stroke="#d6dae0" stroke-width="1"/>
  <text x="372" y="184" class="sub">- stage: Stage</text>
  <text x="372" y="200" class="sub">- scenes: Map&lt;Route, Scene&gt;</text>
  <text x="372" y="216" class="sub">- current: Route</text>
  <text x="372" y="232" class="sub">- history: Deque&lt;Route&gt;</text>
  <line x1="360" y1="242" x2="600" y2="242" stroke="#d6dae0" stroke-width="1"/>
  <text x="372" y="256" class="sub">+ go(route) · back()</text>
  <text x="372" y="272" class="sub">+ replace(route, scene)</text>

  <rect x="660" y="120" width="300" height="160" rx="8" fill="#e6f7f4" stroke="#0b8a78" stroke-width="1.4" filter="url(#sh)"/>
  <rect x="660" y="120" width="300" height="26" rx="8" fill="#cdebe4" stroke="#0b8a78" stroke-width="1.4"/>
  <rect x="660" y="138" width="300" height="8"             fill="#cdebe4"/>
  <text x="810" y="140" text-anchor="middle" class="ttl">GameClient</text>
  <line x1="660" y1="170" x2="960" y2="170" stroke="#d6dae0" stroke-width="1"/>
  <text x="672" y="184" class="sub">- ws: WebSocket</text>
  <text x="672" y="200" class="sub">- codec: WireCodec</text>
  <text x="672" y="216" class="sub">- listeners: List&lt;Listener&gt;</text>
  <text x="672" y="232" class="sub">- lastTick: int</text>
  <line x1="660" y1="242" x2="960" y2="242" stroke="#d6dae0" stroke-width="1"/>
  <text x="672" y="256" class="sub">+ connect(url, token) · send(env)</text>
  <text x="672" y="272" class="sub">+ on(type, fn)</text>

  <rect x="1020" y="120" width="240" height="160" rx="8" fill="#fff9e6" stroke="#9c7c20" stroke-width="1.4" filter="url(#sh)"/>
  <rect x="1020" y="120" width="240" height="26" rx="8" fill="#f4ebcb" stroke="#9c7c20" stroke-width="1.4"/>
  <rect x="1020" y="138" width="240" height="8"             fill="#f4ebcb"/>
  <text x="1140" y="140" text-anchor="middle" class="ttl">MandalaTheme</text>
  <line x1="1020" y1="170" x2="1260" y2="170" stroke="#d6dae0" stroke-width="1"/>
  <text x="1032" y="184" class="sub">- saffron: Color</text>
  <text x="1032" y="200" class="sub">- gold: Color</text>
  <text x="1032" y="216" class="sub">- teal: Color · ink: Color</text>
  <line x1="1020" y1="226" x2="1260" y2="226" stroke="#d6dae0" stroke-width="1"/>
  <text x="1032" y="240" class="sub">+ applyTo(scene)</text>
  <text x="1032" y="256" class="sub">+ palette(): Palette</text>
  <text x="1032" y="272" class="sub">festival accent system</text>

  <!-- MandalaArt (column 5 narrow) -->
  <rect x="1280" y="120" width="180" height="160" rx="8" fill="#fff9e6" stroke="#9c7c20" stroke-width="1.4" filter="url(#sh)"/>
  <rect x="1280" y="120" width="180" height="26" rx="8" fill="#f4ebcb" stroke="#9c7c20" stroke-width="1.4"/>
  <rect x="1280" y="138" width="180" height="8"             fill="#f4ebcb"/>
  <text x="1370" y="140" text-anchor="middle" class="ttl">MandalaArt</text>
  <line x1="1280" y1="170" x2="1460" y2="170" stroke="#d6dae0" stroke-width="1"/>
  <text x="1292" y="184" class="sub">- rings: int</text>
  <text x="1292" y="200" class="sub">- palette: Palette</text>
  <line x1="1280" y1="210" x2="1460" y2="210" stroke="#d6dae0" stroke-width="1"/>
  <text x="1292" y="224" class="sub">+ draw(gc, x, y, r)</text>
  <text x="1292" y="240" class="sub">+ animate(t)</text>
  <text x="1292" y="264" class="sub">decorative SVG accents</text>

  <!-- ============ ROW 2 (y=340, h=180): 4 Views + View interface ============ -->

  <rect x="60" y="340" width="240" height="180" rx="8" fill="#e6f7f4" stroke="#0b8a78" stroke-width="1.4" filter="url(#sh)"/>
  <rect x="60" y="340" width="240" height="26" rx="8" fill="#cdebe4" stroke="#0b8a78" stroke-width="1.4"/>
  <rect x="60" y="358" width="240" height="8"             fill="#cdebe4"/>
  <text x="180" y="360" text-anchor="middle" class="ttl">MainMenuView</text>
  <line x1="60" y1="390" x2="300" y2="390" stroke="#d6dae0" stroke-width="1"/>
  <text x="72" y="404" class="sub">- root: BorderPane</text>
  <text x="72" y="420" class="sub">- titleBanner: Node</text>
  <text x="72" y="436" class="sub">- playButton: Button</text>
  <text x="72" y="452" class="sub">- rankingsButton: Button</text>
  <text x="72" y="468" class="sub">- settingsButton: Button</text>
  <line x1="60" y1="478" x2="300" y2="478" stroke="#d6dae0" stroke-width="1"/>
  <text x="72" y="492" class="sub">+ render(): Scene</text>
  <text x="72" y="508" class="sub">+ onPlay() · onRankings()</text>

  <rect x="360" y="340" width="240" height="180" rx="8" fill="#e6f7f4" stroke="#0b8a78" stroke-width="1.4" filter="url(#sh)"/>
  <rect x="360" y="340" width="240" height="26" rx="8" fill="#cdebe4" stroke="#0b8a78" stroke-width="1.4"/>
  <rect x="360" y="358" width="240" height="8"             fill="#cdebe4"/>
  <text x="480" y="360" text-anchor="middle" class="ttl">LobbyView</text>
  <line x1="360" y1="390" x2="600" y2="390" stroke="#d6dae0" stroke-width="1"/>
  <text x="372" y="404" class="sub">- root: BorderPane</text>
  <text x="372" y="420" class="sub">- playerList: ListView</text>
  <text x="372" y="436" class="sub">- chatPanel: ChatPanel</text>
  <text x="372" y="452" class="sub">- readyToggle: ToggleButton</text>
  <text x="372" y="468" class="sub">- client: GameClient</text>
  <line x1="360" y1="478" x2="600" y2="478" stroke="#d6dae0" stroke-width="1"/>
  <text x="372" y="492" class="sub">+ onSnapshot(snap)</text>
  <text x="372" y="508" class="sub">+ onReady() · render()</text>

  <rect x="660" y="340" width="240" height="180" rx="8" fill="#e6f7f4" stroke="#0b8a78" stroke-width="1.4" filter="url(#sh)"/>
  <rect x="660" y="340" width="240" height="26" rx="8" fill="#cdebe4" stroke="#0b8a78" stroke-width="1.4"/>
  <rect x="660" y="358" width="240" height="8"             fill="#cdebe4"/>
  <text x="780" y="360" text-anchor="middle" class="ttl">ArenaView</text>
  <line x1="660" y1="390" x2="900" y2="390" stroke="#d6dae0" stroke-width="1"/>
  <text x="672" y="404" class="sub">- canvas: Canvas</text>
  <text x="672" y="420" class="sub">- renderer: ArenaRenderer</text>
  <text x="672" y="436" class="sub">- hud: HudOverlay</text>
  <text x="672" y="452" class="sub">- input: InputController</text>
  <text x="672" y="468" class="sub">- client: GameClient</text>
  <line x1="660" y1="478" x2="900" y2="478" stroke="#d6dae0" stroke-width="1"/>
  <text x="672" y="492" class="sub">+ onSnapshot(snap)</text>
  <text x="672" y="508" class="sub">+ onKey(code) · render()</text>

  <rect x="960" y="340" width="240" height="180" rx="8" fill="#e6f7f4" stroke="#0b8a78" stroke-width="1.4" filter="url(#sh)"/>
  <rect x="960" y="340" width="240" height="26" rx="8" fill="#cdebe4" stroke="#0b8a78" stroke-width="1.4"/>
  <rect x="960" y="358" width="240" height="8"             fill="#cdebe4"/>
  <text x="1080" y="360" text-anchor="middle" class="ttl">RankingsView</text>
  <line x1="960" y1="390" x2="1200" y2="390" stroke="#d6dae0" stroke-width="1"/>
  <text x="972" y="404" class="sub">- root: BorderPane</text>
  <text x="972" y="420" class="sub">- table: TableView</text>
  <text x="972" y="436" class="sub">- filter: ComboBox</text>
  <text x="972" y="452" class="sub">- pageSize: int = 50</text>
  <line x1="960" y1="462" x2="1200" y2="462" stroke="#d6dae0" stroke-width="1"/>
  <text x="972" y="476" class="sub">+ refresh() · render()</text>
  <text x="972" y="492" class="sub">+ onFilter(mode)</text>

  <rect x="1260" y="340" width="200" height="180" rx="8" fill="#fff9e6" stroke="#9c7c20" stroke-width="1.4" stroke-dasharray="5 3" filter="url(#sh)"/>
  <rect x="1260" y="340" width="200" height="26" rx="8" fill="#f4ebcb" stroke="#9c7c20" stroke-width="1.4"/>
  <rect x="1260" y="358" width="200" height="8"             fill="#f4ebcb"/>
  <text x="1360" y="360" text-anchor="middle" class="ttl">«interface» View</text>
  <line x1="1260" y1="390" x2="1460" y2="390" stroke="#d6dae0" stroke-width="1"/>
  <text x="1272" y="404" class="sub">+ render(): Scene</text>
  <text x="1272" y="420" class="sub">+ onShow(): void</text>
  <text x="1272" y="436" class="sub">+ onHide(): void</text>
  <line x1="1260" y1="446" x2="1460" y2="446" stroke="#d6dae0" stroke-width="1"/>
  <text x="1272" y="460" class="sub">All views implement</text>
  <text x="1272" y="476" class="sub">this Scene-producing</text>
  <text x="1272" y="492" class="sub">contract.</text>

  <!-- ============ ROW 3 (y=580, h=180): Render pipeline ============ -->

  <rect x="60" y="580" width="240" height="180" rx="8" fill="#e6f7f4" stroke="#0b8a78" stroke-width="1.4" filter="url(#sh)"/>
  <rect x="60" y="580" width="240" height="26" rx="8" fill="#cdebe4" stroke="#0b8a78" stroke-width="1.4"/>
  <rect x="60" y="598" width="240" height="8"             fill="#cdebe4"/>
  <text x="180" y="600" text-anchor="middle" class="ttl">ArenaRenderer</text>
  <line x1="60" y1="630" x2="300" y2="630" stroke="#d6dae0" stroke-width="1"/>
  <text x="72" y="644" class="sub">- gc: GraphicsContext</text>
  <text x="72" y="660" class="sub">- atlas: SpriteAtlas</text>
  <text x="72" y="676" class="sub">- theme: MandalaTheme</text>
  <text x="72" y="692" class="sub">- camera: Camera</text>
  <text x="72" y="708" class="sub">- ticksDrawn: int</text>
  <line x1="60" y1="718" x2="300" y2="718" stroke="#d6dae0" stroke-width="1"/>
  <text x="72" y="732" class="sub">+ drawWorld(snap)</text>
  <text x="72" y="748" class="sub">+ drawArena · drawPlayers</text>

  <rect x="360" y="580" width="240" height="180" rx="8" fill="#e6f7f4" stroke="#0b8a78" stroke-width="1.4" filter="url(#sh)"/>
  <rect x="360" y="580" width="240" height="26" rx="8" fill="#cdebe4" stroke="#0b8a78" stroke-width="1.4"/>
  <rect x="360" y="598" width="240" height="8"             fill="#cdebe4"/>
  <text x="480" y="600" text-anchor="middle" class="ttl">HudOverlay</text>
  <line x1="360" y1="630" x2="600" y2="630" stroke="#d6dae0" stroke-width="1"/>
  <text x="372" y="644" class="sub">- pane: Pane</text>
  <text x="372" y="660" class="sub">- killFeed: KillFeedWidget</text>
  <text x="372" y="676" class="sub">- scoreBar: ScoreBar</text>
  <text x="372" y="692" class="sub">- timer: Label</text>
  <text x="372" y="708" class="sub">- powerUpStrip: HBox</text>
  <line x1="360" y1="718" x2="600" y2="718" stroke="#d6dae0" stroke-width="1"/>
  <text x="372" y="732" class="sub">+ refresh(snap)</text>
  <text x="372" y="748" class="sub">+ pushKill · setTime</text>

  <rect x="660" y="580" width="240" height="180" rx="8" fill="#e6f7f4" stroke="#0b8a78" stroke-width="1.4" filter="url(#sh)"/>
  <rect x="660" y="580" width="240" height="26" rx="8" fill="#cdebe4" stroke="#0b8a78" stroke-width="1.4"/>
  <rect x="660" y="598" width="240" height="8"             fill="#cdebe4"/>
  <text x="780" y="600" text-anchor="middle" class="ttl">InputController</text>
  <line x1="660" y1="630" x2="900" y2="630" stroke="#d6dae0" stroke-width="1"/>
  <text x="672" y="644" class="sub">- scene: Scene</text>
  <text x="672" y="660" class="sub">- keymap: Map</text>
  <text x="672" y="676" class="sub">- gamepad: GamepadPoller?</text>
  <text x="672" y="692" class="sub">- buffer: RingBuffer&lt;Input&gt;</text>
  <line x1="660" y1="702" x2="900" y2="702" stroke="#d6dae0" stroke-width="1"/>
  <text x="672" y="716" class="sub">+ install(scene) · pump()</text>
  <text x="672" y="732" class="sub">+ rebind(action, code)</text>
  <text x="672" y="748" class="sub">+ uninstall()</text>

  <rect x="960" y="580" width="240" height="180" rx="8" fill="#e6f7f4" stroke="#0b8a78" stroke-width="1.4" filter="url(#sh)"/>
  <rect x="960" y="580" width="240" height="26" rx="8" fill="#cdebe4" stroke="#0b8a78" stroke-width="1.4"/>
  <rect x="960" y="598" width="240" height="8"             fill="#cdebe4"/>
  <text x="1080" y="600" text-anchor="middle" class="ttl">ChatPanel</text>
  <line x1="960" y1="630" x2="1200" y2="630" stroke="#d6dae0" stroke-width="1"/>
  <text x="972" y="644" class="sub">- log: ListView&lt;ChatLine&gt;</text>
  <text x="972" y="660" class="sub">- field: TextField</text>
  <text x="972" y="676" class="sub">- sendBtn: Button</text>
  <text x="972" y="692" class="sub">- client: GameClient</text>
  <line x1="960" y1="702" x2="1200" y2="702" stroke="#d6dae0" stroke-width="1"/>
  <text x="972" y="716" class="sub">+ post(line)</text>
  <text x="972" y="732" class="sub">+ onSend(text)</text>
  <text x="972" y="748" class="sub">+ scrollToBottom()</text>

  <rect x="1260" y="580" width="200" height="180" rx="8" fill="#e3f1fa" stroke="#1565c0" stroke-width="1.4" filter="url(#sh)"/>
  <rect x="1260" y="580" width="200" height="26" rx="8" fill="#cfe5f7" stroke="#1565c0" stroke-width="1.4"/>
  <rect x="1260" y="598" width="200" height="8"             fill="#cfe5f7"/>
  <text x="1360" y="600" text-anchor="middle" class="ttl">WireCodec</text>
  <line x1="1260" y1="630" x2="1460" y2="630" stroke="#d6dae0" stroke-width="1"/>
  <text x="1272" y="644" class="sub">- registry: Map</text>
  <line x1="1260" y1="654" x2="1460" y2="654" stroke="#d6dae0" stroke-width="1"/>
  <text x="1272" y="668" class="sub">+ encode(env)</text>
  <text x="1272" y="684" class="sub">+ decode(buf)</text>
  <text x="1272" y="708" class="sub">shared with</text>
  <text x="1272" y="724" class="sub">bomberman-core</text>

  <!-- ============ ROW 4 (y=820, h=120): Support classes ============ -->

  <rect x="60" y="820" width="240" height="120" rx="8" fill="#e6f7f4" stroke="#0b8a78" stroke-width="1.4" filter="url(#sh)"/>
  <rect x="60" y="820" width="240" height="24" rx="8" fill="#cdebe4"/>
  <rect x="60" y="836" width="240" height="8" fill="#cdebe4"/>
  <text x="180" y="838" text-anchor="middle" class="ttl">GamepadPoller</text>
  <line x1="60" y1="868" x2="300" y2="868" stroke="#d6dae0" stroke-width="1"/>
  <text x="72" y="862" class="sub">- pads: List&lt;Gamepad&gt;</text>
  <text x="72" y="882" class="sub">- pollHz: int = 60</text>
  <text x="72" y="902" class="sub">+ poll() · rumble · shutdown</text>

  <rect x="360" y="820" width="240" height="120" rx="8" fill="#e6f7f4" stroke="#0b8a78" stroke-width="1.4" filter="url(#sh)"/>
  <rect x="360" y="820" width="240" height="24" rx="8" fill="#cdebe4"/>
  <rect x="360" y="836" width="240" height="8" fill="#cdebe4"/>
  <text x="480" y="838" text-anchor="middle" class="ttl">SpatialAudio</text>
  <line x1="360" y1="868" x2="600" y2="868" stroke="#d6dae0" stroke-width="1"/>
  <text x="372" y="862" class="sub">- mixer: AudioMixer</text>
  <text x="372" y="882" class="sub">- listener: Point</text>
  <text x="372" y="902" class="sub">+ play(clip, pos) · stopAll</text>

  <rect x="660" y="820" width="240" height="120" rx="8" fill="#e6f7f4" stroke="#0b8a78" stroke-width="1.4" filter="url(#sh)"/>
  <rect x="660" y="820" width="240" height="24" rx="8" fill="#cdebe4"/>
  <rect x="660" y="836" width="240" height="8" fill="#cdebe4"/>
  <text x="780" y="838" text-anchor="middle" class="ttl">SpriteAtlas</text>
  <line x1="660" y1="868" x2="900" y2="868" stroke="#d6dae0" stroke-width="1"/>
  <text x="672" y="862" class="sub">- image: Image</text>
  <text x="672" y="882" class="sub">- frames: Map</text>
  <text x="672" y="902" class="sub">+ get(name) · animate(name, t)</text>

  <rect x="960" y="820" width="240" height="120" rx="8" fill="#e6f7f4" stroke="#0b8a78" stroke-width="1.4" filter="url(#sh)"/>
  <rect x="960" y="820" width="240" height="24" rx="8" fill="#cdebe4"/>
  <rect x="960" y="836" width="240" height="8" fill="#cdebe4"/>
  <text x="1080" y="838" text-anchor="middle" class="ttl">KillFeedWidget</text>
  <line x1="960" y1="868" x2="1200" y2="868" stroke="#d6dae0" stroke-width="1"/>
  <text x="972" y="862" class="sub">- entries: Deque</text>
  <text x="972" y="882" class="sub">- maxLines: int = 6</text>
  <text x="972" y="902" class="sub">+ push(entry) · fade · render</text>

  <rect x="1260" y="820" width="200" height="120" rx="8" fill="#e6f7f4" stroke="#0b8a78" stroke-width="1.4" filter="url(#sh)"/>
  <rect x="1260" y="820" width="200" height="24" rx="8" fill="#cdebe4"/>
  <rect x="1260" y="836" width="200" height="8" fill="#cdebe4"/>
  <text x="1360" y="838" text-anchor="middle" class="ttl">Camera</text>
  <line x1="1260" y1="868" x2="1460" y2="868" stroke="#d6dae0" stroke-width="1"/>
  <text x="1272" y="862" class="sub">- pos: Point · zoom: dbl</text>
  <text x="1272" y="882" class="sub">- bounds: Rect</text>
  <text x="1272" y="902" class="sub">+ follow(p) · shake(amp)</text>

  <!-- ============ CONNECTIONS ============ -->

  <!-- ClientLauncher composes SceneRouter (right, same row) -->
  <path class="conn" d="M 300,210 H 360" marker-start="url(#arrCompose)"/>
  <rect x="304" y="192" width="52" height="16" fill="#fdfdfb" opacity="0.95"/>
  <text x="330" y="204" text-anchor="middle" class="edge">1 router</text>

  <!-- ClientLauncher composes GameClient (top trunk at y=104) -->
  <path class="conn" d="M 180,120 V 104 H 810 V 120" marker-start="url(#arrCompose)"/>
  <rect x="420" y="86" width="180" height="16" fill="#fdfdfb" opacity="0.95"/>
  <text x="510" y="98" text-anchor="middle" class="edge">1 GameClient</text>

  <!-- ClientLauncher composes MandalaTheme (top trunk at y=110 via the right side) -->
  <path class="conn" d="M 960,200 H 1020" marker-start="url(#arrCompose)" stroke-dasharray="4 3"/>
  <rect x="966" y="182" width="52" height="16" fill="#fdfdfb" opacity="0.95"/>
  <text x="992" y="194" text-anchor="middle" class="edge">1 theme</text>

  <!-- SceneRouter → 4 views (trunk drop at y=310) -->
  <!-- vertical from SceneRouter (480,280) down to 310, then horizontal from 180 → 1080, then drops down to each view -->
  <path class="conn" d="M 480,280 V 310 H 180 V 340" marker-end="url(#arr)"/>
  <rect x="318" y="292" width="180" height="16" fill="#fdfdfb" opacity="0.95"/>
  <text x="408" y="304" text-anchor="middle" class="edge">routes → views</text>
  <path class="conn" d="M 180,310 H 1080"/>
  <path class="conn" d="M 480,310 V 340" marker-end="url(#arr)"/>
  <path class="conn" d="M 780,310 V 340" marker-end="url(#arr)"/>
  <path class="conn" d="M 1080,310 V 340" marker-end="url(#arr)"/>

  <!-- Views implement View interface (inheritance trunk at y=530) -->
  <!-- Trunk: 180 → 1080 → up to 530, target View (1360,520) -->
  <path class="conn" d="M 180,520 V 530 H 1360 V 520" marker-end="url(#arrInherit)"/>
  <rect x="640" y="512" width="200" height="16" fill="#fdfdfb" opacity="0.95"/>
  <text x="740" y="524" text-anchor="middle" class="edge">implements View</text>
  <path class="conn" d="M 480,520 V 530"/>
  <path class="conn" d="M 780,520 V 530"/>
  <path class="conn" d="M 1080,520 V 530"/>

  <!-- ArenaView composes ArenaRenderer (down-left via 780,520 → 550 → 180 → 580) -->
  <path class="conn" d="M 780,520 V 550 H 180 V 580" marker-start="url(#arrCompose)"/>
  <rect x="384" y="532" width="160" height="16" fill="#fdfdfb" opacity="0.95"/>
  <text x="464" y="544" text-anchor="middle" class="edge">1 ArenaRenderer</text>

  <!-- ArenaView composes HudOverlay (down-left via 780,520 → 560 → 480 → 580) -->
  <path class="conn" d="M 780,520 V 560 H 480 V 580" marker-start="url(#arrCompose)"/>
  <rect x="540" y="542" width="116" height="16" fill="#fdfdfb" opacity="0.95"/>
  <text x="598" y="554" text-anchor="middle" class="edge">1 HudOverlay</text>

  <!-- ArenaView composes InputController (straight down) -->
  <path class="conn" d="M 780,520 V 580" marker-start="url(#arrCompose)"/>
  <rect x="786" y="542" width="20" height="16" fill="#fdfdfb" opacity="0.95"/>
  <text x="796" y="554" text-anchor="middle" class="edge">1</text>

  <!-- LobbyView composes ChatPanel (right + down) -->
  <path class="conn" d="M 480,520 V 570 H 1080 V 580" marker-start="url(#arrCompose)"/>
  <rect x="710" y="552" width="140" height="16" fill="#fdfdfb" opacity="0.95"/>
  <text x="780" y="564" text-anchor="middle" class="edge">1 ChatPanel</text>

  <!-- GameClient uses WireCodec (down-right corner trunk at y=790) -->
  <path class="conn" d="M 810,280 V 790 H 1360 V 580" marker-end="url(#arr)" stroke-dasharray="4 3"/>
  <rect x="1056" y="772" width="160" height="16" fill="#fdfdfb" opacity="0.95"/>
  <text x="1136" y="784" text-anchor="middle" class="edge">uses WireCodec</text>

  <!-- InputController uses GamepadPoller (down) -->
  <path class="conn" d="M 780,760 V 800 H 180 V 820" marker-end="url(#arr)"/>
  <rect x="408" y="782" width="160" height="16" fill="#fdfdfb" opacity="0.95"/>
  <text x="488" y="794" text-anchor="middle" class="edge">polls GamepadPoller</text>

  <!-- ArenaRenderer uses SpriteAtlas (down + right via 180,760 → 790 → 780,820) -->
  <path class="conn" d="M 180,760 V 790 H 780 V 820" marker-end="url(#arr)"/>
  <rect x="408" y="772" width="120" height="16" fill="#fdfdfb" opacity="0.95"/>
  <text x="468" y="784" text-anchor="middle" class="edge">SpriteAtlas</text>

  <!-- HudOverlay uses KillFeedWidget -->
  <path class="conn" d="M 480,760 V 795 H 1080 V 820" marker-end="url(#arr)"/>
  <rect x="730" y="777" width="140" height="16" fill="#fdfdfb" opacity="0.95"/>
  <text x="800" y="789" text-anchor="middle" class="edge">KillFeedWidget</text>

  <!-- ArenaView uses SpatialAudio (down) -->
  <path class="conn" d="M 720,520 V 800 H 480 V 820" marker-end="url(#arr)" stroke-dasharray="4 3"/>
  <rect x="558" y="782" width="148" height="16" fill="#fdfdfb" opacity="0.95"/>
  <text x="632" y="794" text-anchor="middle" class="edge">plays SpatialAudio</text>

  <!-- Legend -->
  <rect x="60" y="956" width="1400" height="14" rx="6" fill="#ffffff" stroke="#d6dae0" stroke-width="1"/>
  <text x="76" y="966" class="sub">Composition (filled diamond) = owns lifecycle · Inheritance (hollow triangle) = implements View · Dashed = dependency / listener.</text>
</svg>
