<?xml version="1.0" encoding="UTF-8"?>
<svg xmlns="http://www.w3.org/2000/svg" viewBox="0 0 1500 1000" preserveAspectRatio="xMidYMid meet" role="img" aria-labelledby="title desc">
  <style>
    text { font-family: -apple-system, "Segoe UI", Roboto, sans-serif; fill: #1a1d24; }
    .title { font-weight: 700; font-size: 22px; fill: #1a1d24; }
    .ttl { font-weight: 700; font-size: 14px; fill: #1a1d24; }
    .sub { font-size: 12px; fill: #5a626e; }
    .edge { font-size: 12px; fill: #3a3f47; }
    .grp { font-weight: 700; font-size: 13px; letter-spacing: 1.2px; fill: #6a6f78; }
    .conn { fill: none; stroke: #5a626e; stroke-width: 1.6; }
  </style>
  <title id="title">UML Class Diagram — Server</title>
  <desc id="desc">Server-side classes: GameServer, WebSocketServer, GameServerHandler, MatchManager, MatchSession, LobbyService, AuthRegistry, SessionRegistry, ClientSession, BotController, ChatRouter, ProfanityFilter.</desc>
  <defs>
    <marker id="arr" viewBox="0 0 12 12" refX="11" refY="6" markerWidth="9" markerHeight="9" orient="auto-start-reverse"><path d="M0,0 L12,6 L0,12 z" fill="#5a626e"/></marker>
    <marker id="arrInherit" viewBox="0 0 14 14" refX="13" refY="7" markerWidth="13" markerHeight="13" orient="auto"><path d="M0,0 L14,7 L0,14 z" fill="#ffffff" stroke="#5a626e" stroke-width="1.5"/></marker>
    <marker id="arrCompose" viewBox="0 0 16 8" refX="15" refY="4" markerWidth="14" markerHeight="8" orient="auto"><path d="M0,4 L8,0 L16,4 L8,8 z" fill="#5a626e"/></marker>
    <filter id="sh" x="-5%" y="-5%" width="110%" height="115%"><feDropShadow stdDeviation="1" dx="0" dy="1" flood-color="#000" flood-opacity="0.08"/></filter>
  </defs>

  <rect x="0" y="0" width="1500" height="1000" fill="#ffffff"/>
  <rect x="24" y="24" width="1452" height="952" rx="10" fill="#fdfdfb" stroke="#d6dae0" stroke-width="1.5"/>

  <text x="60" y="68" class="title">UML Class Diagram — Server (bomberman-server)</text>
  <text x="60" y="92" class="sub">Netty edge · session registry · match orchestration · chat · bots · auth</text>

  <!-- ============ ROW 1 (y=140, h=180): GameServer / WebSocketServer / GameServerHandler / MatchManager / MatchSession ============ -->
  <!-- 5 cols: 60, 360, 660, 960, 1260; w=240 except last 180 -->

  <rect x="60" y="140" width="240" height="180" rx="8" fill="#fceaf3" stroke="#c2185b" stroke-width="1.4" filter="url(#sh)"/>
  <rect x="60" y="140" width="240" height="26" rx="8" fill="#f4d4e3" stroke="#c2185b" stroke-width="1.4"/>
  <rect x="60" y="158" width="240" height="8"             fill="#f4d4e3"/>
  <text x="180" y="160" text-anchor="middle" class="ttl">GameServer  «main»</text>
  <line x1="60" y1="190" x2="300" y2="190" stroke="#d6dae0" stroke-width="1"/>
  <text x="72" y="204" class="sub">- ws: WebSocketServer</text>
  <text x="72" y="220" class="sub">- matches: MatchManager</text>
  <text x="72" y="236" class="sub">- lobby: LobbyService</text>
  <text x="72" y="252" class="sub">- auth: AuthRegistry</text>
  <text x="72" y="268" class="sub">- sessions: SessionRegistry</text>
  <text x="72" y="284" class="sub">- chat: ChatRouter</text>
  <line x1="60" y1="294" x2="300" y2="294" stroke="#d6dae0" stroke-width="1"/>
  <text x="72" y="308" class="sub">+ start() · shutdown()</text>

  <rect x="360" y="140" width="240" height="180" rx="8" fill="#fceaf3" stroke="#c2185b" stroke-width="1.4" filter="url(#sh)"/>
  <rect x="360" y="140" width="240" height="26" rx="8" fill="#f4d4e3" stroke="#c2185b" stroke-width="1.4"/>
  <rect x="360" y="158" width="240" height="8"             fill="#f4d4e3"/>
  <text x="480" y="160" text-anchor="middle" class="ttl">WebSocketServer</text>
  <line x1="360" y1="190" x2="600" y2="190" stroke="#d6dae0" stroke-width="1"/>
  <text x="372" y="204" class="sub">- bossGroup: EventLoopGroup</text>
  <text x="372" y="220" class="sub">- workerGroup: EventLoopGroup</text>
  <text x="372" y="236" class="sub">- bootstrap: ServerBootstrap</text>
  <text x="372" y="252" class="sub">- handler: GameServerHandler</text>
  <text x="372" y="268" class="sub">- port: int</text>
  <line x1="360" y1="278" x2="600" y2="278" stroke="#d6dae0" stroke-width="1"/>
  <text x="372" y="292" class="sub">+ bind(port): void</text>
  <text x="372" y="308" class="sub">+ stop(): void</text>

  <rect x="660" y="140" width="240" height="180" rx="8" fill="#fceaf3" stroke="#c2185b" stroke-width="1.4" filter="url(#sh)"/>
  <rect x="660" y="140" width="240" height="26" rx="8" fill="#f4d4e3" stroke="#c2185b" stroke-width="1.4"/>
  <rect x="660" y="158" width="240" height="8"             fill="#f4d4e3"/>
  <text x="780" y="160" text-anchor="middle" class="ttl">GameServerHandler</text>
  <line x1="660" y1="190" x2="900" y2="190" stroke="#d6dae0" stroke-width="1"/>
  <text x="672" y="204" class="sub">- codec: WireCodec</text>
  <text x="672" y="220" class="sub">- sessions: SessionRegistry</text>
  <text x="672" y="236" class="sub">- matches: MatchManager</text>
  <text x="672" y="252" class="sub">- chat: ChatRouter</text>
  <line x1="660" y1="262" x2="900" y2="262" stroke="#d6dae0" stroke-width="1"/>
  <text x="672" y="276" class="sub">+ channelRead(ctx, frame)</text>
  <text x="672" y="292" class="sub">+ onHello(env): void</text>
  <text x="672" y="308" class="sub">+ onInput(env): void</text>

  <rect x="960" y="140" width="240" height="180" rx="8" fill="#fceaf3" stroke="#c2185b" stroke-width="1.4" filter="url(#sh)"/>
  <rect x="960" y="140" width="240" height="26" rx="8" fill="#f4d4e3" stroke="#c2185b" stroke-width="1.4"/>
  <rect x="960" y="158" width="240" height="8"             fill="#f4d4e3"/>
  <text x="1080" y="160" text-anchor="middle" class="ttl">MatchManager</text>
  <line x1="960" y1="190" x2="1200" y2="190" stroke="#d6dae0" stroke-width="1"/>
  <text x="972" y="204" class="sub">- active: Map&lt;UUID, MS&gt;</text>
  <text x="972" y="220" class="sub">- queue: Deque&lt;PlayerId&gt;</text>
  <text x="972" y="236" class="sub">- scheduler: ExecService</text>
  <line x1="960" y1="246" x2="1200" y2="246" stroke="#d6dae0" stroke-width="1"/>
  <text x="972" y="260" class="sub">+ create(players)</text>
  <text x="972" y="276" class="sub">+ end(matchId)</text>
  <text x="972" y="292" class="sub">+ tickAll()</text>
  <text x="972" y="308" class="sub">+ getById(id)</text>

  <rect x="1260" y="140" width="180" height="180" rx="8" fill="#fceaf3" stroke="#c2185b" stroke-width="1.4" filter="url(#sh)"/>
  <rect x="1260" y="140" width="180" height="26" rx="8" fill="#f4d4e3" stroke="#c2185b" stroke-width="1.4"/>
  <rect x="1260" y="158" width="180" height="8"             fill="#f4d4e3"/>
  <text x="1350" y="160" text-anchor="middle" class="ttl">MatchSession</text>
  <line x1="1260" y1="190" x2="1440" y2="190" stroke="#d6dae0" stroke-width="1"/>
  <text x="1272" y="204" class="sub">- id: UUID</text>
  <text x="1272" y="220" class="sub">- world: GameWorld</text>
  <text x="1272" y="236" class="sub">- snap: Snapshotter</text>
  <text x="1272" y="252" class="sub">- subscribers: Set</text>
  <text x="1272" y="268" class="sub">- tickMs: int = 50</text>
  <line x1="1260" y1="278" x2="1440" y2="278" stroke="#d6dae0" stroke-width="1"/>
  <text x="1272" y="292" class="sub">+ tick(dt)</text>
  <text x="1272" y="308" class="sub">+ broadcast(env)</text>

  <!-- ============ ROW 2 (y=380, h=180): LobbyService / AuthRegistry / SessionRegistry / ClientSession / BotController ============ -->

  <rect x="60" y="380" width="240" height="180" rx="8" fill="#fceaf3" stroke="#c2185b" stroke-width="1.4" filter="url(#sh)"/>
  <rect x="60" y="380" width="240" height="26" rx="8" fill="#f4d4e3" stroke="#c2185b" stroke-width="1.4"/>
  <rect x="60" y="398" width="240" height="8"             fill="#f4d4e3"/>
  <text x="180" y="400" text-anchor="middle" class="ttl">LobbyService</text>
  <line x1="60" y1="430" x2="300" y2="430" stroke="#d6dae0" stroke-width="1"/>
  <text x="72" y="444" class="sub">- waiting: List&lt;PlayerId&gt;</text>
  <text x="72" y="460" class="sub">- ready: Set&lt;PlayerId&gt;</text>
  <text x="72" y="476" class="sub">- sessions: SessionRegistry</text>
  <text x="72" y="492" class="sub">- mm: MatchManager</text>
  <line x1="60" y1="502" x2="300" y2="502" stroke="#d6dae0" stroke-width="1"/>
  <text x="72" y="516" class="sub">+ join(playerId)</text>
  <text x="72" y="532" class="sub">+ markReady(id)</text>
  <text x="72" y="548" class="sub">+ tryPair()</text>

  <rect x="360" y="380" width="240" height="180" rx="8" fill="#fceaf3" stroke="#c2185b" stroke-width="1.4" filter="url(#sh)"/>
  <rect x="360" y="380" width="240" height="26" rx="8" fill="#f4d4e3" stroke="#c2185b" stroke-width="1.4"/>
  <rect x="360" y="398" width="240" height="8"             fill="#f4d4e3"/>
  <text x="480" y="400" text-anchor="middle" class="ttl">AuthRegistry</text>
  <line x1="360" y1="430" x2="600" y2="430" stroke="#d6dae0" stroke-width="1"/>
  <text x="372" y="444" class="sub">- providers: List</text>
  <text x="372" y="460" class="sub">- accounts: AccountRepo</text>
  <text x="372" y="476" class="sub">- tokens: TokenCache</text>
  <line x1="360" y1="486" x2="600" y2="486" stroke="#d6dae0" stroke-width="1"/>
  <text x="372" y="500" class="sub">+ register(provider)</text>
  <text x="372" y="516" class="sub">+ validate(token)</text>
  <text x="372" y="532" class="sub">+ issue(account)</text>
  <text x="372" y="548" class="sub">+ revoke(token)</text>

  <rect x="660" y="380" width="240" height="180" rx="8" fill="#fceaf3" stroke="#c2185b" stroke-width="1.4" filter="url(#sh)"/>
  <rect x="660" y="380" width="240" height="26" rx="8" fill="#f4d4e3" stroke="#c2185b" stroke-width="1.4"/>
  <rect x="660" y="398" width="240" height="8"             fill="#f4d4e3"/>
  <text x="780" y="400" text-anchor="middle" class="ttl">SessionRegistry</text>
  <line x1="660" y1="430" x2="900" y2="430" stroke="#d6dae0" stroke-width="1"/>
  <text x="672" y="444" class="sub">- byPlayer: Map</text>
  <text x="672" y="460" class="sub">- byChannel: Map</text>
  <line x1="660" y1="470" x2="900" y2="470" stroke="#d6dae0" stroke-width="1"/>
  <text x="672" y="484" class="sub">+ attach(ch, player)</text>
  <text x="672" y="500" class="sub">+ detach(ch)</text>
  <text x="672" y="516" class="sub">+ sendTo(player, env)</text>
  <text x="672" y="532" class="sub">+ broadcast(env)</text>
  <text x="672" y="548" class="sub">+ size(): int</text>

  <rect x="960" y="380" width="240" height="180" rx="8" fill="#fceaf3" stroke="#c2185b" stroke-width="1.4" filter="url(#sh)"/>
  <rect x="960" y="380" width="240" height="26" rx="8" fill="#f4d4e3" stroke="#c2185b" stroke-width="1.4"/>
  <rect x="960" y="398" width="240" height="8"             fill="#f4d4e3"/>
  <text x="1080" y="400" text-anchor="middle" class="ttl">ClientSession</text>
  <line x1="960" y1="430" x2="1200" y2="430" stroke="#d6dae0" stroke-width="1"/>
  <text x="972" y="444" class="sub">- channel: Channel</text>
  <text x="972" y="460" class="sub">- playerId: PlayerId</text>
  <text x="972" y="476" class="sub">- matchId: UUID?</text>
  <text x="972" y="492" class="sub">- connectedAt: long</text>
  <line x1="960" y1="502" x2="1200" y2="502" stroke="#d6dae0" stroke-width="1"/>
  <text x="972" y="516" class="sub">+ send(env)</text>
  <text x="972" y="532" class="sub">+ ping()</text>
  <text x="972" y="548" class="sub">+ close()</text>

  <rect x="1260" y="380" width="180" height="180" rx="8" fill="#fceaf3" stroke="#c2185b" stroke-width="1.4" filter="url(#sh)"/>
  <rect x="1260" y="380" width="180" height="26" rx="8" fill="#f4d4e3" stroke="#c2185b" stroke-width="1.4"/>
  <rect x="1260" y="398" width="180" height="8"             fill="#f4d4e3"/>
  <text x="1350" y="400" text-anchor="middle" class="ttl">BotController</text>
  <line x1="1260" y1="430" x2="1440" y2="430" stroke="#d6dae0" stroke-width="1"/>
  <text x="1272" y="444" class="sub">- match: MatchSession</text>
  <text x="1272" y="460" class="sub">- difficulty: int</text>
  <text x="1272" y="476" class="sub">- ai: BehaviourTree</text>
  <text x="1272" y="492" class="sub">- rng: Random</text>
  <line x1="1260" y1="502" x2="1440" y2="502" stroke="#d6dae0" stroke-width="1"/>
  <text x="1272" y="516" class="sub">+ stepTick()</text>
  <text x="1272" y="532" class="sub">+ choosePath()</text>
  <text x="1272" y="548" class="sub">+ release()</text>

  <!-- ============ ROW 3 (y=620, h=160): ChatRouter / ProfanityFilter / AccountRepo / TokenCache / AuthProvider ============ -->

  <rect x="60" y="620" width="240" height="160" rx="8" fill="#fceaf3" stroke="#c2185b" stroke-width="1.4" filter="url(#sh)"/>
  <rect x="60" y="620" width="240" height="26" rx="8" fill="#f4d4e3" stroke="#c2185b" stroke-width="1.4"/>
  <rect x="60" y="638" width="240" height="8"             fill="#f4d4e3"/>
  <text x="180" y="640" text-anchor="middle" class="ttl">ChatRouter</text>
  <line x1="60" y1="670" x2="300" y2="670" stroke="#d6dae0" stroke-width="1"/>
  <text x="72" y="684" class="sub">- filter: ProfanityFilter</text>
  <text x="72" y="700" class="sub">- sessions: SessionRegistry</text>
  <text x="72" y="716" class="sub">- rateLimit: TokenBucket</text>
  <line x1="60" y1="726" x2="300" y2="726" stroke="#d6dae0" stroke-width="1"/>
  <text x="72" y="740" class="sub">+ onChat(env)</text>
  <text x="72" y="756" class="sub">+ broadcast(scope, msg)</text>
  <text x="72" y="772" class="sub">+ mute(player, ms)</text>

  <rect x="360" y="620" width="240" height="160" rx="8" fill="#fceaf3" stroke="#c2185b" stroke-width="1.4" filter="url(#sh)"/>
  <rect x="360" y="620" width="240" height="26" rx="8" fill="#f4d4e3" stroke="#c2185b" stroke-width="1.4"/>
  <rect x="360" y="638" width="240" height="8"             fill="#f4d4e3"/>
  <text x="480" y="640" text-anchor="middle" class="ttl">ProfanityFilter</text>
  <line x1="360" y1="670" x2="600" y2="670" stroke="#d6dae0" stroke-width="1"/>
  <text x="372" y="684" class="sub">- wordList: Set&lt;String&gt;</text>
  <text x="372" y="700" class="sub">- replacement: String = "*"</text>
  <text x="372" y="716" class="sub">- locale: Locale</text>
  <line x1="360" y1="726" x2="600" y2="726" stroke="#d6dae0" stroke-width="1"/>
  <text x="372" y="740" class="sub">+ sanitize(text)</text>
  <text x="372" y="756" class="sub">+ flag(text)</text>
  <text x="372" y="772" class="sub">+ reload()</text>

  <rect x="660" y="620" width="240" height="160" rx="8" fill="#fff5dc" stroke="#b8860b" stroke-width="1.4" filter="url(#sh)"/>
  <rect x="660" y="620" width="240" height="26" rx="8" fill="#f4e4be" stroke="#b8860b" stroke-width="1.4"/>
  <rect x="660" y="638" width="240" height="8"             fill="#f4e4be"/>
  <text x="780" y="640" text-anchor="middle" class="ttl">AccountRepo  «JDBC»</text>
  <line x1="660" y1="670" x2="900" y2="670" stroke="#d6dae0" stroke-width="1"/>
  <text x="672" y="684" class="sub">- ds: DataSource</text>
  <text x="672" y="700" class="sub">- cache: Caffeine</text>
  <line x1="660" y1="710" x2="900" y2="710" stroke="#d6dae0" stroke-width="1"/>
  <text x="672" y="724" class="sub">+ findById(id): Account?</text>
  <text x="672" y="740" class="sub">+ findByEmail(email)</text>
  <text x="672" y="756" class="sub">+ create(acc): PlayerId</text>
  <text x="672" y="772" class="sub">+ updateScore(id, sc)</text>

  <rect x="960" y="620" width="240" height="160" rx="8" fill="#fff5dc" stroke="#b8860b" stroke-width="1.4" filter="url(#sh)"/>
  <rect x="960" y="620" width="240" height="26" rx="8" fill="#f4e4be" stroke="#b8860b" stroke-width="1.4"/>
  <rect x="960" y="638" width="240" height="8"             fill="#f4e4be"/>
  <text x="1080" y="640" text-anchor="middle" class="ttl">TokenCache  «Redis»</text>
  <line x1="960" y1="670" x2="1200" y2="670" stroke="#d6dae0" stroke-width="1"/>
  <text x="972" y="684" class="sub">- redis: RedisClient</text>
  <text x="972" y="700" class="sub">- ttl: Duration = 1 h</text>
  <line x1="960" y1="710" x2="1200" y2="710" stroke="#d6dae0" stroke-width="1"/>
  <text x="972" y="724" class="sub">+ put(token, player)</text>
  <text x="972" y="740" class="sub">+ get(token): PlayerId?</text>
  <text x="972" y="756" class="sub">+ remove(token)</text>
  <text x="972" y="772" class="sub">+ size(): long</text>

  <rect x="1260" y="620" width="180" height="160" rx="8" fill="#fff9e6" stroke="#9c7c20" stroke-width="1.4" stroke-dasharray="5 3" filter="url(#sh)"/>
  <rect x="1260" y="620" width="180" height="26" rx="8" fill="#f4ebcb" stroke="#9c7c20" stroke-width="1.4"/>
  <rect x="1260" y="638" width="180" height="8"             fill="#f4ebcb"/>
  <text x="1350" y="640" text-anchor="middle" class="ttl">«interface» AuthProvider</text>
  <line x1="1260" y1="670" x2="1440" y2="670" stroke="#d6dae0" stroke-width="1"/>
  <text x="1272" y="684" class="sub">+ supports(scheme)</text>
  <text x="1272" y="700" class="sub">+ verify(token): PlayerId?</text>
  <line x1="1260" y1="710" x2="1440" y2="710" stroke="#d6dae0" stroke-width="1"/>
  <text x="1272" y="724" class="sub">implementations:</text>
  <text x="1272" y="740" class="sub">  DevAuthProvider</text>
  <text x="1272" y="756" class="sub">  GoogleAuthProvider</text>

  <!-- ============ ROW 4 (y=820, h=100): impl + tick note ============ -->

  <rect x="60" y="820" width="240" height="100" rx="8" fill="#fff9e6" stroke="#9c7c20" stroke-width="1.4" filter="url(#sh)"/>
  <rect x="60" y="820" width="240" height="24" rx="8" fill="#f4ebcb"/>
  <rect x="60" y="836" width="240" height="8" fill="#f4ebcb"/>
  <text x="180" y="838" text-anchor="middle" class="ttl">DevAuthProvider</text>
  <text x="72" y="862" class="sub">- staticAccounts: Map</text>
  <line x1="60" y1="872" x2="300" y2="872" stroke="#d6dae0" stroke-width="1"/>
  <text x="72" y="886" class="sub">+ supports("dev"): true</text>
  <text x="72" y="902" class="sub">+ verify(token)</text>
  <text x="72" y="916" class="sub">dev / test env</text>

  <rect x="360" y="820" width="240" height="100" rx="8" fill="#fff9e6" stroke="#9c7c20" stroke-width="1.4" filter="url(#sh)"/>
  <rect x="360" y="820" width="240" height="24" rx="8" fill="#f4ebcb"/>
  <rect x="360" y="836" width="240" height="8" fill="#f4ebcb"/>
  <text x="480" y="838" text-anchor="middle" class="ttl">GoogleAuthProvider</text>
  <text x="372" y="862" class="sub">- googleKeys: JwkSet</text>
  <line x1="360" y1="872" x2="600" y2="872" stroke="#d6dae0" stroke-width="1"/>
  <text x="372" y="886" class="sub">+ supports("google"): true</text>
  <text x="372" y="902" class="sub">+ verify(idToken)</text>
  <text x="372" y="916" class="sub">OIDC id_token</text>

  <rect x="660" y="820" width="780" height="100" rx="8" fill="#e3f1fa" stroke="#1565c0" stroke-width="1.4" filter="url(#sh)"/>
  <rect x="660" y="820" width="780" height="24" rx="8" fill="#cfe5f7"/>
  <rect x="660" y="836" width="780" height="8" fill="#cfe5f7"/>
  <text x="1050" y="838" text-anchor="middle" class="ttl">Tick scheduler (cross-cutting)</text>
  <text x="672" y="862" class="sub">ScheduledExecutorService in MatchManager · 20 Hz · drains MatchSession.tick(dt) on one pool.</text>
  <text x="672" y="878" class="sub">Backpressure: if a tick &gt; 50 ms, next tick is skipped and a warning logged.</text>
  <text x="672" y="894" class="sub">BotController.stepTick() and ClientSession.send() run on the same loop.</text>
  <text x="672" y="910" class="sub">Stateless across pods — match-id is sticky at the load balancer.</text>

  <!-- ============ CONNECTIONS — orthogonal ============ -->

  <!-- GameServer composes WebSocketServer (same row) -->
  <path class="conn" d="M 300,230 H 360" marker-start="url(#arrCompose)"/>
  <rect x="320" y="212" width="20" height="16" fill="#fdfdfb" opacity="0.95"/>
  <text x="330" y="224" text-anchor="middle" class="edge">1</text>

  <!-- GameServer composes MatchManager — top trunk at y=124 -->
  <path class="conn" d="M 180,140 V 124 H 1080 V 140" marker-start="url(#arrCompose)"/>
  <rect x="556" y="106" width="248" height="16" fill="#fdfdfb" opacity="0.95"/>
  <text x="680" y="118" text-anchor="middle" class="edge">1 MatchManager</text>

  <!-- GameServer composes LobbyService (down) -->
  <path class="conn" d="M 180,320 V 380" marker-start="url(#arrCompose)"/>
  <rect x="186" y="342" width="120" height="16" fill="#fdfdfb" opacity="0.95"/>
  <text x="246" y="354" text-anchor="middle" class="edge">1 LobbyService</text>

  <!-- WebSocketServer → GameServerHandler (same row, right) -->
  <path class="conn" d="M 600,210 H 660" marker-end="url(#arr)"/>
  <rect x="608" y="192" width="48" height="16" fill="#fdfdfb" opacity="0.95"/>
  <text x="632" y="204" text-anchor="middle" class="edge">handler</text>

  <!-- GameServerHandler → MatchManager (same row, right) -->
  <path class="conn" d="M 900,210 H 960" marker-end="url(#arr)"/>
  <rect x="912" y="192" width="40" height="16" fill="#fdfdfb" opacity="0.95"/>
  <text x="932" y="204" text-anchor="middle" class="edge">routes</text>

  <!-- MatchManager composes MatchSession (same row, right) -->
  <path class="conn" d="M 1200,210 H 1260" marker-start="url(#arrCompose)"/>
  <rect x="1216" y="192" width="24" height="16" fill="#fdfdfb" opacity="0.95"/>
  <text x="1228" y="204" text-anchor="middle" class="edge">*</text>

  <!-- GameServerHandler → SessionRegistry (down) -->
  <path class="conn" d="M 780,320 V 380" marker-end="url(#arr)"/>
  <rect x="788" y="342" width="44" height="16" fill="#fdfdfb" opacity="0.95"/>
  <text x="810" y="354" text-anchor="middle" class="edge">uses</text>

  <!-- LobbyService → MatchManager (route up-right: 300,440 → trunk at y=350 → 1080,380) -->
  <path class="conn" d="M 300,440 H 920 V 380" marker-end="url(#arr)"/>
  <rect x="552" y="422" width="160" height="16" fill="#fdfdfb" opacity="0.95"/>
  <text x="632" y="434" text-anchor="middle" class="edge">tryPair → create()</text>

  <!-- LobbyService → SessionRegistry (same row) -->
  <path class="conn" d="M 300,500 H 660" marker-end="url(#arr)"/>
  <rect x="406" y="482" width="148" height="16" fill="#fdfdfb" opacity="0.95"/>
  <text x="480" y="494" text-anchor="middle" class="edge">snapshot bcast</text>

  <!-- SessionRegistry composes ClientSession (same row, right) -->
  <path class="conn" d="M 900,440 H 960" marker-start="url(#arrCompose)"/>
  <rect x="922" y="422" width="20" height="16" fill="#fdfdfb" opacity="0.95"/>
  <text x="932" y="434" text-anchor="middle" class="edge">*</text>

  <!-- MatchSession → BotController (same row, right) -->
  <path class="conn" d="M 1200,440 H 1260" marker-end="url(#arr)"/>
  <rect x="1212" y="422" width="44" height="16" fill="#fdfdfb" opacity="0.95"/>
  <text x="1232" y="434" text-anchor="middle" class="edge">uses</text>

  <!-- AuthRegistry composes AccountRepo (down + right via 480→580→780) -->
  <path class="conn" d="M 480,560 V 590 H 780 V 620" marker-start="url(#arrCompose)"/>
  <rect x="568" y="572" width="148" height="16" fill="#fdfdfb" opacity="0.95"/>
  <text x="642" y="584" text-anchor="middle" class="edge">1 AccountRepo</text>

  <!-- AuthRegistry composes TokenCache (down + right via 540→600→1080) -->
  <path class="conn" d="M 540,560 V 600 H 1080 V 620" marker-start="url(#arrCompose)"/>
  <rect x="772" y="582" width="148" height="16" fill="#fdfdfb" opacity="0.95"/>
  <text x="846" y="594" text-anchor="middle" class="edge">1 TokenCache</text>

  <!-- AuthRegistry composes AuthProvider (right edge → AuthProvider top) — route 600,460 → 1140 → 620 -->
  <path class="conn" d="M 600,460 H 1140 V 620" marker-start="url(#arrCompose)"/>
  <rect x="780" y="442" width="180" height="16" fill="#fdfdfb" opacity="0.95"/>
  <text x="870" y="454" text-anchor="middle" class="edge">0..* AuthProvider</text>

  <!-- AuthProvider implemented by Dev/Google (inheritance trunk at y=800) -->
  <path class="conn" d="M 1350,780 V 800 H 180 V 820" marker-start="url(#arrInherit)"/>
  <rect x="660" y="782" width="200" height="16" fill="#fdfdfb" opacity="0.95"/>
  <text x="760" y="794" text-anchor="middle" class="edge">implements AuthProvider</text>
  <path class="conn" d="M 480,800 V 820"/>

  <!-- ChatRouter composes ProfanityFilter (same row, right) -->
  <path class="conn" d="M 300,700 H 360" marker-start="url(#arrCompose)"/>
  <rect x="320" y="682" width="20" height="16" fill="#fdfdfb" opacity="0.95"/>
  <text x="330" y="694" text-anchor="middle" class="edge">1</text>

  <!-- ChatRouter → SessionRegistry (up + right via 180,620 → 580 → 780 → 560) -->
  <path class="conn" d="M 180,620 V 580 H 780 V 560" marker-end="url(#arr)"/>
  <rect x="408" y="572" width="148" height="16" fill="#fdfdfb" opacity="0.95"/>
  <text x="482" y="584" text-anchor="middle" class="edge">broadcast(chat)</text>

  <!-- Legend -->
  <rect x="60" y="940" width="1380" height="30" rx="6" fill="#ffffff" stroke="#d6dae0" stroke-width="1"/>
  <text x="76" y="960" class="sub">Composition = filled diamond on owner · Inheritance = hollow triangle on parent · Pink = runtime · Amber = persistence · Gold dashed = interface.</text>
</svg>
