<?xml version="1.0" encoding="UTF-8"?>
<svg xmlns="http://www.w3.org/2000/svg" viewBox="0 0 1600 1120" preserveAspectRatio="xMidYMid meet" role="img" aria-labelledby="title desc">
  <style>
    rect { rx: 6; ry: 6; }
    text { font-family: -apple-system, "Segoe UI", Roboto, sans-serif; fill: #e8eef8; }
    .ttl { font-weight: 700; font-size: 14px; }
    .sub { font-size: 12px; fill: #9aa6b8; }
    .edge { font-size: 11px; fill: #c5cbd6; }
  </style>
  <title id="title">UML Class Diagram — JavaFX client</title>
  <desc id="desc">Client classes: ClientLauncher, SceneRouter, MainMenuView, LobbyView, ArenaView, RankingsView, ArenaRenderer, HudOverlay, GameClient, MandalaArt, MandalaTheme.</desc>
  <defs>
    <pattern id="grid" width="40" height="40" patternUnits="userSpaceOnUse">
      <path d="M 40 0 L 0 0 0 40" fill="none" stroke="#1f2533" stroke-width="0.5"/>
    </pattern>
    <marker id="arrCyan" viewBox="0 0 12 12" refX="11" refY="6" markerWidth="9" markerHeight="9" orient="auto-start-reverse"><path d="M0,0 L12,6 L0,12 z" fill="#3aedff"/></marker>
    <marker id="arrGreen" viewBox="0 0 12 12" refX="11" refY="6" markerWidth="9" markerHeight="9" orient="auto-start-reverse"><path d="M0,0 L12,6 L0,12 z" fill="#3affb5"/></marker>
    <marker id="arrInherit" viewBox="0 0 14 14" refX="13" refY="7" markerWidth="13" markerHeight="13" orient="auto"><path d="M0,0 L14,7 L0,14 z" fill="#11141c" stroke="#daa520" stroke-width="1.5"/></marker>
    <marker id="arrCompose" viewBox="0 0 16 8" refX="15" refY="4" markerWidth="14" markerHeight="8" orient="auto"><path d="M0,4 L8,0 L16,4 L8,8 z" fill="#daa520"/></marker>
  </defs>
  <style>
    text { fill: #e6eef8; font-family: -apple-system, "Segoe UI", Roboto, sans-serif; }
    .title { font-weight: 700; font-size: 22px; }
    .ttl { font-weight: 700; font-size: 13px; }
    .sub { font-size: 11px; fill: #cbd5e1; }
    .edge { font-size: 11px; fill: #daa520; paint-order: stroke; stroke: #08090d; stroke-width: 3px; stroke-linejoin: round; }
    .conn { fill: none; stroke-width: 1.8; stroke: #daa520; }
  </style>
  <rect x="0" y="0" width="1600" height="1120" fill="#08090d"/>
  <rect x="0" y="0" width="1600" height="1120" fill="url(#grid)"/>

  <text x="40" y="42" class="title" fill="#daa520">UML Class Diagram — JavaFX Client (bomberman-client)</text>
  <text x="40" y="64" class="sub">Scene routing · views · render pipeline · WebSocket transport · theme</text>

  <!-- ROW 1: ClientLauncher / SceneRouter / GameClient -->
  <rect x="40"  y="100" width="280" height="190" rx="10" fill="#0d2823" stroke="#3affb5" stroke-width="1.6"/>
  <rect x="40"  y="100" width="280" height="26"  rx="10" fill="#103a32" stroke="#3affb5" stroke-width="1.6"/>
  <rect x="40"  y="116" width="280" height="10"             fill="#103a32"/>
  <text x="180" y="118" text-anchor="middle" class="ttl" fill="#3affb5">ClientLauncher  «main»</text>
  <line x1="40" y1="156" x2="320" y2="156" stroke="#3affb5" stroke-width="0.8" opacity="0.5"/>
  <text x="52" y="148" class="sub">- args: String[]</text>
  <text x="52" y="170" class="sub">- stage: Stage</text>
  <text x="52" y="188" class="sub">- router: SceneRouter</text>
  <text x="52" y="206" class="sub">- client: GameClient</text>
  <text x="52" y="224" class="sub">- theme: MandalaTheme</text>
  <line x1="40" y1="234" x2="320" y2="234" stroke="#3affb5" stroke-width="0.8" opacity="0.5"/>
  <text x="52" y="252" class="sub">+ start(stage): void</text>
  <text x="52" y="270" class="sub">+ main(args): void</text>

  <rect x="500" y="100" width="280" height="190" rx="10" fill="#0d2823" stroke="#3affb5" stroke-width="1.6"/>
  <rect x="500" y="100" width="280" height="26"  rx="10" fill="#103a32" stroke="#3affb5" stroke-width="1.6"/>
  <rect x="500" y="116" width="280" height="10"             fill="#103a32"/>
  <text x="640" y="118" text-anchor="middle" class="ttl" fill="#3affb5">SceneRouter</text>
  <line x1="500" y1="156" x2="780" y2="156" stroke="#3affb5" stroke-width="0.8" opacity="0.5"/>
  <text x="512" y="148" class="sub">- stage: Stage</text>
  <text x="512" y="170" class="sub">- scenes: Map&lt;Route, Scene&gt;</text>
  <text x="512" y="188" class="sub">- current: Route</text>
  <text x="512" y="206" class="sub">- history: Deque&lt;Route&gt;</text>
  <line x1="500" y1="216" x2="780" y2="216" stroke="#3affb5" stroke-width="0.8" opacity="0.5"/>
  <text x="512" y="234" class="sub">+ go(route): void</text>
  <text x="512" y="252" class="sub">+ back(): void</text>
  <text x="512" y="270" class="sub">+ replace(route, scene)</text>

  <rect x="960" y="100" width="280" height="190" rx="10" fill="#0d2823" stroke="#3affb5" stroke-width="1.6"/>
  <rect x="960" y="100" width="280" height="26"  rx="10" fill="#103a32" stroke="#3affb5" stroke-width="1.6"/>
  <rect x="960" y="116" width="280" height="10"             fill="#103a32"/>
  <text x="1100" y="118" text-anchor="middle" class="ttl" fill="#3affb5">GameClient</text>
  <line x1="960" y1="156" x2="1240" y2="156" stroke="#3affb5" stroke-width="0.8" opacity="0.5"/>
  <text x="972" y="148" class="sub">- ws: WebSocket</text>
  <text x="972" y="170" class="sub">- codec: WireCodec</text>
  <text x="972" y="188" class="sub">- listeners: List&lt;Listener&gt;</text>
  <text x="972" y="206" class="sub">- lastTick: int</text>
  <line x1="960" y1="216" x2="1240" y2="216" stroke="#3affb5" stroke-width="0.8" opacity="0.5"/>
  <text x="972" y="234" class="sub">+ connect(url, token): void</text>
  <text x="972" y="252" class="sub">+ send(env): void</text>
  <text x="972" y="270" class="sub">+ on(type, fn): void</text>

  <!-- MandalaTheme -->
  <rect x="1300" y="100" width="260" height="190" rx="10" fill="#2a2110" stroke="#daa520" stroke-width="1.6"/>
  <rect x="1300" y="100" width="260" height="26" rx="10" fill="#3a2c10" stroke="#daa520" stroke-width="1.6"/>
  <rect x="1300" y="116" width="260" height="10"             fill="#3a2c10"/>
  <text x="1430" y="118" text-anchor="middle" class="ttl" fill="#daa520">MandalaTheme</text>
  <line x1="1300" y1="156" x2="1560" y2="156" stroke="#daa520" stroke-width="0.8" opacity="0.5"/>
  <text x="1312" y="148" class="sub">- saffron: Color</text>
  <text x="1312" y="170" class="sub">- gold: Color</text>
  <text x="1312" y="188" class="sub">- teal: Color</text>
  <text x="1312" y="206" class="sub">- ink: Color</text>
  <line x1="1300" y1="216" x2="1560" y2="216" stroke="#daa520" stroke-width="0.8" opacity="0.5"/>
  <text x="1312" y="234" class="sub">+ applyTo(scene): void</text>
  <text x="1312" y="252" class="sub">+ palette(): Palette</text>
  <text x="1312" y="270" class="sub" fill="#94a3b8">festival accent system</text>

  <!-- ROW 2: 4 Views -->
  <!-- MainMenuView -->
  <rect x="40"  y="360" width="280" height="200" rx="10" fill="#0d2823" stroke="#3affb5" stroke-width="1.6"/>
  <rect x="40"  y="360" width="280" height="26"  rx="10" fill="#103a32" stroke="#3affb5" stroke-width="1.6"/>
  <rect x="40"  y="376" width="280" height="10"             fill="#103a32"/>
  <text x="180" y="378" text-anchor="middle" class="ttl" fill="#3affb5">MainMenuView</text>
  <line x1="40" y1="416" x2="320" y2="416" stroke="#3affb5" stroke-width="0.8" opacity="0.5"/>
  <text x="52" y="408" class="sub">- root: BorderPane</text>
  <text x="52" y="430" class="sub">- titleBanner: Node</text>
  <text x="52" y="448" class="sub">- playButton: Button</text>
  <text x="52" y="466" class="sub">- rankingsButton: Button</text>
  <text x="52" y="484" class="sub">- settingsButton: Button</text>
  <line x1="40" y1="494" x2="320" y2="494" stroke="#3affb5" stroke-width="0.8" opacity="0.5"/>
  <text x="52" y="512" class="sub">+ render(): Scene</text>
  <text x="52" y="530" class="sub">+ onPlay(): void</text>
  <text x="52" y="548" class="sub">+ onRankings(): void</text>

  <!-- LobbyView -->
  <rect x="380" y="360" width="280" height="200" rx="10" fill="#0d2823" stroke="#3affb5" stroke-width="1.6"/>
  <rect x="380" y="360" width="280" height="26"  rx="10" fill="#103a32" stroke="#3affb5" stroke-width="1.6"/>
  <rect x="380" y="376" width="280" height="10"             fill="#103a32"/>
  <text x="520" y="378" text-anchor="middle" class="ttl" fill="#3affb5">LobbyView</text>
  <line x1="380" y1="416" x2="660" y2="416" stroke="#3affb5" stroke-width="0.8" opacity="0.5"/>
  <text x="392" y="408" class="sub">- root: BorderPane</text>
  <text x="392" y="430" class="sub">- playerList: ListView</text>
  <text x="392" y="448" class="sub">- chatPanel: ChatPanel</text>
  <text x="392" y="466" class="sub">- readyToggle: ToggleButton</text>
  <text x="392" y="484" class="sub">- client: GameClient</text>
  <line x1="380" y1="494" x2="660" y2="494" stroke="#3affb5" stroke-width="0.8" opacity="0.5"/>
  <text x="392" y="512" class="sub">+ onSnapshot(snap): void</text>
  <text x="392" y="530" class="sub">+ onReady(): void</text>
  <text x="392" y="548" class="sub">+ render(): Scene</text>

  <!-- ArenaView -->
  <rect x="720" y="360" width="280" height="200" rx="10" fill="#0d2823" stroke="#3affb5" stroke-width="1.6"/>
  <rect x="720" y="360" width="280" height="26"  rx="10" fill="#103a32" stroke="#3affb5" stroke-width="1.6"/>
  <rect x="720" y="376" width="280" height="10"             fill="#103a32"/>
  <text x="860" y="378" text-anchor="middle" class="ttl" fill="#3affb5">ArenaView</text>
  <line x1="720" y1="416" x2="1000" y2="416" stroke="#3affb5" stroke-width="0.8" opacity="0.5"/>
  <text x="732" y="408" class="sub">- canvas: Canvas</text>
  <text x="732" y="430" class="sub">- renderer: ArenaRenderer</text>
  <text x="732" y="448" class="sub">- hud: HudOverlay</text>
  <text x="732" y="466" class="sub">- input: InputController</text>
  <text x="732" y="484" class="sub">- client: GameClient</text>
  <line x1="720" y1="494" x2="1000" y2="494" stroke="#3affb5" stroke-width="0.8" opacity="0.5"/>
  <text x="732" y="512" class="sub">+ onSnapshot(snap): void</text>
  <text x="732" y="530" class="sub">+ onKey(code): void</text>
  <text x="732" y="548" class="sub">+ render(): Scene</text>

  <!-- RankingsView -->
  <rect x="1060" y="360" width="280" height="200" rx="10" fill="#0d2823" stroke="#3affb5" stroke-width="1.6"/>
  <rect x="1060" y="360" width="280" height="26"  rx="10" fill="#103a32" stroke="#3affb5" stroke-width="1.6"/>
  <rect x="1060" y="376" width="280" height="10"             fill="#103a32"/>
  <text x="1200" y="378" text-anchor="middle" class="ttl" fill="#3affb5">RankingsView</text>
  <line x1="1060" y1="416" x2="1340" y2="416" stroke="#3affb5" stroke-width="0.8" opacity="0.5"/>
  <text x="1072" y="408" class="sub">- root: BorderPane</text>
  <text x="1072" y="430" class="sub">- table: TableView&lt;Row&gt;</text>
  <text x="1072" y="448" class="sub">- filter: ComboBox&lt;Mode&gt;</text>
  <text x="1072" y="466" class="sub">- pageSize: int = 50</text>
  <line x1="1060" y1="476" x2="1340" y2="476" stroke="#3affb5" stroke-width="0.8" opacity="0.5"/>
  <text x="1072" y="494" class="sub">+ refresh(): void</text>
  <text x="1072" y="512" class="sub">+ render(): Scene</text>
  <text x="1072" y="530" class="sub">+ onFilter(mode): void</text>

  <!-- View interface marker  -->
  <rect x="1380" y="360" width="180" height="200" rx="10" fill="#2a2110" stroke="#daa520" stroke-width="1.6" stroke-dasharray="5 3"/>
  <rect x="1380" y="360" width="180" height="26" rx="10" fill="#3a2c10" stroke="#daa520" stroke-width="1.6"/>
  <rect x="1380" y="376" width="180" height="10"             fill="#3a2c10"/>
  <text x="1470" y="378" text-anchor="middle" class="ttl" fill="#daa520">«interface» View</text>
  <line x1="1380" y1="416" x2="1560" y2="416" stroke="#daa520" stroke-width="0.8" opacity="0.5"/>
  <text x="1392" y="408" class="sub">+ render(): Scene</text>
  <text x="1392" y="430" class="sub">+ onShow(): void</text>
  <text x="1392" y="448" class="sub">+ onHide(): void</text>
  <line x1="1380" y1="458" x2="1560" y2="458" stroke="#daa520" stroke-width="0.8" opacity="0.5"/>
  <text x="1392" y="476" class="sub" fill="#94a3b8">All views implement</text>
  <text x="1392" y="494" class="sub" fill="#94a3b8">this Scene-producing</text>
  <text x="1392" y="512" class="sub" fill="#94a3b8">contract for SceneRouter.</text>

  <!-- ROW 3: Render pipeline -->
  <!-- ArenaRenderer -->
  <rect x="40"  y="640" width="280" height="200" rx="10" fill="#0d2823" stroke="#3affb5" stroke-width="1.6"/>
  <rect x="40"  y="640" width="280" height="26"  rx="10" fill="#103a32" stroke="#3affb5" stroke-width="1.6"/>
  <rect x="40"  y="656" width="280" height="10"             fill="#103a32"/>
  <text x="180" y="658" text-anchor="middle" class="ttl" fill="#3affb5">ArenaRenderer</text>
  <line x1="40" y1="696" x2="320" y2="696" stroke="#3affb5" stroke-width="0.8" opacity="0.5"/>
  <text x="52" y="688" class="sub">- gc: GraphicsContext</text>
  <text x="52" y="710" class="sub">- atlas: SpriteAtlas</text>
  <text x="52" y="728" class="sub">- theme: MandalaTheme</text>
  <text x="52" y="746" class="sub">- camera: Camera</text>
  <text x="52" y="764" class="sub">- ticksDrawn: int</text>
  <line x1="40" y1="774" x2="320" y2="774" stroke="#3affb5" stroke-width="0.8" opacity="0.5"/>
  <text x="52" y="792" class="sub">+ drawWorld(snap): void</text>
  <text x="52" y="810" class="sub">+ drawArena(arena): void</text>
  <text x="52" y="828" class="sub">+ drawPlayers(list): void</text>

  <!-- HudOverlay -->
  <rect x="380" y="640" width="280" height="200" rx="10" fill="#0d2823" stroke="#3affb5" stroke-width="1.6"/>
  <rect x="380" y="640" width="280" height="26"  rx="10" fill="#103a32" stroke="#3affb5" stroke-width="1.6"/>
  <rect x="380" y="656" width="280" height="10"             fill="#103a32"/>
  <text x="520" y="658" text-anchor="middle" class="ttl" fill="#3affb5">HudOverlay</text>
  <line x1="380" y1="696" x2="660" y2="696" stroke="#3affb5" stroke-width="0.8" opacity="0.5"/>
  <text x="392" y="688" class="sub">- pane: Pane</text>
  <text x="392" y="710" class="sub">- killFeed: KillFeedWidget</text>
  <text x="392" y="728" class="sub">- scoreBar: ScoreBar</text>
  <text x="392" y="746" class="sub">- timer: Label</text>
  <text x="392" y="764" class="sub">- powerUpStrip: HBox</text>
  <line x1="380" y1="774" x2="660" y2="774" stroke="#3affb5" stroke-width="0.8" opacity="0.5"/>
  <text x="392" y="792" class="sub">+ refresh(snap): void</text>
  <text x="392" y="810" class="sub">+ pushKill(entry): void</text>
  <text x="392" y="828" class="sub">+ setTime(ms): void</text>

  <!-- InputController -->
  <rect x="720" y="640" width="280" height="200" rx="10" fill="#0d2823" stroke="#3affb5" stroke-width="1.6"/>
  <rect x="720" y="640" width="280" height="26"  rx="10" fill="#103a32" stroke="#3affb5" stroke-width="1.6"/>
  <rect x="720" y="656" width="280" height="10"             fill="#103a32"/>
  <text x="860" y="658" text-anchor="middle" class="ttl" fill="#3affb5">InputController</text>
  <line x1="720" y1="696" x2="1000" y2="696" stroke="#3affb5" stroke-width="0.8" opacity="0.5"/>
  <text x="732" y="688" class="sub">- scene: Scene</text>
  <text x="732" y="710" class="sub">- keymap: Map&lt;Code, Action&gt;</text>
  <text x="732" y="728" class="sub">- gamepad: GamepadPoller?</text>
  <text x="732" y="746" class="sub">- buffer: RingBuffer&lt;Input&gt;</text>
  <line x1="720" y1="756" x2="1000" y2="756" stroke="#3affb5" stroke-width="0.8" opacity="0.5"/>
  <text x="732" y="774" class="sub">+ install(scene): void</text>
  <text x="732" y="792" class="sub">+ pump(): List&lt;Input&gt;</text>
  <text x="732" y="810" class="sub">+ rebind(action, code): void</text>
  <text x="732" y="828" class="sub">+ uninstall(): void</text>

  <!-- ChatPanel -->
  <rect x="1060" y="640" width="280" height="200" rx="10" fill="#0d2823" stroke="#3affb5" stroke-width="1.6"/>
  <rect x="1060" y="640" width="280" height="26"  rx="10" fill="#103a32" stroke="#3affb5" stroke-width="1.6"/>
  <rect x="1060" y="656" width="280" height="10"             fill="#103a32"/>
  <text x="1200" y="658" text-anchor="middle" class="ttl" fill="#3affb5">ChatPanel</text>
  <line x1="1060" y1="696" x2="1340" y2="696" stroke="#3affb5" stroke-width="0.8" opacity="0.5"/>
  <text x="1072" y="688" class="sub">- log: ListView&lt;ChatLine&gt;</text>
  <text x="1072" y="710" class="sub">- field: TextField</text>
  <text x="1072" y="728" class="sub">- sendBtn: Button</text>
  <text x="1072" y="746" class="sub">- client: GameClient</text>
  <line x1="1060" y1="756" x2="1340" y2="756" stroke="#3affb5" stroke-width="0.8" opacity="0.5"/>
  <text x="1072" y="774" class="sub">+ post(line): void</text>
  <text x="1072" y="792" class="sub">+ onSend(text): void</text>
  <text x="1072" y="810" class="sub">+ scrollToBottom(): void</text>

  <!-- MandalaArt -->
  <rect x="1380" y="640" width="180" height="200" rx="10" fill="#2a2110" stroke="#daa520" stroke-width="1.4"/>
  <rect x="1380" y="640" width="180" height="24" rx="10" fill="#3a2c10" stroke="#daa520" stroke-width="1.4"/>
  <rect x="1380" y="656" width="180" height="8"             fill="#3a2c10"/>
  <text x="1470" y="657" text-anchor="middle" class="ttl" fill="#daa520">MandalaArt</text>
  <line x1="1380" y1="696" x2="1560" y2="696" stroke="#daa520" stroke-width="0.6" opacity="0.5"/>
  <text x="1392" y="688" class="sub">- rings: int</text>
  <text x="1392" y="710" class="sub">- palette: Palette</text>
  <line x1="1380" y1="720" x2="1560" y2="720" stroke="#daa520" stroke-width="0.6" opacity="0.5"/>
  <text x="1392" y="738" class="sub">+ draw(gc, x, y, r)</text>
  <text x="1392" y="756" class="sub">+ animate(t): void</text>
  <text x="1392" y="774" class="sub" fill="#94a3b8">decorative SVG</text>
  <text x="1392" y="792" class="sub" fill="#94a3b8">accents</text>

  <!-- ROW 4: Support -->
  <rect x="40"  y="900" width="280" height="170" rx="10" fill="#0d2823" stroke="#3affb5" stroke-width="1.4"/>
  <rect x="40"  y="900" width="280" height="24" rx="10" fill="#103a32" stroke="#3affb5" stroke-width="1.4"/>
  <rect x="40"  y="916" width="280" height="8"             fill="#103a32"/>
  <text x="180" y="917" text-anchor="middle" class="ttl" fill="#3affb5">GamepadPoller</text>
  <line x1="40" y1="948" x2="320" y2="948" stroke="#3affb5" stroke-width="0.6" opacity="0.5"/>
  <text x="52" y="942" class="sub">- pads: List&lt;Gamepad&gt;</text>
  <text x="52" y="964" class="sub">- pollHz: int = 60</text>
  <line x1="40" y1="974" x2="320" y2="974" stroke="#3affb5" stroke-width="0.6" opacity="0.5"/>
  <text x="52" y="992" class="sub">+ poll(): List&lt;Input&gt;</text>
  <text x="52" y="1010" class="sub">+ rumble(idx, ms): void</text>
  <text x="52" y="1028" class="sub">+ shutdown(): void</text>

  <rect x="380" y="900" width="280" height="170" rx="10" fill="#0d2823" stroke="#3affb5" stroke-width="1.4"/>
  <rect x="380" y="900" width="280" height="24" rx="10" fill="#103a32" stroke="#3affb5" stroke-width="1.4"/>
  <rect x="380" y="916" width="280" height="8"             fill="#103a32"/>
  <text x="520" y="917" text-anchor="middle" class="ttl" fill="#3affb5">SpatialAudio</text>
  <line x1="380" y1="948" x2="660" y2="948" stroke="#3affb5" stroke-width="0.6" opacity="0.5"/>
  <text x="392" y="942" class="sub">- mixer: AudioMixer</text>
  <text x="392" y="964" class="sub">- listener: Point</text>
  <line x1="380" y1="974" x2="660" y2="974" stroke="#3affb5" stroke-width="0.6" opacity="0.5"/>
  <text x="392" y="992" class="sub">+ play(clip, pos): void</text>
  <text x="392" y="1010" class="sub">+ setListener(pos): void</text>
  <text x="392" y="1028" class="sub">+ stopAll(): void</text>

  <rect x="720" y="900" width="280" height="170" rx="10" fill="#0d2823" stroke="#3affb5" stroke-width="1.4"/>
  <rect x="720" y="900" width="280" height="24" rx="10" fill="#103a32" stroke="#3affb5" stroke-width="1.4"/>
  <rect x="720" y="916" width="280" height="8"             fill="#103a32"/>
  <text x="860" y="917" text-anchor="middle" class="ttl" fill="#3affb5">SpriteAtlas</text>
  <line x1="720" y1="948" x2="1000" y2="948" stroke="#3affb5" stroke-width="0.6" opacity="0.5"/>
  <text x="732" y="942" class="sub">- image: Image</text>
  <text x="732" y="964" class="sub">- frames: Map&lt;String, Rect&gt;</text>
  <line x1="720" y1="974" x2="1000" y2="974" stroke="#3affb5" stroke-width="0.6" opacity="0.5"/>
  <text x="732" y="992" class="sub">+ get(name): Sprite</text>
  <text x="732" y="1010" class="sub">+ animate(name, t): Sprite</text>
  <text x="732" y="1028" class="sub">+ disposeIfFreed(): void</text>

  <rect x="1060" y="900" width="280" height="170" rx="10" fill="#0d2823" stroke="#3affb5" stroke-width="1.4"/>
  <rect x="1060" y="900" width="280" height="24" rx="10" fill="#103a32" stroke="#3affb5" stroke-width="1.4"/>
  <rect x="1060" y="916" width="280" height="8"             fill="#103a32"/>
  <text x="1200" y="917" text-anchor="middle" class="ttl" fill="#3affb5">KillFeedWidget</text>
  <line x1="1060" y1="948" x2="1340" y2="948" stroke="#3affb5" stroke-width="0.6" opacity="0.5"/>
  <text x="1072" y="942" class="sub">- entries: Deque&lt;KillFeedEntry&gt;</text>
  <text x="1072" y="964" class="sub">- maxLines: int = 6</text>
  <line x1="1060" y1="974" x2="1340" y2="974" stroke="#3affb5" stroke-width="0.6" opacity="0.5"/>
  <text x="1072" y="992" class="sub">+ push(entry): void</text>
  <text x="1072" y="1010" class="sub">+ fade(): void</text>
  <text x="1072" y="1028" class="sub">+ render(gc): void</text>

  <rect x="1380" y="900" width="180" height="170" rx="10" fill="#0a2030" stroke="#3aedff" stroke-width="1.4"/>
  <rect x="1380" y="900" width="180" height="24" rx="10" fill="#0c2c44" stroke="#3aedff" stroke-width="1.4"/>
  <rect x="1380" y="916" width="180" height="8"             fill="#0c2c44"/>
  <text x="1470" y="917" text-anchor="middle" class="ttl" fill="#3aedff">WireCodec</text>
  <line x1="1380" y1="948" x2="1560" y2="948" stroke="#3aedff" stroke-width="0.6" opacity="0.5"/>
  <text x="1392" y="942" class="sub">- registry: Map</text>
  <line x1="1380" y1="956" x2="1560" y2="956" stroke="#3aedff" stroke-width="0.6" opacity="0.5"/>
  <text x="1392" y="974" class="sub">+ encode(env)</text>
  <text x="1392" y="992" class="sub">+ decode(buf)</text>
  <text x="1392" y="1010" class="sub" fill="#94a3b8">shared with</text>
  <text x="1392" y="1028" class="sub" fill="#94a3b8">bomberman-core</text>

  <!-- ============ CONNECTIONS ============ -->
  <!-- ClientLauncher composes SceneRouter -->
  <path class="conn" d="M 320,200 H 500" marker-start="url(#arrCompose)"/>
  <text x="410" y="194" text-anchor="middle" class="edge">1  SceneRouter</text>

  <!-- ClientLauncher composes GameClient (above) -->
  <path class="conn" d="M 180,100 V 80 H 1100 V 100" marker-start="url(#arrCompose)"/>
  <text x="640" y="74" text-anchor="middle" class="edge">1  GameClient</text>

  <!-- ClientLauncher composes MandalaTheme (right via top) -->
  <path class="conn" d="M 320,140 H 1300" marker-start="url(#arrCompose)" stroke-dasharray="4 3" stroke="#daa520"/>
  <text x="810" y="134" text-anchor="middle" class="edge">1  theme</text>

  <!-- SceneRouter -> 4 views (trunk drop) -->
  <!-- Trunk at y=330 -->
  <path class="conn" d="M 640,290 V 330 H 180 V 360" marker-end="url(#arrCyan)" stroke="#3aedff"/>
  <text x="400" y="324" text-anchor="middle" class="edge" fill="#3aedff">routes  →  views</text>
  <path class="conn" d="M 180,330 H 520 V 360" stroke="#3aedff"/>
  <path class="conn" d="M 520,330 H 860 V 360" stroke="#3aedff"/>
  <path class="conn" d="M 860,330 H 1200 V 360" stroke="#3aedff"/>

  <!-- Views implement View (inheritance to the right interface) — trunk on the right -->
  <path class="conn" d="M 180,560 V 590 H 1470 V 560" marker-end="url(#arrInherit)"/>
  <text x="800" y="584" text-anchor="middle" class="edge">implements View</text>
  <path class="conn" d="M 520,560 V 590"/>
  <path class="conn" d="M 860,560 V 590"/>
  <path class="conn" d="M 1200,560 V 590"/>

  <!-- ArenaView composes ArenaRenderer -->
  <path class="conn" d="M 860,560 V 600 H 180 V 640" marker-start="url(#arrCompose)"/>
  <text x="500" y="594" text-anchor="middle" class="edge">1  ArenaRenderer</text>

  <!-- ArenaView composes HudOverlay -->
  <path class="conn" d="M 860,560 V 610 H 520 V 640" marker-start="url(#arrCompose)"/>
  <text x="690" y="604" text-anchor="middle" class="edge">1  HudOverlay</text>

  <!-- ArenaView composes InputController (down) -->
  <path class="conn" d="M 860,560 V 640" marker-start="url(#arrCompose)"/>
  <text x="900" y="608" class="edge">1</text>

  <!-- LobbyView composes ChatPanel (down-right) -->
  <path class="conn" d="M 520,560 V 615 H 1200 V 640" marker-start="url(#arrCompose)"/>
  <text x="850" y="609" text-anchor="middle" class="edge">1  ChatPanel</text>

  <!-- GameClient uses WireCodec (down-right) -->
  <path class="conn" d="M 1100,290 V 870 H 1470 V 900" marker-end="url(#arrCyan)" stroke="#3aedff" stroke-dasharray="4 3"/>
  <text x="1290" y="864" text-anchor="middle" class="edge" fill="#3aedff">uses WireCodec</text>

  <!-- GameClient is referenced by views (dependency dashed teal) — LobbyView, ArenaView, ChatPanel -->
  <path class="conn" d="M 960,170 H 740 V 360" stroke="#3aedff" marker-end="url(#arrCyan)" stroke-dasharray="4 3"/>
  <text x="840" y="164" text-anchor="middle" class="edge" fill="#3aedff">listens (ArenaView)</text>

  <path class="conn" d="M 960,230 H 420 V 360" stroke="#3aedff" marker-end="url(#arrCyan)" stroke-dasharray="4 3"/>
  <text x="700" y="224" text-anchor="middle" class="edge" fill="#3aedff">listens (LobbyView)</text>

  <!-- InputController uses GamepadPoller (down) -->
  <path class="conn" d="M 860,840 V 870 H 180 V 900" marker-end="url(#arrCyan)" stroke="#3aedff"/>
  <text x="500" y="864" text-anchor="middle" class="edge" fill="#3aedff">polls GamepadPoller</text>

  <!-- ArenaRenderer uses SpriteAtlas -->
  <path class="conn" d="M 180,840 V 870 H 860 V 900" marker-end="url(#arrCyan)" stroke="#3aedff"/>
  <text x="500" y="864" text-anchor="middle" class="edge" fill="#3aedff" opacity="0">.</text>
  <text x="500" y="884" text-anchor="middle" class="edge" fill="#3aedff">SpriteAtlas</text>

  <!-- HudOverlay uses KillFeedWidget -->
  <path class="conn" d="M 520,840 V 880 H 1200 V 900" marker-end="url(#arrCyan)" stroke="#3aedff"/>
  <text x="850" y="874" text-anchor="middle" class="edge" fill="#3aedff">KillFeedWidget</text>

  <!-- ArenaRenderer uses MandalaTheme (orthogonal route up and right) -->
  <path class="conn" d="M 320,720 H 1430 V 290" stroke="#daa520" marker-end="url(#arrCyan)" stroke-dasharray="4 3"/>
  <text x="870" y="714" text-anchor="middle" class="edge">reads theme</text>

  <!-- ArenaView uses SpatialAudio (down) -->
  <path class="conn" d="M 760,560 V 875 H 520 V 900" stroke="#3aedff" marker-end="url(#arrCyan)" stroke-dasharray="4 3"/>
  <text x="620" y="869" text-anchor="middle" class="edge" fill="#3aedff">plays SpatialAudio</text>

  <!-- Legend -->
  <rect x="40" y="1080" width="1520" height="32" rx="6" fill="#11141c" stroke="#1f2533" stroke-width="1"/>
  <text x="60" y="1100" class="sub">Composition (diamond) = owns lifecycle · Inheritance (open triangle) = implements View · Dashed cyan = listener / dependency.</text>
</svg>
