<?xml version="1.0" encoding="UTF-8"?>
<svg xmlns="http://www.w3.org/2000/svg" viewBox="0 0 1400 880" preserveAspectRatio="xMidYMid meet" role="img" aria-labelledby="depTitle depDesc">
  <style>
    rect, polygon, ellipse {
      filter: drop-shadow(3px 4px 5px rgba(0,0,0,0.65))
              drop-shadow(0 0 6px rgba(218,165,32,0.22));
    }
    circle { filter: drop-shadow(2px 3px 4px rgba(0,0,0,0.55)); }
    text { filter: drop-shadow(0 1px 2px rgba(0,0,0,0.65)); }
    path, line { filter: drop-shadow(0 1px 2px rgba(0,0,0,0.5)); }
  </style>
  <title id="depTitle">Deployment view</title>
  <desc id="depDesc">User device runs the JavaFX client and browser play.html with optional gamepad. The GCP europe-west region hosts Cloud Run, Cloud SQL Postgres, and Memorystore Redis. GitHub Actions builds container images, publishes to Artifact Registry, and deploys to Cloud Run.</desc>

  <defs>
    <filter id="bx-3d-bevel" x="-10%" y="-10%" width="120%" height="120%">
      <feGaussianBlur in="SourceAlpha" stdDeviation="1.5" result="blur"/>
      <feOffset in="blur" dx="3" dy="4" result="dropshadowAlpha"/>
      <feFlood flood-color="#000" flood-opacity="0.55"/>
      <feComposite in2="dropshadowAlpha" operator="in" result="dropshadow"/>
      <feSpecularLighting in="blur" surfaceScale="2.4" specularConstant="0.55"
                          specularExponent="22" lighting-color="#fff8e7" result="specOut">
        <feDistantLight azimuth="-45" elevation="65"/>
      </feSpecularLighting>
      <feComposite in="specOut" in2="SourceAlpha" operator="in" result="specOut2"/>
      <feComposite in="SourceGraphic" in2="specOut2" operator="arithmetic"
                   k1="0" k2="1" k3="1" k4="0" result="litPaint"/>
      <feMerge>
        <feMergeNode in="dropshadow"/>
        <feMergeNode in="litPaint"/>
      </feMerge>
    </filter>
    <marker id="arrCyan" viewBox="0 0 12 12" refX="11" refY="6" markerWidth="9" markerHeight="9" orient="auto">
      <path d="M0,0 L12,6 L0,12 z" fill="#3aedff"/>
    </marker>
    <marker id="arrAmber" viewBox="0 0 12 12" refX="11" refY="6" markerWidth="9" markerHeight="9" orient="auto">
      <path d="M0,0 L12,6 L0,12 z" fill="#ffb53a"/>
    </marker>
    <marker id="arrGreen" viewBox="0 0 12 12" refX="11" refY="6" markerWidth="9" markerHeight="9" orient="auto">
      <path d="M0,0 L12,6 L0,12 z" fill="#3affb5"/>
    </marker>
    <pattern id="grid" width="40" height="40" patternUnits="userSpaceOnUse">
      <path d="M40 0 L0 0 0 40" fill="none" stroke="#1f2533" stroke-width="0.5"/>
    </pattern>
    <style>
      .lbl { font-family: -apple-system, "Segoe UI", Roboto, sans-serif; fill: #e6eef8; }
      .ttl { font-weight: 700; font-size: 16px; }
      .sub { font-size: 12px; fill: #94a3b8; }
      .edge { font-size: 11px; fill: #cbd5e1; }
      .grp { font-weight: 700; font-size: 13px; letter-spacing: 1.5px; fill: #94a3b8; }
      .h1 { font-weight: 700; font-size: 22px; }
    </style>
  </defs>

  <rect width="1400" height="880" fill="#08090d"/>
  <rect width="1400" height="880" fill="url(#grid)"/>

  <text x="700" y="44" class="lbl h1" text-anchor="middle">BomberMen-X — Deployment View</text>
  <text x="700" y="68" class="lbl sub" text-anchor="middle">User device on the left, GCP region in the centre, CI/CD pipeline on the right. All public traffic is WS over TLS.</text>

  <!-- USER DEVICE GROUP -->
  <g>
    <rect x="40" y="120" width="360" height="500" rx="10" fill="#0c0f17" stroke="#3affb5" stroke-width="2" stroke-dasharray="6 4"/ filter="url(#bx-3d-bevel)">
    <text x="60" y="146" class="lbl grp" fill="#3affb5">USER DEVICE</text>

    <rect x="60" y="170" width="320" height="120" rx="6" fill="#11141c" stroke="#3affb5"/ filter="url(#bx-3d-bevel)">
    <text x="80" y="198" class="lbl ttl" fill="#3affb5">JavaFX Desktop Client</text>
    <text x="80" y="218" class="sub">Java 21 runtime - 250 MiB process</text>
    <line x1="80" y1="228" x2="360" y2="228" stroke="#1f2533"/>
    <text x="80" y="250" class="edge">Launched as installer or fat jar</text>
    <text x="80" y="268" class="edge">Reads gamepad via GLFW binding</text>
    <text x="80" y="286" class="edge">Writes config to ~/.bombermenx</text>

    <rect x="60" y="310" width="320" height="120" rx="6" fill="#11141c" stroke="#3affb5"/ filter="url(#bx-3d-bevel)">
    <text x="80" y="338" class="lbl ttl" fill="#3affb5">Browser - play.html</text>
    <text x="80" y="358" class="sub">Chromium / Firefox / Safari</text>
    <line x1="80" y1="368" class="line" x2="360" y2="368" stroke="#1f2533"/>
    <text x="80" y="390" class="edge">Static HTML served from Cloud Run</text>
    <text x="80" y="408" class="edge">Opens WS to /ws on same origin</text>
    <text x="80" y="426" class="edge">No install required</text>

    <rect x="60" y="450" width="320" height="150" rx="6" fill="#11141c" stroke="#3affb5"/ filter="url(#bx-3d-bevel)">
    <text x="80" y="478" class="lbl ttl" fill="#3affb5">Optional - Gamepad</text>
    <text x="80" y="498" class="sub">XInput / DualSense over USB or BT</text>
    <line x1="80" y1="508" x2="360" y2="508" stroke="#1f2533"/>
    <text x="80" y="530" class="edge">Polled at 120 Hz by GamepadPoller</text>
    <text x="80" y="548" class="edge">Rumble via HapticsService</text>
    <text x="80" y="566" class="edge">Falls back to keyboard mapping</text>
  </g>

  <!-- GCP REGION GROUP -->
  <g>
    <rect x="460" y="120" width="560" height="640" rx="10" fill="#0c0f17" stroke="#ff3ad9" stroke-width="2" stroke-dasharray="6 4"/ filter="url(#bx-3d-bevel)">
    <text x="480" y="146" class="lbl grp" fill="#ff3ad9">GCP REGION (europe-west1)</text>

    <!-- Cloud Run -->
    <rect x="480" y="170" width="520" height="170" rx="6" fill="#11141c" stroke="#ff3ad9"/ filter="url(#bx-3d-bevel)">
    <text x="500" y="198" class="lbl ttl" fill="#ff3ad9">Cloud Run service - bomberman-server</text>
    <text x="500" y="218" class="sub">512 MiB / 1 vCPU free tier - autoscale 0..3</text>
    <line x1="500" y1="228" x2="980" y2="228" stroke="#1f2533"/>
    <text x="500" y="250" class="edge">Container from Artifact Registry</text>
    <text x="500" y="268" class="edge">HTTP/2 + WebSocket on port 8080</text>
    <text x="500" y="286" class="edge">Exposes /ws and /metrics</text>
    <text x="500" y="304" class="edge">Min 0 instances; cold start ~3 s</text>
    <text x="500" y="322" class="edge">Health check on /healthz every 30 s</text>

    <!-- Cloud SQL -->
    <rect x="480" y="370" width="240" height="170" rx="6" fill="#11141c" stroke="#ffb53a"/ filter="url(#bx-3d-bevel)">
    <text x="500" y="398" class="lbl ttl" fill="#ffb53a">Cloud SQL - Postgres 16</text>
    <text x="500" y="418" class="sub">db-f1-micro (free tier)</text>
    <line x1="500" y1="428" x2="700" y2="428" stroke="#1f2533"/>
    <text x="500" y="450" class="edge">Private IP only</text>
    <text x="500" y="468" class="edge">JDBC via socket factory</text>
    <text x="500" y="486" class="edge">accounts, cosmetics, history</text>
    <text x="500" y="504" class="edge">Daily backups</text>

    <!-- Memorystore Redis -->
    <rect x="760" y="370" width="240" height="170" rx="6" fill="#11141c" stroke="#ffb53a"/ filter="url(#bx-3d-bevel)">
    <text x="780" y="398" class="lbl ttl" fill="#ffb53a">Memorystore - Redis 7</text>
    <text x="780" y="418" class="sub">1 GiB basic tier</text>
    <line x1="780" y1="428" x2="980" y2="428" stroke="#1f2533"/>
    <text x="780" y="450" class="edge">Private VPC connector</text>
    <text x="780" y="468" class="edge">Lobby presence + sessions</text>
    <text x="780" y="486" class="edge">Rate limit counters</text>
    <text x="780" y="504" class="edge">TTL 30 minutes</text>

    <!-- Alternative branch -->
    <rect x="480" y="580" width="520" height="160" rx="6" fill="#11141c" stroke="#ffb53a" stroke-dasharray="5 4"/ filter="url(#bx-3d-bevel)">
    <text x="500" y="608" class="lbl ttl" fill="#ffb53a">Alternative - self-hosted on one VM (Compose)</text>
    <text x="500" y="628" class="sub">If GCP free quota is exhausted, fall back to docker-compose on a single 2 vCPU VM</text>
    <line x1="500" y1="638" x2="980" y2="638" stroke="#1f2533"/>
    <text x="500" y="660" class="edge">bomberman-server + postgres:16 + redis:7 in the same Compose stack</text>
    <text x="500" y="678" class="edge">Caddy reverse proxy terminates TLS and forwards /ws</text>
    <text x="500" y="696" class="edge">Same DNS name; deploy script picks one branch via TARGET=gcp|vm</text>
    <text x="500" y="714" class="edge">Daily pg_dump to GCS bucket</text>
  </g>

  <!-- CI/CD GROUP -->
  <g>
    <rect x="1060" y="120" width="300" height="500" rx="10" fill="#0c0f17" stroke="#3aedff" stroke-width="2" stroke-dasharray="6 4"/ filter="url(#bx-3d-bevel)">
    <text x="1080" y="146" class="lbl grp" fill="#3aedff">GITHUB ACTIONS CI/CD</text>

    <rect x="1080" y="170" width="260" height="130" rx="6" fill="#11141c" stroke="#3aedff"/ filter="url(#bx-3d-bevel)">
    <text x="1100" y="198" class="lbl ttl" fill="#3aedff">build-and-test.yml</text>
    <text x="1100" y="218" class="sub">on push and PR</text>
    <line x1="1100" y1="228" x2="1320" y2="228" stroke="#1f2533"/>
    <text x="1100" y="250" class="edge">Gradle build, unit tests</text>
    <text x="1100" y="268" class="edge">Static analysis (spotbugs)</text>
    <text x="1100" y="286" class="edge">Coverage to Codecov</text>

    <rect x="1080" y="320" width="260" height="130" rx="6" fill="#11141c" stroke="#3aedff"/ filter="url(#bx-3d-bevel)">
    <text x="1100" y="348" class="lbl ttl" fill="#3aedff">publish.yml</text>
    <text x="1100" y="368" class="sub">on tag v*</text>
    <line x1="1100" y1="378" x2="1320" y2="378" stroke="#1f2533"/>
    <text x="1100" y="400" class="edge">docker build server image</text>
    <text x="1100" y="418" class="edge">Push to Artifact Registry</text>
    <text x="1100" y="436" class="edge">Sign with cosign</text>

    <rect x="1080" y="470" width="260" height="130" rx="6" fill="#11141c" stroke="#3aedff"/ filter="url(#bx-3d-bevel)">
    <text x="1100" y="498" class="lbl ttl" fill="#3aedff">deploy.yml</text>
    <text x="1100" y="518" class="sub">manual trigger</text>
    <line x1="1100" y1="528" x2="1320" y2="528" stroke="#1f2533"/>
    <text x="1100" y="550" class="edge">gcloud run deploy bomberman-server</text>
    <text x="1100" y="568" class="edge">Traffic shift 10 then 100</text>
    <text x="1100" y="586" class="edge">Rollback on health failure</text>
  </g>

  <!-- Connectors -->
  <!-- user device -> cloud run (WS) -->
  <path d="M 400 230 L 430 230 L 430 230 L 460 230" fill="none" stroke="#3aedff" stroke-width="2" marker-end="url(#arrCyan)"/>
  <path d="M 400 370 L 430 370 L 430 230 L 460 230" fill="none" stroke="#3aedff" stroke-width="1.5" marker-end="url(#arrCyan)"/>
  <rect x="408" y="200" width="60" height="18" fill="#08090d" stroke="#1f2533"/ filter="url(#bx-3d-bevel)">
  <text x="438" y="213" class="edge" text-anchor="middle">WS/TLS</text>

  <!-- cloud run -> postgres -->
  <path d="M 600 340 L 600 370" fill="none" stroke="#ffb53a" stroke-width="2" marker-end="url(#arrAmber)"/>
  <text x="640" y="358" class="edge">JDBC</text>

  <!-- cloud run -> redis -->
  <path d="M 880 340 L 880 370" fill="none" stroke="#ffb53a" stroke-width="2" marker-end="url(#arrAmber)"/>
  <text x="900" y="358" class="edge">RESP</text>

  <!-- alt branch: dotted from cloud run to compose box (already inside region) -->
  <path d="M 740 540 L 740 580" fill="none" stroke="#ffb53a" stroke-width="1.5" stroke-dasharray="4 3" marker-end="url(#arrAmber)"/>
  <text x="760" y="568" class="edge">fallback</text>

  <!-- publish.yml -> artifact registry -> cloud run -->
  <rect x="1060" y="680" width="300" height="60" rx="6" fill="#11141c" stroke="#3aedff"/ filter="url(#bx-3d-bevel)">
  <text x="1080" y="708" class="lbl ttl" fill="#3aedff">Artifact Registry</text>
  <text x="1080" y="728" class="sub">europe-west1-docker.pkg.dev</text>

  <path d="M 1210 600 L 1210 680" fill="none" stroke="#3aedff" stroke-width="2" marker-end="url(#arrCyan)"/>
  <text x="1224" y="648" class="edge">push image</text>

  <path d="M 1060 710 L 1020 710 L 1020 280 L 1000 280" fill="none" stroke="#3aedff" stroke-width="2" marker-end="url(#arrCyan)"/>
  <text x="1030" y="500" class="edge" transform="rotate(-90 1030 500)">deploy revision</text>

  <!-- Annotation legend -->
  <rect x="40" y="760" width="980" height="80" rx="6" fill="#0c0f17" stroke="#1f2533"/ filter="url(#bx-3d-bevel)">
  <text x="60" y="788" class="lbl ttl" fill="#3aedff">Notes</text>
  <text x="60" y="810" class="sub">Cloud Run scales to zero; Postgres and Redis run continuously. Free-tier budget is sized for &lt;= 50 concurrent players.</text>
  <text x="60" y="828" class="sub">Sticky session not required: server is stateless across requests; match state lives in memory keyed by matchId, replicated to Redis.</text>
</svg>
