<?xml version="1.0" encoding="UTF-8"?>
<svg xmlns="http://www.w3.org/2000/svg" viewBox="0 0 1200 900" preserveAspectRatio="xMidYMid meet" role="img" aria-labelledby="seqTitle seqDesc">
  <title id="seqTitle">Sequence — bomb place to kill</title>
  <desc id="seqDesc">A player presses fire, the input reaches the server, GameWorld plants the bomb, the tick loop counts down the fuse, an Explosion is created, a victim's Player is killed, and the result is broadcast back to all clients.</desc>

  <defs>
    <marker id="arrC2S" viewBox="0 0 12 12" refX="11" refY="6" markerWidth="9" markerHeight="9" orient="auto">
      <path d="M0,0 L12,6 L0,12 z" fill="#3aedff"/>
    </marker>
    <marker id="arrS2C" viewBox="0 0 12 12" refX="11" refY="6" markerWidth="9" markerHeight="9" orient="auto">
      <path d="M0,0 L12,6 L0,12 z" fill="#ff3ad9"/>
    </marker>
    <marker id="arrSelf" viewBox="0 0 12 12" refX="11" refY="6" markerWidth="8" markerHeight="8" orient="auto">
      <path d="M0,0 L12,6 L0,12 z" fill="#94a3b8"/>
    </marker>
    <style>
      .lbl { font-family: -apple-system, "Segoe UI", Roboto, sans-serif; fill: #e6eef8; }
      .head { font-weight: 700; font-size: 13px; }
      .sub { font-size: 11px; fill: #94a3b8; }
      .msg { font-size: 11px; fill: #e6eef8; }
      .msgD { font-size: 11px; fill: #94a3b8; }
      .ttl { font-weight: 700; font-size: 18px; }
    </style>
  </defs>

  <rect width="1200" height="900" fill="#08090d"/>

  <text x="600" y="38" class="lbl ttl" text-anchor="middle">Sequence — Bomb: place, tick, explode, kill, broadcast</text>

  <!-- Lifelines -->
  <g>
    <rect x="80" y="70" width="120" height="44" rx="6" fill="#11141c" stroke="#3affb5" stroke-width="2"/>
    <text x="140" y="91" class="lbl head" text-anchor="middle" fill="#3affb5">GameClient</text>
    <text x="140" y="106" class="sub" text-anchor="middle">bomberman-client .net</text>
  </g>
  <g>
    <rect x="300" y="70" width="120" height="44" rx="6" fill="#11141c" stroke="#ff3ad9" stroke-width="2"/>
    <text x="360" y="91" class="lbl head" text-anchor="middle" fill="#ff3ad9">GameServerHandler</text>
    <text x="360" y="106" class="sub" text-anchor="middle">.net</text>
  </g>
  <g>
    <rect x="520" y="70" width="120" height="44" rx="6" fill="#11141c" stroke="#ff3ad9" stroke-width="2"/>
    <text x="580" y="91" class="lbl head" text-anchor="middle" fill="#ff3ad9">MatchSession</text>
    <text x="580" y="106" class="sub" text-anchor="middle">.match</text>
  </g>
  <g>
    <rect x="740" y="70" width="120" height="44" rx="6" fill="#11141c" stroke="#3aedff" stroke-width="2"/>
    <text x="800" y="91" class="lbl head" text-anchor="middle" fill="#3aedff">GameWorld</text>
    <text x="800" y="106" class="sub" text-anchor="middle">bomberman-core .sim</text>
  </g>
  <g>
    <rect x="960" y="70" width="120" height="44" rx="6" fill="#11141c" stroke="#3aedff" stroke-width="2"/>
    <text x="1020" y="91" class="lbl head" text-anchor="middle" fill="#3aedff">Bomb / Explosion</text>
    <text x="1020" y="106" class="sub" text-anchor="middle">.entity</text>
  </g>

  <!-- Lifelines -->
  <line x1="140" y1="114" x2="140" y2="840" stroke="#1f2533" stroke-width="1" stroke-dasharray="4 4"/>
  <line x1="360" y1="114" x2="360" y2="840" stroke="#1f2533" stroke-width="1" stroke-dasharray="4 4"/>
  <line x1="580" y1="114" x2="580" y2="840" stroke="#1f2533" stroke-width="1" stroke-dasharray="4 4"/>
  <line x1="800" y1="114" x2="800" y2="840" stroke="#1f2533" stroke-width="1" stroke-dasharray="4 4"/>
  <line x1="1020" y1="114" x2="1020" y2="840" stroke="#1f2533" stroke-width="1" stroke-dasharray="4 4"/>

  <!-- Activations -->
  <rect x="134" y="160" width="12" height="640" fill="#0c0f17" stroke="#3affb5"/>
  <rect x="354" y="190" width="12" height="580" fill="#0c0f17" stroke="#ff3ad9"/>
  <rect x="574" y="220" width="12" height="500" fill="#0c0f17" stroke="#ff3ad9"/>
  <rect x="794" y="250" width="12" height="440" fill="#0c0f17" stroke="#3aedff"/>
  <rect x="1014" y="370" width="12" height="240" fill="#0c0f17" stroke="#3aedff"/>

  <!-- 1: input frame fire pressed -->
  <text x="250" y="172" class="msg" text-anchor="middle">1. INPUT { action: PLANT }</text>
  <line x1="146" y1="180" x2="354" y2="180" stroke="#3aedff" stroke-width="1.5" marker-end="url(#arrC2S)"/>

  <!-- 2: handler -> session.dispatch -->
  <text x="470" y="202" class="msg" text-anchor="middle">2. dispatchInput(p, env)</text>
  <line x1="366" y1="210" x2="574" y2="210" stroke="#ff3ad9" stroke-width="1.5" marker-end="url(#arrS2C)"/>

  <!-- 3: session -> world.applyInput -->
  <text x="690" y="232" class="msg" text-anchor="middle">3. world.applyInput(p, action)</text>
  <line x1="586" y1="240" x2="794" y2="240" stroke="#ff3ad9" stroke-width="1.5" marker-end="url(#arrS2C)"/>

  <!-- 4: world -> bomb new -->
  <text x="910" y="262" class="msg" text-anchor="middle">4. new Bomb(tile, owner, range)</text>
  <line x1="806" y1="270" x2="1014" y2="270" stroke="#3aedff" stroke-width="1.5" marker-end="url(#arrSelf)"/>

  <!-- 5: world self: registerBomb -->
  <text x="890" y="302" class="msgD">5. registerBomb(b) - fuse 2.5 s</text>
  <path d="M 806 310 Q 880 310 880 332 Q 880 354 806 354" fill="none" stroke="#94a3b8" stroke-width="1.2" marker-end="url(#arrSelf)"/>

  <!-- 6: snapshot back: BOMB_PLACED -->
  <text x="250" y="382" class="msg" text-anchor="middle" fill="#ff3ad9">6. SNAPSHOT { bomb placed }</text>
  <line x1="354" y1="390" x2="146" y2="390" stroke="#ff3ad9" stroke-width="1.5" marker-end="url(#arrS2C)"/>

  <!-- 7: tick loop -> world.tick (self) -->
  <text x="890" y="422" class="msgD">7. tick(dt) x 150 frames @ 60 Hz</text>
  <path d="M 806 430 Q 880 430 880 452 Q 880 474 806 474" fill="none" stroke="#94a3b8" stroke-width="1.2" marker-end="url(#arrSelf)"/>

  <!-- 8: world -> bomb tick (fuse -> 0) -->
  <text x="910" y="502" class="msg" text-anchor="middle">8. bomb.tick(dt) - fuse -&gt; 0</text>
  <line x1="806" y1="510" x2="1014" y2="510" stroke="#3aedff" stroke-width="1.5" marker-end="url(#arrSelf)"/>

  <!-- 9: bomb -> explosion (replace) -->
  <text x="1100" y="540" class="msgD" text-anchor="start">9. detonate() -&gt; new Explosion(range)</text>

  <!-- 10: world self: applyDamage to Player -->
  <text x="890" y="572" class="msgD">10. applyDamage(victim) - victim.kill()</text>
  <path d="M 806 580 Q 880 580 880 602 Q 880 624 806 624" fill="none" stroke="#94a3b8" stroke-width="1.2" marker-end="url(#arrSelf)"/>

  <!-- 11: world -> session return killEvent -->
  <text x="690" y="652" class="msg" text-anchor="middle">11. KillEvent(victim, killer)</text>
  <line x1="794" y1="660" x2="586" y2="660" stroke="#ff3ad9" stroke-width="1.5" marker-end="url(#arrS2C)" stroke-dasharray="4 3"/>

  <!-- 12: session -> handler -> broadcast snapshot -->
  <text x="470" y="682" class="msg" text-anchor="middle">12. broadcast(snapshot+kill)</text>
  <line x1="574" y1="690" x2="366" y2="690" stroke="#ff3ad9" stroke-width="1.5" marker-end="url(#arrS2C)"/>

  <!-- 13: server -> all clients: SNAPSHOT + KILL -->
  <text x="250" y="712" class="msg" text-anchor="middle" fill="#ff3ad9">13. SNAPSHOT { explosion } + KILL</text>
  <line x1="354" y1="720" x2="146" y2="720" stroke="#ff3ad9" stroke-width="1.5" marker-end="url(#arrS2C)"/>

  <!-- 14: client self: play VFX + haptics -->
  <text x="60" y="752" class="msgD" text-anchor="start">14. ParticleSystem + Haptics</text>
  <path d="M 134 760 Q 60 760 60 782 Q 60 804 134 804" fill="none" stroke="#94a3b8" stroke-width="1.2" marker-end="url(#arrSelf)"/>

  <!-- legend -->
  <g>
    <rect x="80" y="852" width="14" height="10" fill="#3aedff"/>
    <text x="100" y="861" class="msgD">client to server</text>
    <rect x="220" y="852" width="14" height="10" fill="#ff3ad9"/>
    <text x="240" y="861" class="msgD">server to client</text>
    <rect x="360" y="852" width="14" height="10" fill="#94a3b8"/>
    <text x="380" y="861" class="msgD">self call</text>
    <text x="500" y="861" class="msgD">dashed = return value</text>
  </g>
</svg>
