<?xml version="1.0" encoding="UTF-8"?>
<svg xmlns="http://www.w3.org/2000/svg" viewBox="0 0 1200 900" preserveAspectRatio="xMidYMid meet" role="img" aria-labelledby="seqTitle seqDesc">
  <title id="seqTitle">Sequence — match start</title>
  <desc id="seqDesc">From client launch to the first authoritative snapshot: ClientLauncher authenticates, joins the lobby, the matchmaker forms a session, MatchManager seeds an Arena, and Snapshotter pushes the first state.</desc>

  <defs>
    <marker id="arrC2S" viewBox="0 0 12 12" refX="11" refY="6" markerWidth="9" markerHeight="9" orient="auto">
      <path d="M0,0 L12,6 L0,12 z" fill="#3aedff"/>
    </marker>
    <marker id="arrS2C" viewBox="0 0 12 12" refX="11" refY="6" markerWidth="9" markerHeight="9" orient="auto">
      <path d="M0,0 L12,6 L0,12 z" fill="#ff3ad9"/>
    </marker>
    <marker id="arrSelf" viewBox="0 0 12 12" refX="11" refY="6" markerWidth="8" markerHeight="8" orient="auto">
      <path d="M0,0 L12,6 L0,12 z" fill="#94a3b8"/>
    </marker>
    <style>
      .lbl { font-family: -apple-system, "Segoe UI", Roboto, sans-serif; fill: #e6eef8; }
      .head { font-weight: 700; font-size: 13px; }
      .sub { font-size: 11px; fill: #94a3b8; }
      .msg { font-size: 11px; fill: #e6eef8; }
      .msgD { font-size: 11px; fill: #94a3b8; }
      .ttl { font-weight: 700; font-size: 18px; }
    </style>
  </defs>

  <rect width="1200" height="900" fill="#08090d"/>

  <text x="600" y="38" class="lbl ttl" text-anchor="middle">Sequence — Match Start (client launch to first snapshot)</text>

  <!-- Lifeline headers -->
  <g>
    <rect x="80" y="70" width="120" height="44" rx="6" fill="#11141c" stroke="#3affb5" stroke-width="2"/>
    <text x="140" y="91" class="lbl head" text-anchor="middle" fill="#3affb5">ClientLauncher</text>
    <text x="140" y="106" class="sub" text-anchor="middle">bomb-client</text>
  </g>
  <g>
    <rect x="300" y="70" width="120" height="44" rx="6" fill="#11141c" stroke="#ff3ad9" stroke-width="2"/>
    <text x="360" y="91" class="lbl head" text-anchor="middle" fill="#ff3ad9">GameServerHandler</text>
    <text x="360" y="106" class="sub" text-anchor="middle">.net</text>
  </g>
  <g>
    <rect x="520" y="70" width="120" height="44" rx="6" fill="#11141c" stroke="#ff3ad9" stroke-width="2"/>
    <text x="580" y="91" class="lbl head" text-anchor="middle" fill="#ff3ad9">LobbyService</text>
    <text x="580" y="106" class="sub" text-anchor="middle">.lobby</text>
  </g>
  <g>
    <rect x="740" y="70" width="120" height="44" rx="6" fill="#11141c" stroke="#ff3ad9" stroke-width="2"/>
    <text x="800" y="91" class="lbl head" text-anchor="middle" fill="#ff3ad9">MatchManager</text>
    <text x="800" y="106" class="sub" text-anchor="middle">.match</text>
  </g>
  <g>
    <rect x="960" y="70" width="120" height="44" rx="6" fill="#11141c" stroke="#3aedff" stroke-width="2"/>
    <text x="1020" y="91" class="lbl head" text-anchor="middle" fill="#3aedff">GameWorld</text>
    <text x="1020" y="106" class="sub" text-anchor="middle">bomb-core .sim</text>
  </g>

  <!-- Lifelines -->
  <line x1="140" y1="114" x2="140" y2="840" stroke="#1f2533" stroke-width="1" stroke-dasharray="4 4"/>
  <line x1="360" y1="114" x2="360" y2="840" stroke="#1f2533" stroke-width="1" stroke-dasharray="4 4"/>
  <line x1="580" y1="114" x2="580" y2="840" stroke="#1f2533" stroke-width="1" stroke-dasharray="4 4"/>
  <line x1="800" y1="114" x2="800" y2="840" stroke="#1f2533" stroke-width="1" stroke-dasharray="4 4"/>
  <line x1="1020" y1="114" x2="1020" y2="840" stroke="#1f2533" stroke-width="1" stroke-dasharray="4 4"/>

  <!-- Activation bars -->
  <rect x="134" y="160" width="12" height="640" fill="#0c0f17" stroke="#3affb5" stroke-width="1"/>
  <rect x="354" y="190" width="12" height="600" fill="#0c0f17" stroke="#ff3ad9" stroke-width="1"/>
  <rect x="574" y="240" width="12" height="160" fill="#0c0f17" stroke="#ff3ad9" stroke-width="1"/>
  <rect x="794" y="430" width="12" height="270" fill="#0c0f17" stroke="#ff3ad9" stroke-width="1"/>
  <rect x="1014" y="490" width="12" height="200" fill="#0c0f17" stroke="#3aedff" stroke-width="1"/>

  <!-- Messages -->
  <!-- 1: client -> server: WS connect /ws -->
  <text x="250" y="172" class="msg" text-anchor="middle">1. WS connect /ws</text>
  <line x1="146" y1="180" x2="354" y2="180" stroke="#3aedff" stroke-width="1.5" marker-end="url(#arrC2S)"/>

  <!-- 2: server -> client: AUTH_REQ -->
  <text x="250" y="202" class="msg" text-anchor="middle" fill="#ff3ad9">2. AUTH_REQ</text>
  <line x1="354" y1="210" x2="146" y2="210" stroke="#ff3ad9" stroke-width="1.5" marker-end="url(#arrS2C)"/>

  <!-- 3: client -> server: AUTH_RESP token -->
  <text x="250" y="232" class="msg" text-anchor="middle">3. AUTH_RESP { token }</text>
  <line x1="146" y1="240" x2="354" y2="240" stroke="#3aedff" stroke-width="1.5" marker-end="url(#arrC2S)"/>

  <!-- 4: server -> lobby: enqueue -->
  <text x="470" y="262" class="msg" text-anchor="middle">4. enqueue(LobbyPlayer)</text>
  <line x1="366" y1="270" x2="574" y2="270" stroke="#ff3ad9" stroke-width="1.5" marker-end="url(#arrS2C)"/>

  <!-- 5: lobby self: matchFound() -->
  <text x="690" y="302" class="msgD">5. matchFound() when 4 players queued</text>
  <path d="M 586 310 Q 660 310 660 332 Q 660 354 586 354" fill="none" stroke="#94a3b8" stroke-width="1.2" marker-end="url(#arrSelf)"/>

  <!-- 6: lobby -> server: LOBBY_MATCHED -->
  <text x="470" y="382" class="msg" text-anchor="middle" fill="#ff3ad9">6. LOBBY_MATCHED { matchId }</text>
  <line x1="574" y1="390" x2="366" y2="390" stroke="#ff3ad9" stroke-width="1.5" marker-end="url(#arrS2C)"/>

  <!-- 7: server -> client: MATCH_FORMING -->
  <text x="250" y="412" class="msg" text-anchor="middle" fill="#ff3ad9">7. MATCH_FORMING { matchId }</text>
  <line x1="354" y1="420" x2="146" y2="420" stroke="#ff3ad9" stroke-width="1.5" marker-end="url(#arrS2C)"/>

  <!-- 8: server -> matchmgr: createMatch -->
  <text x="580" y="452" class="msg" text-anchor="middle">8. createMatch(players)</text>
  <line x1="366" y1="460" x2="794" y2="460" stroke="#ff3ad9" stroke-width="1.5" marker-end="url(#arrS2C)"/>

  <!-- 9: matchmgr -> world: new GameWorld -->
  <text x="910" y="502" class="msg" text-anchor="middle">9. new GameWorld(arena, mode)</text>
  <line x1="806" y1="510" x2="1014" y2="510" stroke="#ff3ad9" stroke-width="1.5" marker-end="url(#arrS2C)"/>

  <!-- 10: world self: seed arena -->
  <text x="1100" y="542" class="msgD">10. seedArena() + spawnPlayers()</text>
  <path d="M 1026 550 Q 1100 550 1100 572 Q 1100 594 1026 594" fill="none" stroke="#94a3b8" stroke-width="1.2" marker-end="url(#arrSelf)"/>

  <!-- 11: matchmgr -> server: ready (return) -->
  <text x="580" y="622" class="msg" text-anchor="middle">11. MatchSession ready</text>
  <line x1="794" y1="630" x2="366" y2="630" stroke="#ff3ad9" stroke-width="1.5" marker-end="url(#arrS2C)" stroke-dasharray="4 3"/>

  <!-- 12: server -> client: MATCH_START + snapshot 0 -->
  <text x="250" y="662" class="msg" text-anchor="middle" fill="#ff3ad9">12. MATCH_START + SNAPSHOT_0</text>
  <line x1="354" y1="670" x2="146" y2="670" stroke="#ff3ad9" stroke-width="1.5" marker-end="url(#arrS2C)"/>

  <!-- 13: client self: render arena -->
  <text x="60" y="702" class="msgD" text-anchor="start">13. ArenaView fades in</text>
  <path d="M 134 710 Q 60 710 60 732 Q 60 754 134 754" fill="none" stroke="#94a3b8" stroke-width="1.2" marker-end="url(#arrSelf)"/>

  <!-- 14: client -> server: INPUT first frame -->
  <text x="250" y="782" class="msg" text-anchor="middle">14. INPUT { dir, action } @ 60 Hz</text>
  <line x1="146" y1="790" x2="354" y2="790" stroke="#3aedff" stroke-width="1.5" marker-end="url(#arrC2S)"/>

  <!-- legend -->
  <g>
    <rect x="80" y="852" width="14" height="10" fill="#3aedff"/>
    <text x="100" y="861" class="msgD">client to server</text>
    <rect x="220" y="852" width="14" height="10" fill="#ff3ad9"/>
    <text x="240" y="861" class="msgD">server to client</text>
    <rect x="360" y="852" width="14" height="10" fill="#94a3b8"/>
    <text x="380" y="861" class="msgD">self call</text>
    <text x="500" y="861" class="msgD">dashed = return value</text>
  </g>
</svg>
